<svg width="19" height="19" viewBox="0 0 19 19" fill="none" xmlns="http://www.w3.org/2000/svg">
<path d="M9.41179 11.3368L9.41121 11.3368C9.36259 11.337 9.3144 11.3277 9.26938 11.3093C9.22456 11.291 9.18378 11.2641 9.14935 11.2301C9.1492 11.2299 9.14905 11.2298 9.14891 11.2296L6.19442 8.27512C6.12457 8.20527 6.08533 8.11053 6.08533 8.01175C6.08533 7.91296 6.12457 7.81823 6.19442 7.74837C6.26427 7.67852 6.35901 7.63928 6.45779 7.63928C6.5565 7.63928 6.65117 7.67846 6.721 7.74821C6.72106 7.74826 6.72111 7.74832 6.72117 7.74837L9.15172 10.1863L9.41295 10.4483L9.67459 10.1867L12.0937 7.76759C12.163 7.71199 12.2501 7.68314 12.3392 7.68658C12.4321 7.69017 12.5204 7.72871 12.5861 7.79451C12.6519 7.8603 12.6905 7.9485 12.6941 8.04148C12.6975 8.13052 12.6687 8.21766 12.6131 8.28695L9.67041 11.2296C9.67025 11.2298 9.6701 11.2299 9.66995 11.2301C9.60118 11.298 9.5085 11.3363 9.41179 11.3368Z" fill="#3A3A42" stroke="#A098AE" stroke-width="0.738889"/>
</svg>
