<svg width="24" height="23" viewBox="0 0 24 23" fill="none" xmlns="http://www.w3.org/2000/svg">
<path d="M20.064 17.655L16.4182 14.0093C17.1715 12.8739 17.6124 11.5146 17.6124 10.0533C17.6124 6.09369 14.391 2.87231 10.4314 2.87231C6.47186 2.87231 3.25049 6.09369 3.25049 10.0533C3.25049 14.0128 6.47186 17.2342 10.4314 17.2342C11.8928 17.2342 13.2521 16.7933 14.3874 16.04L18.0332 19.6858C18.5933 20.2466 19.5039 20.2466 20.064 19.6858C20.6248 19.125 20.6248 18.2159 20.064 17.655ZM5.40477 10.0533C5.40477 7.28142 7.65959 5.0266 10.4314 5.0266C13.2033 5.0266 15.4581 7.28142 15.4581 10.0533C15.4581 12.8251 13.2033 15.0799 10.4314 15.0799C7.65959 15.0799 5.40477 12.8251 5.40477 10.0533Z" fill="#3A3A42" fill-opacity="0.7"/>
</svg>
