<svg width="19" height="19" viewBox="0 0 19 19" fill="none" xmlns="http://www.w3.org/2000/svg">
<path d="M9.51257 1.17706C7.94708 1.17831 6.41376 1.62161 5.08911 2.45594H13.9239C12.6028 1.6238 11.0739 1.18059 9.51257 1.17706Z" fill="#B22234"/>
<path d="M5.08857 2.45587C4.51794 2.81711 3.99347 3.24654 3.52673 3.73468H15.5071C15.0336 3.24513 14.5017 2.81565 13.9234 2.45587H5.08857Z" fill="white"/>
<path d="M3.52761 3.73468C3.15033 4.12692 2.81247 4.55527 2.51892 5.01355H16.5164C16.223 4.55528 15.8852 4.12693 15.508 3.73468H3.52761Z" fill="#B22234"/>
<path d="M2.51807 5.01373C2.2557 5.41952 2.02921 5.84741 1.84119 6.29254H17.1768C16.9938 5.84795 16.7726 5.42008 16.5156 5.01373H2.51807Z" fill="white"/>
<path d="M1.84083 6.2923C1.67063 6.7069 1.53423 7.13458 1.43298 7.57117H17.5898C17.4868 7.13442 17.3485 6.70673 17.1765 6.2923H1.84083Z" fill="#B22234"/>
<path d="M1.4336 7.57135C1.33319 7.99175 1.26572 8.41933 1.23181 8.85022H17.7978C17.762 8.41919 17.6927 7.9916 17.5904 7.57135H1.4336Z" fill="white"/>
<path d="M1.23256 8.85016C1.21369 9.0628 1.20301 9.2761 1.20056 9.48956C1.20137 9.70296 1.2104 9.91626 1.22762 10.129H17.7936C17.8124 9.91632 17.8231 9.70303 17.8256 9.48956C17.8248 9.27616 17.8157 9.06287 17.7985 8.85016H1.23256Z" fill="#B22234"/>
<path d="M1.22791 10.129C1.26364 10.56 1.33297 10.9876 1.43524 11.4078H17.5921C17.6925 10.9874 17.7599 10.5599 17.7939 10.129H1.22791Z" fill="white"/>
<path d="M1.43494 11.4078C1.53797 11.8445 1.67619 12.2722 1.84826 12.6866H17.1839C17.3541 12.272 17.4905 11.8444 17.5918 11.4078H1.43494Z" fill="#B22234"/>
<path d="M1.84705 12.6868C2.03007 13.1314 2.25131 13.5593 2.5083 13.9656H16.5058C16.7682 13.5598 16.9947 13.132 17.1827 12.6868H1.84705Z" fill="white"/>
<path d="M2.50903 13.9655C2.8025 14.4238 3.14026 14.8521 3.51745 15.2444H15.4979C15.8751 14.8521 16.213 14.4238 16.5066 13.9655H2.50903Z" fill="#B22234"/>
<path d="M3.51697 15.2444C3.9905 15.734 4.52241 16.1635 5.10073 16.5233H13.9355C14.5062 16.162 15.0306 15.7326 15.4974 15.2444H3.51697Z" fill="white"/>
<path d="M5.10095 16.5233C6.42211 17.3554 7.95093 17.7986 9.5123 17.8021C11.0778 17.8009 12.6111 17.3576 13.9358 16.5233H5.10095Z" fill="#B22234"/>
<path d="M9.51307 1.17706C7.30845 1.17706 5.19413 2.05284 3.63524 3.61174C2.07634 5.17064 1.20056 7.28495 1.20056 9.48957C1.20165 9.70923 1.21144 9.92876 1.22992 10.1476H10.1711V1.21001C9.9523 1.19033 9.73277 1.17934 9.51307 1.17706Z" fill="#3C3B6E"/>
<path d="M6.53799 1.73737C6.42724 1.7778 6.31735 1.82059 6.20842 1.8657L6.32984 1.95797L6.24772 2.22335L6.46527 2.06093L6.68919 2.23113L6.6051 1.95648L6.82901 1.78932H6.55389L6.53799 1.73737ZM7.94801 1.51031L7.86164 1.7893H7.58747L7.80941 1.95799L7.72726 2.22333L7.9448 2.06092L8.16873 2.23112L8.08464 1.95651L8.30855 1.7893H8.03345L7.94801 1.51031ZM9.42755 1.51031L9.34118 1.7893H9.06701L9.28894 1.95799L9.2068 2.22333L9.42434 2.06092L9.64827 2.23112L9.56418 1.95651L9.78809 1.7893H9.51299L9.42755 1.51031ZM4.39926 2.94826C4.36017 2.97741 4.32134 3.00691 4.28277 3.03674L4.46988 3.179L4.39926 2.94826ZM5.7287 2.45818L5.64233 2.73717H5.36816L5.59009 2.90586L5.50795 3.1712L5.72549 3.00879L5.94942 3.17899L5.86533 2.90438L6.08923 2.73717H5.81414L5.7287 2.45818ZM7.20824 2.45818L7.12187 2.73717H6.8477L7.06964 2.90586L6.98749 3.1712L7.20503 3.00879L7.42896 3.17899L7.34487 2.90438L7.56878 2.73717H7.29368L7.20824 2.45818ZM8.68778 2.45818L8.60141 2.73717H8.32724L8.54918 2.90586L8.46703 3.1712L8.68457 3.00879L8.9085 3.17899L8.82441 2.90438L9.04832 2.73717H8.77322L8.68778 2.45818ZM3.58796 3.66268C3.50597 3.74947 3.42586 3.83802 3.34768 3.92826L3.28862 4.11903L3.50618 3.95661L3.73009 4.12681L3.646 3.85223L3.86992 3.685H3.59479L3.58796 3.66268ZM4.98893 3.40601L4.90256 3.685H4.62839L4.85032 3.85369L4.76818 4.11903L4.98572 3.95662L5.20965 4.12682L5.12556 3.85221L5.34947 3.685H5.07436L4.98893 3.40601ZM6.46847 3.40601L6.3821 3.685H6.10793L6.32986 3.85369L6.24772 4.11903L6.46526 3.95662L6.68919 4.12682L6.6051 3.85221L6.829 3.685H6.55391L6.46847 3.40601ZM7.94801 3.40601L7.86164 3.685H7.58747L7.80941 3.85369L7.72726 4.11903L7.9448 3.95662L8.16873 4.12682L8.08464 3.85221L8.30855 3.685H8.03345L7.94801 3.40601ZM9.42755 3.40601L9.34118 3.685H9.06701L9.28894 3.85369L9.2068 4.11903L9.42434 3.95662L9.64827 4.12682L9.56418 3.85221L9.78809 3.685H9.51299L9.42755 3.40601ZM2.83241 4.55887C2.75582 4.66094 2.68159 4.76477 2.60978 4.87025L2.5489 5.0669L2.76638 4.90448L2.99036 5.07468L2.90628 4.8001L3.13012 4.63288H2.85507L2.83241 4.55887ZM4.24916 4.35388L4.16279 4.63287H3.88862L4.11055 4.80155L4.02841 5.0669L4.24595 4.90449L4.46988 5.07468L4.38579 4.80008L4.6097 4.63287H4.33459L4.24916 4.35388ZM5.7287 4.35388L5.64233 4.63287H5.36816L5.59009 4.80155L5.50795 5.0669L5.72549 4.90449L5.94942 5.07468L5.86533 4.80008L6.08923 4.63287H5.81414L5.7287 4.35388ZM7.20824 4.35388L7.12187 4.63287H6.8477L7.06964 4.80155L6.98749 5.0669L7.20503 4.90449L7.42896 5.07468L7.34487 4.80008L7.56878 4.63287H7.29368L7.20824 4.35388ZM8.68778 4.35388L8.60141 4.63287H8.32724L8.54918 4.80155L8.46703 5.0669L8.68457 4.90449L8.9085 5.07468L8.82441 4.80008L9.04832 4.63287H8.77322L8.68778 4.35388ZM2.18408 5.58075C2.1344 5.67386 2.08649 5.76791 2.04039 5.86284L2.25057 6.02256L2.16649 5.74798L2.3904 5.58075H2.18408ZM3.50939 5.30175L3.42302 5.58074H3.14885L3.37078 5.74942L3.28864 6.01477L3.50618 5.85236L3.73011 6.02255L3.64602 5.74795L3.86993 5.58074H3.59482L3.50939 5.30175ZM4.98893 5.30175L4.90256 5.58074H4.62839L4.85032 5.74942L4.76818 6.01477L4.98572 5.85236L5.20965 6.02255L5.12556 5.74795L5.34947 5.58074H5.07436L4.98893 5.30175ZM6.46847 5.30175L6.3821 5.58074H6.10793L6.32986 5.74942L6.24772 6.01477L6.46526 5.85236L6.68919 6.02255L6.6051 5.74795L6.829 5.58074H6.55391L6.46847 5.30175ZM7.94801 5.30175L7.86164 5.58074H7.58747L7.80941 5.74942L7.72726 6.01477L7.9448 5.85236L8.16873 6.02255L8.08464 5.74795L8.30855 5.58074H8.03345L7.94801 5.30175ZM9.42755 5.30175L9.34118 5.58074H9.06701L9.28894 5.74942L9.2068 6.01477L9.42434 5.85236L9.64827 6.02255L9.56418 5.74795L9.78809 5.58074H9.51299L9.42755 5.30175ZM2.76962 6.24958L2.68325 6.52857H2.40908L2.63101 6.69725L2.54887 6.9626L2.76641 6.80019L2.99034 6.97038L2.90625 6.69578L3.13016 6.52857H2.85505L2.76962 6.24958ZM4.24916 6.24958L4.16279 6.52857H3.88862L4.11055 6.69725L4.02841 6.9626L4.24595 6.80019L4.46988 6.97038L4.38579 6.69578L4.6097 6.52857H4.33459L4.24916 6.24958ZM5.7287 6.24958L5.64233 6.52857H5.36816L5.59009 6.69725L5.50795 6.9626L5.72549 6.80019L5.94942 6.97038L5.86533 6.69578L6.08923 6.52857H5.81414L5.7287 6.24958ZM7.20824 6.24958L7.12187 6.52857H6.8477L7.06964 6.69725L6.98749 6.9626L7.20503 6.80019L7.42896 6.97038L7.34487 6.69578L7.56878 6.52857H7.29368L7.20824 6.24958ZM8.68778 6.24958L8.60141 6.52857H8.32724L8.54918 6.69725L8.46703 6.9626L8.68457 6.80019L8.9085 6.97038L8.82441 6.69578L9.04832 6.52857H8.77322L8.68778 6.24958ZM2.02985 7.19745L1.94348 7.47644H1.66931L1.89124 7.64512L1.8091 7.91047L2.02664 7.74806L2.25057 7.91825L2.16648 7.64365L2.39039 7.47644H2.11529L2.02985 7.19745ZM3.50939 7.19745L3.42302 7.47644H3.14885L3.37078 7.64512L3.28864 7.91047L3.50618 7.74806L3.73011 7.91825L3.64602 7.64365L3.86993 7.47644H3.59482L3.50939 7.19745ZM4.98893 7.19745L4.90256 7.47644H4.62839L4.85032 7.64512L4.76818 7.91047L4.98572 7.74806L5.20965 7.91825L5.12556 7.64365L5.34947 7.47644H5.07436L4.98893 7.19745ZM6.46847 7.19745L6.3821 7.47644H6.10793L6.32986 7.64512L6.24772 7.91047L6.46526 7.74806L6.68919 7.91825L6.6051 7.64365L6.829 7.47644H6.55391L6.46847 7.19745ZM7.94801 7.19745L7.86164 7.47644H7.58747L7.80941 7.64512L7.72726 7.91047L7.9448 7.74806L8.16873 7.91825L8.08464 7.64365L8.30855 7.47644H8.03345L7.94801 7.19745ZM9.42755 7.19745L9.34118 7.47644H9.06701L9.28894 7.64512L9.2068 7.91047L9.42434 7.74806L9.64827 7.91825L9.56418 7.64365L9.78809 7.47644H9.51299L9.42755 7.19745ZM2.76962 8.14532L2.68325 8.42431H2.40908L2.63101 8.59299L2.54887 8.85834L2.76641 8.69593L2.99034 8.86612L2.90625 8.59152L3.13016 8.42431H2.85505L2.76962 8.14532ZM4.24916 8.14532L4.16279 8.42431H3.88862L4.11055 8.59299L4.02841 8.85834L4.24595 8.69593L4.46988 8.86612L4.38579 8.59152L4.6097 8.42431H4.33459L4.24916 8.14532ZM5.7287 8.14532L5.64233 8.42431H5.36816L5.59009 8.59299L5.50795 8.85834L5.72549 8.69593L5.94942 8.86612L5.86533 8.59152L6.08923 8.42431H5.81414L5.7287 8.14532ZM7.20824 8.14532L7.12187 8.42431H6.8477L7.06964 8.59299L6.98749 8.85834L7.20503 8.69593L7.42896 8.86612L7.34487 8.59152L7.56878 8.42431H7.29368L7.20824 8.14532ZM8.68778 8.14532L8.60141 8.42431H8.32724L8.54918 8.59299L8.46703 8.85834L8.68457 8.69593L8.9085 8.86612L8.82441 8.59152L9.04832 8.42431H8.77322L8.68778 8.14532ZM2.02985 9.09315L1.94348 9.37214H1.66931L1.89124 9.54082L1.8091 9.80617L2.02664 9.64376L2.25057 9.81395L2.16648 9.53935L2.39039 9.37214H2.11529L2.02985 9.09315ZM3.50939 9.09315L3.42302 9.37214H3.14885L3.37078 9.54082L3.28864 9.80617L3.50618 9.64376L3.73011 9.81395L3.64602 9.53935L3.86993 9.37214H3.59482L3.50939 9.09315ZM4.98893 9.09315L4.90256 9.37214H4.62839L4.85032 9.54082L4.76818 9.80617L4.98572 9.64376L5.20965 9.81395L5.12556 9.53935L5.34947 9.37214H5.07436L4.98893 9.09315ZM6.46847 9.09315L6.3821 9.37214H6.10793L6.32986 9.54082L6.24772 9.80617L6.46526 9.64376L6.68919 9.81395L6.6051 9.53935L6.829 9.37214H6.55391L6.46847 9.09315ZM7.94801 9.09315L7.86164 9.37214H7.58747L7.80941 9.54082L7.72726 9.80617L7.9448 9.64376L8.16873 9.81395L8.08464 9.53935L8.30855 9.37214H8.03345L7.94801 9.09315ZM9.42755 9.09315L9.34118 9.37214H9.06701L9.28894 9.54082L9.2068 9.80617L9.42434 9.64376L9.64827 9.81395L9.56418 9.53935L9.78809 9.37214H9.51299L9.42755 9.09315Z" fill="white"/>
</svg>
