<svg width="68" height="28" viewBox="0 0 68 28" fill="none" xmlns="http://www.w3.org/2000/svg">
<rect x="0.399902" width="67.6" height="28" rx="8" fill="#F0F0F0"/>
<path d="M9.6799 20V8.16H13.5199C14.4692 8.16 15.2959 8.33067 15.9999 8.672C16.7039 9.00267 17.2906 9.45067 17.7599 10.016C18.2292 10.5813 18.5812 11.216 18.8159 11.92C19.0506 12.624 19.1679 13.344 19.1679 14.08C19.1679 14.816 19.0506 15.536 18.8159 16.24C18.5812 16.944 18.2292 17.5787 17.7599 18.144C17.2906 18.7093 16.7039 19.1627 15.9999 19.504C15.2959 19.8347 14.4692 20 13.5199 20H9.6799ZM13.4559 9.536H11.2479V18.624H13.4559C14.1492 18.624 14.7519 18.496 15.2639 18.24C15.7866 17.984 16.2186 17.6427 16.5599 17.216C16.9119 16.7787 17.1732 16.288 17.3439 15.744C17.5146 15.2 17.5999 14.6453 17.5999 14.08C17.5999 13.5147 17.5146 12.96 17.3439 12.416C17.1732 11.872 16.9119 11.3867 16.5599 10.96C16.2186 10.5227 15.7866 10.176 15.2639 9.92C14.7519 9.664 14.1492 9.536 13.4559 9.536ZM24.8405 11.36C25.3739 11.36 25.8219 11.4453 26.1845 11.616C26.5472 11.7867 26.8405 11.9893 27.0645 12.224C27.2885 12.448 27.4592 12.6613 27.5765 12.864H27.6725V11.52H29.1925V20H27.6725V18.656H27.5765C27.4592 18.8587 27.2885 19.0773 27.0645 19.312C26.8405 19.5467 26.5472 19.7493 26.1845 19.92C25.8219 20.08 25.3739 20.16 24.8405 20.16C24.2005 20.16 23.6405 20.0373 23.1605 19.792C22.6805 19.536 22.2805 19.2 21.9605 18.784C21.6405 18.3573 21.4005 17.8827 21.2405 17.36C21.0805 16.8373 21.0005 16.304 21.0005 15.76C21.0005 15.216 21.0805 14.6827 21.2405 14.16C21.4005 13.6373 21.6405 13.168 21.9605 12.752C22.2805 12.3253 22.6805 11.9893 23.1605 11.744C23.6405 11.488 24.2005 11.36 24.8405 11.36ZM25.0965 12.656C24.5312 12.656 24.0565 12.8107 23.6725 13.12C23.2885 13.4187 23.0005 13.8027 22.8085 14.272C22.6272 14.7413 22.5365 15.2373 22.5365 15.76C22.5365 16.272 22.6272 16.768 22.8085 17.248C23.0005 17.7173 23.2885 18.1067 23.6725 18.416C24.0565 18.7147 24.5312 18.864 25.0965 18.864C25.6619 18.864 26.1312 18.7147 26.5045 18.416C26.8885 18.1067 27.1712 17.7173 27.3525 17.248C27.5445 16.768 27.6405 16.272 27.6405 15.76C27.6405 15.2373 27.5445 14.7413 27.3525 14.272C27.1712 13.8027 26.8885 13.4187 26.5045 13.12C26.1312 12.8107 25.6619 12.656 25.0965 12.656ZM31.5118 23.12C31.2664 23.12 31.0584 23.1093 30.8878 23.088C30.7171 23.0667 30.6318 23.056 30.6318 23.056V21.76C30.6318 21.76 30.7171 21.7653 30.8878 21.776C31.0691 21.7973 31.2611 21.808 31.4638 21.808C32.0931 21.808 32.6051 21.6747 32.9998 21.408C33.4051 21.152 33.7464 20.7253 34.0238 20.128L30.7438 11.52H32.3278L34.7758 18.144L37.2398 11.52H38.8398L35.5598 20.016C35.1438 21.0827 34.6051 21.8667 33.9438 22.368C33.2931 22.8693 32.4824 23.12 31.5118 23.12ZM43.4677 20.16C42.817 20.16 42.2783 20.0693 41.8517 19.888C41.4357 19.7067 41.105 19.4827 40.8597 19.216C40.6143 18.9387 40.433 18.6667 40.3157 18.4C40.1983 18.1227 40.1237 17.8933 40.0917 17.712C40.0597 17.5307 40.0437 17.44 40.0437 17.44H41.5797C41.5797 17.44 41.5957 17.5147 41.6277 17.664C41.6703 17.8027 41.7503 17.968 41.8677 18.16C41.9957 18.3413 42.1877 18.5067 42.4437 18.656C42.7103 18.7947 43.0623 18.864 43.4997 18.864C44.001 18.864 44.3903 18.7467 44.6677 18.512C44.945 18.2667 45.0837 17.968 45.0837 17.616C45.0837 17.3067 44.9717 17.0613 44.7477 16.88C44.5343 16.6987 44.225 16.56 43.8197 16.464L42.6677 16.192C42.241 16.0853 41.841 15.9413 41.4677 15.76C41.0943 15.5787 40.7903 15.3333 40.5557 15.024C40.3317 14.704 40.2197 14.3093 40.2197 13.84C40.2197 13.1147 40.4917 12.5227 41.0357 12.064C41.5797 11.5947 42.289 11.36 43.1637 11.36C43.7503 11.36 44.2357 11.4453 44.6197 11.616C45.0037 11.776 45.3077 11.9787 45.5317 12.224C45.7663 12.4693 45.937 12.7147 46.0437 12.96C46.161 13.2053 46.2357 13.4133 46.2677 13.584C46.2997 13.744 46.3157 13.824 46.3157 13.824H44.8437C44.8437 13.824 44.8277 13.7653 44.7957 13.648C44.7637 13.52 44.689 13.3813 44.5717 13.232C44.465 13.072 44.2997 12.9333 44.0757 12.816C43.8517 12.688 43.553 12.624 43.1797 12.624C42.6677 12.624 42.2943 12.7413 42.0597 12.976C41.825 13.2107 41.7077 13.4667 41.7077 13.744C41.7077 14.0107 41.8143 14.2293 42.0277 14.4C42.2517 14.56 42.5397 14.6827 42.8917 14.768L44.0597 15.04C44.785 15.2107 45.3823 15.4933 45.8517 15.888C46.3317 16.272 46.5717 16.8267 46.5717 17.552C46.5717 18.0213 46.449 18.4587 46.2037 18.864C45.9583 19.2587 45.6063 19.5733 45.1477 19.808C44.689 20.0427 44.129 20.16 43.4677 20.16Z" fill="#8C94A3"/>
<path d="M55.1749 16.125L51.5499 12.5C51.4999 12.45 51.4624 12.3959 51.4374 12.3375C51.4124 12.2792 51.3999 12.2167 51.3999 12.15C51.3999 12.0167 51.4457 11.9 51.5374 11.8C51.6291 11.7 51.7499 11.65 51.8999 11.65H59.4999C59.6499 11.65 59.7707 11.7 59.8624 11.8C59.9541 11.9 59.9999 12.0167 59.9999 12.15C59.9999 12.1834 59.9499 12.3 59.8499 12.5L56.2249 16.125C56.1416 16.2084 56.0582 16.2667 55.9749 16.3C55.8916 16.3334 55.7999 16.35 55.6999 16.35C55.5999 16.35 55.5082 16.3334 55.4249 16.3C55.3416 16.2667 55.2582 16.2084 55.1749 16.125Z" fill="#8C94A3"/>
</svg>
