<svg width="91" height="28" viewBox="0 0 91 28" fill="none" xmlns="http://www.w3.org/2000/svg">
<rect x="0.400391" width="90.6" height="28" rx="8" fill="#F0F0F0"/>
<path d="M9.68039 20V8.16H13.9044C14.8111 8.16 15.5631 8.34667 16.1604 8.72C16.7684 9.09333 17.2217 9.57867 17.5204 10.176C17.8297 10.7627 17.9844 11.376 17.9844 12.016C17.9844 12.6667 17.8297 13.2907 17.5204 13.888C17.2217 14.4747 16.7684 14.96 16.1604 15.344C15.5631 15.7173 14.8111 15.904 13.9044 15.904H11.2484V20H9.68039ZM13.9044 9.536H11.2484V14.528H13.9044C14.4697 14.528 14.9391 14.4053 15.3124 14.16C15.6857 13.9147 15.9631 13.6053 16.1444 13.232C16.3364 12.848 16.4324 12.448 16.4324 12.032C16.4324 11.616 16.3364 11.216 16.1444 10.832C15.9631 10.448 15.6857 10.1387 15.3124 9.904C14.9391 9.65867 14.4697 9.536 13.9044 9.536ZM19.8173 20V11.52H21.3373V12.576H21.4013C21.5826 12.256 21.8493 11.9733 22.2013 11.728C22.5533 11.4827 23.0493 11.36 23.6893 11.36C23.8706 11.36 24.0359 11.3707 24.1853 11.392C24.3346 11.4027 24.4093 11.408 24.4093 11.408V12.864C24.4093 12.864 24.3239 12.8587 24.1533 12.848C23.9933 12.8267 23.8226 12.816 23.6413 12.816C22.9053 12.816 22.3346 13.0293 21.9293 13.456C21.5346 13.872 21.3373 14.5547 21.3373 15.504V20H19.8173ZM27.3874 9.904C27.0994 9.904 26.8594 9.808 26.6674 9.616C26.4861 9.424 26.3954 9.19467 26.3954 8.928C26.3954 8.65067 26.4861 8.416 26.6674 8.224C26.8594 8.032 27.0994 7.936 27.3874 7.936C27.6647 7.936 27.8994 8.032 28.0914 8.224C28.2834 8.416 28.3794 8.65067 28.3794 8.928C28.3794 9.19467 28.2834 9.424 28.0914 9.616C27.8994 9.808 27.6647 9.904 27.3874 9.904ZM26.6354 20V11.52H28.1554V20H26.6354ZM30.6141 20V11.52H32.1341V12.752H32.1981C32.2835 12.592 32.4168 12.4053 32.5981 12.192C32.7795 11.968 33.0248 11.776 33.3341 11.616C33.6541 11.4453 34.0541 11.36 34.5341 11.36C35.1635 11.36 35.6915 11.5147 36.1181 11.824C36.5555 12.1227 36.8808 12.528 37.0941 13.04H37.1101C37.3448 12.5707 37.6755 12.176 38.1021 11.856C38.5395 11.5253 39.1048 11.36 39.7981 11.36C40.7155 11.36 41.4195 11.6747 41.9101 12.304C42.4115 12.9227 42.6621 13.7227 42.6621 14.704V20H41.1421V14.784C41.1421 14.1547 40.9928 13.648 40.6941 13.264C40.3955 12.8693 39.9635 12.672 39.3981 12.672C38.9075 12.672 38.5128 12.8053 38.2141 13.072C37.9261 13.3387 37.7181 13.6693 37.5901 14.064C37.4621 14.4587 37.3981 14.8533 37.3981 15.248V20H35.8781V14.784C35.8781 14.1547 35.7288 13.648 35.4301 13.264C35.1421 12.8693 34.7101 12.672 34.1341 12.672C33.6435 12.672 33.2488 12.8053 32.9501 13.072C32.6621 13.3387 32.4541 13.6747 32.3261 14.08C32.1981 14.4747 32.1341 14.864 32.1341 15.248V20H30.6141ZM48.5754 11.36C49.1087 11.36 49.5567 11.4453 49.9194 11.616C50.2821 11.7867 50.5754 11.9893 50.7994 12.224C51.0234 12.448 51.1941 12.6613 51.3114 12.864H51.4074V11.52H52.9274V20H51.4074V18.656H51.3114C51.1941 18.8587 51.0234 19.0773 50.7994 19.312C50.5754 19.5467 50.2821 19.7493 49.9194 19.92C49.5567 20.08 49.1087 20.16 48.5754 20.16C47.9354 20.16 47.3754 20.0373 46.8954 19.792C46.4154 19.536 46.0154 19.2 45.6954 18.784C45.3754 18.3573 45.1354 17.8827 44.9754 17.36C44.8154 16.8373 44.7354 16.304 44.7354 15.76C44.7354 15.216 44.8154 14.6827 44.9754 14.16C45.1354 13.6373 45.3754 13.168 45.6954 12.752C46.0154 12.3253 46.4154 11.9893 46.8954 11.744C47.3754 11.488 47.9354 11.36 48.5754 11.36ZM48.8314 12.656C48.2661 12.656 47.7914 12.8107 47.4074 13.12C47.0234 13.4187 46.7354 13.8027 46.5434 14.272C46.3621 14.7413 46.2714 15.2373 46.2714 15.76C46.2714 16.272 46.3621 16.768 46.5434 17.248C46.7354 17.7173 47.0234 18.1067 47.4074 18.416C47.7914 18.7147 48.2661 18.864 48.8314 18.864C49.3967 18.864 49.8661 18.7147 50.2394 18.416C50.6234 18.1067 50.9061 17.7173 51.0874 17.248C51.2794 16.768 51.3754 16.272 51.3754 15.76C51.3754 15.2373 51.2794 14.7413 51.0874 14.272C50.9061 13.8027 50.6234 13.4187 50.2394 13.12C49.8661 12.8107 49.3967 12.656 48.8314 12.656ZM55.161 20V11.52H56.681V12.576H56.745C56.9263 12.256 57.193 11.9733 57.545 11.728C57.897 11.4827 58.393 11.36 59.033 11.36C59.2143 11.36 59.3797 11.3707 59.529 11.392C59.6783 11.4027 59.753 11.408 59.753 11.408V12.864C59.753 12.864 59.6677 12.8587 59.497 12.848C59.337 12.8267 59.1663 12.816 58.985 12.816C58.249 12.816 57.6783 13.0293 57.273 13.456C56.8783 13.872 56.681 14.5547 56.681 15.504V20H55.161ZM61.7466 23.12C61.5013 23.12 61.2933 23.1093 61.1226 23.088C60.952 23.0667 60.8666 23.056 60.8666 23.056V21.76C60.8666 21.76 60.952 21.7653 61.1226 21.776C61.304 21.7973 61.496 21.808 61.6986 21.808C62.328 21.808 62.84 21.6747 63.2346 21.408C63.64 21.152 63.9813 20.7253 64.2586 20.128L60.9786 11.52H62.5626L65.0106 18.144L67.4746 11.52H69.0746L65.7946 20.016C65.3786 21.0827 64.84 21.8667 64.1786 22.368C63.528 22.8693 62.7173 23.12 61.7466 23.12Z" fill="#8C94A3"/>
<path d="M78.1754 16.125L74.5504 12.5C74.5004 12.45 74.4629 12.3958 74.4379 12.3375C74.4129 12.2792 74.4004 12.2167 74.4004 12.15C74.4004 12.0167 74.4462 11.9 74.5379 11.8C74.6296 11.7 74.7504 11.65 74.9004 11.65H82.5004C82.6504 11.65 82.7712 11.7 82.8629 11.8C82.9546 11.9 83.0004 12.0167 83.0004 12.15C83.0004 12.1833 82.9504 12.3 82.8504 12.5L79.2254 16.125C79.1421 16.2083 79.0587 16.2667 78.9754 16.3C78.8921 16.3333 78.8004 16.35 78.7004 16.35C78.6004 16.35 78.5087 16.3333 78.4254 16.3C78.3421 16.2667 78.2587 16.2083 78.1754 16.125Z" fill="#8C94A3"/>
</svg>
