<svg width="115" height="28" viewBox="0 0 115 28" fill="none" xmlns="http://www.w3.org/2000/svg">
<rect x="0.400391" width="114.6" height="28" rx="8" fill="#F0F0F0"/>
<path d="M13.6484 20.16C12.9657 20.16 12.3791 20.0747 11.8884 19.904C11.4084 19.7227 11.0084 19.4933 10.6884 19.216C10.3684 18.928 10.1124 18.6293 9.92039 18.32C9.72839 18.0107 9.58439 17.7173 9.48839 17.44C9.39239 17.152 9.32839 16.9227 9.29639 16.752C9.27506 16.5707 9.26439 16.48 9.26439 16.48H10.8644C10.8644 16.48 10.8804 16.5547 10.9124 16.704C10.9444 16.8533 11.0084 17.04 11.1044 17.264C11.2111 17.488 11.3657 17.7173 11.5684 17.952C11.7711 18.176 12.0431 18.3627 12.3844 18.512C12.7257 18.6613 13.1577 18.736 13.6804 18.736C14.4697 18.736 15.0937 18.5493 15.5524 18.176C16.0111 17.792 16.2404 17.296 16.2404 16.688C16.2404 16.1653 16.0644 15.76 15.7124 15.472C15.3711 15.184 14.8804 14.96 14.2404 14.8L12.6724 14.416C12.1177 14.2773 11.6004 14.0853 11.1204 13.84C10.6511 13.584 10.2724 13.2533 9.98439 12.848C9.70706 12.432 9.56839 11.9147 9.56839 11.296C9.56839 10.6027 9.73906 10.0107 10.0804 9.52C10.4217 9.02933 10.8857 8.656 11.4724 8.4C12.0591 8.13333 12.7257 8 13.4724 8C14.1977 8 14.8004 8.112 15.2804 8.336C15.7604 8.56 16.1444 8.83733 16.4324 9.168C16.7204 9.488 16.9337 9.81333 17.0724 10.144C17.2111 10.464 17.3017 10.736 17.3444 10.96C17.3871 11.184 17.4084 11.296 17.4084 11.296H15.8724C15.8724 11.296 15.8511 11.2 15.8084 11.008C15.7657 10.816 15.6644 10.5973 15.5044 10.352C15.3444 10.096 15.0991 9.872 14.7684 9.68C14.4377 9.488 13.9897 9.392 13.4244 9.392C12.6564 9.392 12.0751 9.57333 11.6804 9.936C11.2964 10.2987 11.1044 10.7147 11.1044 11.184C11.1044 11.6107 11.2591 11.9573 11.5684 12.224C11.8777 12.48 12.3044 12.6773 12.8484 12.816L14.5444 13.232C15.1524 13.3813 15.7017 13.6 16.1924 13.888C16.6831 14.1653 17.0724 14.528 17.3604 14.976C17.6484 15.4133 17.7924 15.952 17.7924 16.592C17.7924 17.232 17.6324 17.824 17.3124 18.368C17.0031 18.912 16.5391 19.3493 15.9204 19.68C15.3124 20 14.5551 20.16 13.6484 20.16ZM23.5326 20.16C22.8393 20.16 22.2366 20.0373 21.7246 19.792C21.2233 19.536 20.8073 19.1947 20.4766 18.768C20.1566 18.3413 19.9166 17.872 19.7566 17.36C19.5966 16.8373 19.5166 16.304 19.5166 15.76C19.5166 15.2267 19.5913 14.6987 19.7406 14.176C19.9006 13.6533 20.1406 13.1787 20.4606 12.752C20.7913 12.3253 21.202 11.9893 21.6926 11.744C22.194 11.488 22.786 11.36 23.4686 11.36C24.194 11.36 24.834 11.5253 25.3886 11.856C25.9433 12.1867 26.3806 12.6773 26.7006 13.328C27.0206 13.9787 27.1806 14.7947 27.1806 15.776V16.224H21.0526C21.0846 16.704 21.1966 17.1467 21.3886 17.552C21.5913 17.9467 21.874 18.2667 22.2366 18.512C22.5993 18.7467 23.0313 18.864 23.5326 18.864C23.97 18.864 24.322 18.7947 24.5886 18.656C24.866 18.5067 25.0846 18.336 25.2446 18.144C25.4046 17.952 25.5113 17.7867 25.5646 17.648C25.6286 17.4987 25.6606 17.424 25.6606 17.424H27.0846C27.0846 17.424 27.058 17.52 27.0046 17.712C26.9513 17.8933 26.8553 18.1173 26.7166 18.384C26.578 18.6507 26.3753 18.9227 26.1086 19.2C25.842 19.4667 25.5006 19.696 25.0846 19.888C24.6686 20.0693 24.1513 20.16 23.5326 20.16ZM21.0686 15.04H25.6926C25.6713 14.4853 25.554 14.0373 25.3406 13.696C25.1273 13.344 24.8553 13.0827 24.5246 12.912C24.194 12.7413 23.842 12.656 23.4686 12.656C22.7966 12.656 22.2473 12.8747 21.8206 13.312C21.394 13.7387 21.1433 14.3147 21.0686 15.04ZM33.1926 20.16C32.4993 20.16 31.8913 20.0373 31.3686 19.792C30.846 19.536 30.4086 19.2 30.0566 18.784C29.7153 18.3573 29.454 17.8827 29.2726 17.36C29.102 16.8373 29.0166 16.304 29.0166 15.76C29.0166 15.216 29.102 14.688 29.2726 14.176C29.4433 13.6533 29.6993 13.1787 30.0406 12.752C30.3926 12.3253 30.83 11.9893 31.3526 11.744C31.8753 11.488 32.4886 11.36 33.1926 11.36C33.8753 11.36 34.4406 11.4613 34.8886 11.664C35.3366 11.8667 35.694 12.1227 35.9606 12.432C36.238 12.7307 36.4406 13.0347 36.5686 13.344C36.7073 13.6427 36.798 13.8933 36.8406 14.096C36.8833 14.2987 36.9046 14.4 36.9046 14.4H35.4326C35.4326 14.4 35.406 14.3147 35.3526 14.144C35.2993 13.9627 35.198 13.76 35.0486 13.536C34.8993 13.312 34.6753 13.1147 34.3766 12.944C34.078 12.7627 33.6833 12.672 33.1926 12.672C32.606 12.672 32.11 12.8213 31.7046 13.12C31.31 13.408 31.0113 13.7867 30.8086 14.256C30.6166 14.7253 30.5206 15.2267 30.5206 15.76C30.5206 16.2933 30.6166 16.7947 30.8086 17.264C31.0113 17.7333 31.31 18.1173 31.7046 18.416C32.11 18.704 32.606 18.848 33.1926 18.848C33.6833 18.848 34.078 18.7627 34.3766 18.592C34.6753 18.4107 34.8993 18.208 35.0486 17.984C35.198 17.76 35.2993 17.5627 35.3526 17.392C35.406 17.2107 35.4326 17.12 35.4326 17.12H36.9046C36.9046 17.12 36.8833 17.2213 36.8406 17.424C36.798 17.6267 36.7073 17.8827 36.5686 18.192C36.4406 18.4907 36.238 18.7947 35.9606 19.104C35.694 19.4027 35.3366 19.6533 34.8886 19.856C34.4406 20.0587 33.8753 20.16 33.1926 20.16ZM43.0051 20.16C42.0985 20.16 41.3358 19.952 40.7171 19.536C40.0985 19.1093 39.6291 18.56 39.3091 17.888C38.9891 17.216 38.8291 16.5067 38.8291 15.76C38.8291 15.0027 38.9891 14.2933 39.3091 13.632C39.6291 12.96 40.0985 12.416 40.7171 12C41.3358 11.5733 42.0985 11.36 43.0051 11.36C43.9118 11.36 44.6745 11.5733 45.2931 12C45.9118 12.416 46.3811 12.96 46.7011 13.632C47.0211 14.2933 47.1811 15.0027 47.1811 15.76C47.1811 16.5067 47.0211 17.216 46.7011 17.888C46.3811 18.56 45.9118 19.1093 45.2931 19.536C44.6745 19.952 43.9118 20.16 43.0051 20.16ZM43.0051 18.832C43.5811 18.832 44.0611 18.688 44.4451 18.4C44.8398 18.1013 45.1331 17.7173 45.3251 17.248C45.5278 16.7787 45.6291 16.2827 45.6291 15.76C45.6291 15.2267 45.5278 14.7307 45.3251 14.272C45.1331 13.8027 44.8398 13.424 44.4451 13.136C44.0611 12.8373 43.5811 12.688 43.0051 12.688C42.4398 12.688 41.9598 12.8373 41.5651 13.136C41.1705 13.424 40.8718 13.8027 40.6691 14.272C40.4771 14.7307 40.3811 15.2267 40.3811 15.76C40.3811 16.2827 40.4771 16.7787 40.6691 17.248C40.8718 17.7173 41.1705 18.1013 41.5651 18.4C41.9598 18.688 42.4398 18.832 43.0051 18.832ZM49.2548 20V11.52H50.7748V12.752H50.8708C50.9454 12.624 51.0681 12.448 51.2388 12.224C51.4201 12 51.6761 11.8027 52.0068 11.632C52.3374 11.4507 52.7534 11.36 53.2548 11.36C53.8734 11.36 54.4014 11.504 54.8388 11.792C55.2761 12.0693 55.6068 12.448 55.8308 12.928C56.0654 13.408 56.1828 13.9467 56.1828 14.544V20H54.6628V14.64C54.6628 14.0747 54.5028 13.6053 54.1828 13.232C53.8734 12.8587 53.4201 12.672 52.8228 12.672C52.3428 12.672 51.9534 12.7947 51.6548 13.04C51.3561 13.2747 51.1321 13.5893 50.9828 13.984C50.8441 14.368 50.7748 14.7787 50.7748 15.216V20H49.2548ZM62.1066 20.16C61.4666 20.16 60.9066 20.0373 60.4266 19.792C59.9466 19.536 59.5466 19.2 59.2266 18.784C58.9066 18.3573 58.6666 17.8827 58.5066 17.36C58.3466 16.8373 58.2666 16.304 58.2666 15.76C58.2666 15.216 58.3466 14.6827 58.5066 14.16C58.6666 13.6373 58.9066 13.168 59.2266 12.752C59.5466 12.3253 59.9466 11.9893 60.4266 11.744C60.9066 11.488 61.4666 11.36 62.1066 11.36C62.64 11.36 63.088 11.4453 63.4506 11.616C63.8133 11.7867 64.1066 11.9893 64.3306 12.224C64.5546 12.448 64.7253 12.6613 64.8426 12.864H64.9386V7.84H66.4586V20H64.9386V18.656H64.8426C64.7253 18.8587 64.5546 19.0773 64.3306 19.312C64.1066 19.5467 63.8133 19.7493 63.4506 19.92C63.088 20.08 62.64 20.16 62.1066 20.16ZM62.3626 18.864C62.928 18.864 63.3973 18.7147 63.7706 18.416C64.1546 18.1067 64.4373 17.7173 64.6186 17.248C64.8106 16.768 64.9066 16.272 64.9066 15.76C64.9066 15.2373 64.8106 14.7413 64.6186 14.272C64.4373 13.8027 64.1546 13.4187 63.7706 13.12C63.3973 12.8107 62.928 12.656 62.3626 12.656C61.7973 12.656 61.3226 12.8107 60.9386 13.12C60.5546 13.4187 60.2666 13.8027 60.0746 14.272C59.8933 14.7413 59.8026 15.2373 59.8026 15.76C59.8026 16.272 59.8933 16.768 60.0746 17.248C60.2666 17.7173 60.5546 18.1067 60.9386 18.416C61.3226 18.7147 61.7973 18.864 62.3626 18.864ZM72.5441 11.36C73.0775 11.36 73.5255 11.4453 73.8881 11.616C74.2508 11.7867 74.5441 11.9893 74.7681 12.224C74.9921 12.448 75.1628 12.6613 75.2801 12.864H75.3761V11.52H76.8961V20H75.3761V18.656H75.2801C75.1628 18.8587 74.9921 19.0773 74.7681 19.312C74.5441 19.5467 74.2508 19.7493 73.8881 19.92C73.5255 20.08 73.0775 20.16 72.5441 20.16C71.9041 20.16 71.3441 20.0373 70.8641 19.792C70.3841 19.536 69.9841 19.2 69.6641 18.784C69.3441 18.3573 69.1041 17.8827 68.9441 17.36C68.7841 16.8373 68.7041 16.304 68.7041 15.76C68.7041 15.216 68.7841 14.6827 68.9441 14.16C69.1041 13.6373 69.3441 13.168 69.6641 12.752C69.9841 12.3253 70.3841 11.9893 70.8641 11.744C71.3441 11.488 71.9041 11.36 72.5441 11.36ZM72.8001 12.656C72.2348 12.656 71.7601 12.8107 71.3761 13.12C70.9921 13.4187 70.7041 13.8027 70.5121 14.272C70.3308 14.7413 70.2401 15.2373 70.2401 15.76C70.2401 16.272 70.3308 16.768 70.5121 17.248C70.7041 17.7173 70.9921 18.1067 71.3761 18.416C71.7601 18.7147 72.2348 18.864 72.8001 18.864C73.3655 18.864 73.8348 18.7147 74.2081 18.416C74.5921 18.1067 74.8748 17.7173 75.0561 17.248C75.2481 16.768 75.3441 16.272 75.3441 15.76C75.3441 15.2373 75.2481 14.7413 75.0561 14.272C74.8748 13.8027 74.5921 13.4187 74.2081 13.12C73.8348 12.8107 73.3655 12.656 72.8001 12.656ZM79.1298 20V11.52H80.6498V12.576H80.7138C80.8951 12.256 81.1618 11.9733 81.5138 11.728C81.8658 11.4827 82.3618 11.36 83.0018 11.36C83.1831 11.36 83.3484 11.3707 83.4978 11.392C83.6471 11.4027 83.7218 11.408 83.7218 11.408V12.864C83.7218 12.864 83.6364 12.8587 83.4658 12.848C83.3058 12.8267 83.1351 12.816 82.9538 12.816C82.2178 12.816 81.6471 13.0293 81.2418 13.456C80.8471 13.872 80.6498 14.5547 80.6498 15.504V20H79.1298ZM85.7154 23.12C85.4701 23.12 85.2621 23.1093 85.0914 23.088C84.9207 23.0667 84.8354 23.056 84.8354 23.056V21.76C84.8354 21.76 84.9207 21.7653 85.0914 21.776C85.2727 21.7973 85.4647 21.808 85.6674 21.808C86.2967 21.808 86.8087 21.6747 87.2034 21.408C87.6087 21.152 87.9501 20.7253 88.2274 20.128L84.9474 11.52H86.5314L88.9794 18.144L91.4434 11.52H93.0434L89.7634 20.016C89.3474 21.0827 88.8087 21.8667 88.1474 22.368C87.4967 22.8693 86.6861 23.12 85.7154 23.12Z" fill="#8C94A3"/>
<path d="M102.175 16.125L98.5504 12.5C98.5004 12.45 98.4629 12.3958 98.4379 12.3375C98.4129 12.2792 98.4004 12.2167 98.4004 12.15C98.4004 12.0167 98.4462 11.9 98.5379 11.8C98.6296 11.7 98.7504 11.65 98.9004 11.65H106.5C106.65 11.65 106.771 11.7 106.863 11.8C106.955 11.9 107 12.0167 107 12.15C107 12.1833 106.95 12.3 106.85 12.5L103.225 16.125C103.142 16.2083 103.059 16.2667 102.975 16.3C102.892 16.3333 102.8 16.35 102.7 16.35C102.6 16.35 102.509 16.3333 102.425 16.3C102.342 16.2667 102.259 16.2083 102.175 16.125Z" fill="#8C94A3"/>
</svg>
