<svg width="79" height="28" viewBox="0 0 79 28" fill="none" xmlns="http://www.w3.org/2000/svg">
<rect x="0.399902" width="78.6" height="28" rx="8" fill="#F0F0F0"/>
<path d="M13.6479 20.16C12.9652 20.16 12.3786 20.0747 11.8879 19.904C11.4079 19.7227 11.0079 19.4933 10.6879 19.216C10.3679 18.928 10.1119 18.6293 9.9199 18.32C9.7279 18.0107 9.5839 17.7173 9.4879 17.44C9.3919 17.152 9.3279 16.9227 9.2959 16.752C9.27457 16.5707 9.2639 16.48 9.2639 16.48H10.8639C10.8639 16.48 10.8799 16.5547 10.9119 16.704C10.9439 16.8533 11.0079 17.04 11.1039 17.264C11.2106 17.488 11.3652 17.7173 11.5679 17.952C11.7706 18.176 12.0426 18.3627 12.3839 18.512C12.7252 18.6613 13.1572 18.736 13.6799 18.736C14.4692 18.736 15.0932 18.5493 15.5519 18.176C16.0106 17.792 16.2399 17.296 16.2399 16.688C16.2399 16.1653 16.0639 15.76 15.7119 15.472C15.3706 15.184 14.8799 14.96 14.2399 14.8L12.6719 14.416C12.1172 14.2773 11.5999 14.0853 11.1199 13.84C10.6506 13.584 10.2719 13.2533 9.9839 12.848C9.70657 12.432 9.5679 11.9147 9.5679 11.296C9.5679 10.6027 9.73857 10.0107 10.0799 9.52C10.4212 9.02933 10.8852 8.656 11.4719 8.4C12.0586 8.13333 12.7252 8 13.4719 8C14.1972 8 14.7999 8.112 15.2799 8.336C15.7599 8.56 16.1439 8.83733 16.4319 9.168C16.7199 9.488 16.9332 9.81333 17.0719 10.144C17.2106 10.464 17.3012 10.736 17.3439 10.96C17.3866 11.184 17.4079 11.296 17.4079 11.296H15.8719C15.8719 11.296 15.8506 11.2 15.8079 11.008C15.7652 10.816 15.6639 10.5973 15.5039 10.352C15.3439 10.096 15.0986 9.872 14.7679 9.68C14.4372 9.488 13.9892 9.392 13.4239 9.392C12.6559 9.392 12.0746 9.57333 11.6799 9.936C11.2959 10.2987 11.1039 10.7147 11.1039 11.184C11.1039 11.6107 11.2586 11.9573 11.5679 12.224C11.8772 12.48 12.3039 12.6773 12.8479 12.816L14.5439 13.232C15.1519 13.3813 15.7012 13.6 16.1919 13.888C16.6826 14.1653 17.0719 14.528 17.3599 14.976C17.6479 15.4133 17.7919 15.952 17.7919 16.592C17.7919 17.232 17.6319 17.824 17.3119 18.368C17.0026 18.912 16.5386 19.3493 15.9199 19.68C15.3119 20 14.5546 20.16 13.6479 20.16ZM23.5322 20.16C22.8388 20.16 22.2362 20.0373 21.7242 19.792C21.2228 19.536 20.8068 19.1947 20.4762 18.768C20.1562 18.3413 19.9162 17.872 19.7562 17.36C19.5962 16.8373 19.5162 16.304 19.5162 15.76C19.5162 15.2267 19.5908 14.6987 19.7402 14.176C19.9002 13.6533 20.1402 13.1787 20.4602 12.752C20.7908 12.3253 21.2015 11.9893 21.6922 11.744C22.1935 11.488 22.7855 11.36 23.4682 11.36C24.1935 11.36 24.8335 11.5253 25.3882 11.856C25.9428 12.1867 26.3802 12.6773 26.7002 13.328C27.0202 13.9787 27.1802 14.7947 27.1802 15.776V16.224H21.0522C21.0842 16.704 21.1962 17.1467 21.3882 17.552C21.5908 17.9467 21.8735 18.2667 22.2362 18.512C22.5988 18.7467 23.0308 18.864 23.5322 18.864C23.9695 18.864 24.3215 18.7947 24.5882 18.656C24.8655 18.5067 25.0842 18.336 25.2442 18.144C25.4042 17.952 25.5108 17.7867 25.5642 17.648C25.6282 17.4987 25.6602 17.424 25.6602 17.424H27.0842C27.0842 17.424 27.0575 17.52 27.0042 17.712C26.9508 17.8933 26.8548 18.1173 26.7162 18.384C26.5775 18.6507 26.3748 18.9227 26.1082 19.2C25.8415 19.4667 25.5002 19.696 25.0842 19.888C24.6682 20.0693 24.1508 20.16 23.5322 20.16ZM21.0682 15.04H25.6922C25.6708 14.4853 25.5535 14.0373 25.3402 13.696C25.1268 13.344 24.8548 13.0827 24.5242 12.912C24.1935 12.7413 23.8415 12.656 23.4682 12.656C22.7962 12.656 22.2468 12.8747 21.8202 13.312C21.3935 13.7387 21.1428 14.3147 21.0682 15.04ZM29.4143 20L29.4303 7.84H30.9343V20H29.4143ZM37.1884 20.16C36.4951 20.16 35.8924 20.0373 35.3804 19.792C34.8791 19.536 34.4631 19.1947 34.1324 18.768C33.8124 18.3413 33.5724 17.872 33.4124 17.36C33.2524 16.8373 33.1724 16.304 33.1724 15.76C33.1724 15.2267 33.2471 14.6987 33.3964 14.176C33.5564 13.6533 33.7964 13.1787 34.1164 12.752C34.4471 12.3253 34.8577 11.9893 35.3484 11.744C35.8497 11.488 36.4417 11.36 37.1244 11.36C37.8497 11.36 38.4897 11.5253 39.0444 11.856C39.5991 12.1867 40.0364 12.6773 40.3564 13.328C40.6764 13.9787 40.8364 14.7947 40.8364 15.776V16.224H34.7084C34.7404 16.704 34.8524 17.1467 35.0444 17.552C35.2471 17.9467 35.5297 18.2667 35.8924 18.512C36.2551 18.7467 36.6871 18.864 37.1884 18.864C37.6257 18.864 37.9777 18.7947 38.2444 18.656C38.5217 18.5067 38.7404 18.336 38.9004 18.144C39.0604 17.952 39.1671 17.7867 39.2204 17.648C39.2844 17.4987 39.3164 17.424 39.3164 17.424H40.7404C40.7404 17.424 40.7137 17.52 40.6604 17.712C40.6071 17.8933 40.5111 18.1173 40.3724 18.384C40.2337 18.6507 40.0311 18.9227 39.7644 19.2C39.4977 19.4667 39.1564 19.696 38.7404 19.888C38.3244 20.0693 37.8071 20.16 37.1884 20.16ZM34.7244 15.04H39.3484C39.3271 14.4853 39.2097 14.0373 38.9964 13.696C38.7831 13.344 38.5111 13.0827 38.1804 12.912C37.8497 12.7413 37.4977 12.656 37.1244 12.656C36.4524 12.656 35.9031 12.8747 35.4764 13.312C35.0497 13.7387 34.7991 14.3147 34.7244 15.04ZM46.8484 20.16C46.1551 20.16 45.5471 20.0373 45.0244 19.792C44.5017 19.536 44.0644 19.2 43.7124 18.784C43.3711 18.3573 43.1097 17.8827 42.9284 17.36C42.7577 16.8373 42.6724 16.304 42.6724 15.76C42.6724 15.216 42.7577 14.688 42.9284 14.176C43.0991 13.6533 43.3551 13.1787 43.6964 12.752C44.0484 12.3253 44.4857 11.9893 45.0084 11.744C45.5311 11.488 46.1444 11.36 46.8484 11.36C47.5311 11.36 48.0964 11.4613 48.5444 11.664C48.9924 11.8667 49.3497 12.1227 49.6164 12.432C49.8937 12.7307 50.0964 13.0347 50.2244 13.344C50.3631 13.6427 50.4537 13.8933 50.4964 14.096C50.5391 14.2987 50.5604 14.4 50.5604 14.4H49.0884C49.0884 14.4 49.0617 14.3147 49.0084 14.144C48.9551 13.9627 48.8537 13.76 48.7044 13.536C48.5551 13.312 48.3311 13.1147 48.0324 12.944C47.7337 12.7627 47.3391 12.672 46.8484 12.672C46.2617 12.672 45.7657 12.8213 45.3604 13.12C44.9657 13.408 44.6671 13.7867 44.4644 14.256C44.2724 14.7253 44.1764 15.2267 44.1764 15.76C44.1764 16.2933 44.2724 16.7947 44.4644 17.264C44.6671 17.7333 44.9657 18.1173 45.3604 18.416C45.7657 18.704 46.2617 18.848 46.8484 18.848C47.3391 18.848 47.7337 18.7627 48.0324 18.592C48.3311 18.4107 48.5551 18.208 48.7044 17.984C48.8537 17.76 48.9551 17.5627 49.0084 17.392C49.0617 17.2107 49.0884 17.12 49.0884 17.12H50.5604C50.5604 17.12 50.5391 17.2213 50.4964 17.424C50.4537 17.6267 50.3631 17.8827 50.2244 18.192C50.0964 18.4907 49.8937 18.7947 49.6164 19.104C49.3497 19.4027 48.9924 19.6533 48.5444 19.856C48.0964 20.0587 47.5311 20.16 46.8484 20.16ZM56.2449 20.16C55.3702 20.16 54.7089 19.936 54.2609 19.488C53.8236 19.04 53.6049 18.4107 53.6049 17.6V12.768H52.0849V11.52H53.6049V9.392H55.1249V11.52H57.1889V12.768H55.1249V17.6C55.1249 18.0267 55.2422 18.3413 55.4769 18.544C55.7116 18.736 56.0529 18.832 56.5009 18.832C56.7356 18.832 56.9596 18.816 57.1729 18.784C57.3862 18.752 57.4929 18.736 57.4929 18.736V20.032C57.4929 20.032 57.3702 20.0533 57.1249 20.096C56.8796 20.1387 56.5862 20.16 56.2449 20.16Z" fill="#8C94A3"/>
<path d="M66.1749 16.125L62.5499 12.5C62.4999 12.45 62.4624 12.3959 62.4374 12.3375C62.4124 12.2792 62.3999 12.2167 62.3999 12.15C62.3999 12.0167 62.4457 11.9 62.5374 11.8C62.6291 11.7 62.7499 11.65 62.8999 11.65H70.4999C70.6499 11.65 70.7707 11.7 70.8624 11.8C70.9541 11.9 70.9999 12.0167 70.9999 12.15C70.9999 12.1834 70.9499 12.3 70.8499 12.5L67.2249 16.125C67.1416 16.2084 67.0582 16.2667 66.9749 16.3C66.8916 16.3334 66.7999 16.35 66.6999 16.35C66.5999 16.35 66.5082 16.3334 66.4249 16.3C66.3416 16.2667 66.2582 16.2084 66.1749 16.125Z" fill="#8C94A3"/>
</svg>
