<svg width="63" height="28" viewBox="0 0 63 28" fill="none" xmlns="http://www.w3.org/2000/svg">
<rect x="0.399902" width="62.6" height="28" rx="8" fill="#F0F0F0"/>
<path d="M14.1919 20.16C13.2639 20.16 12.4639 19.984 11.7919 19.632C11.1199 19.2693 10.5972 18.7627 10.2239 18.112C9.86124 17.4507 9.6799 16.672 9.6799 15.776V8.16H11.2479V15.776C11.2479 16.5973 11.4879 17.2853 11.9679 17.84C12.4586 18.3947 13.1999 18.672 14.1919 18.672C15.1946 18.672 15.9359 18.3947 16.4159 17.84C16.9066 17.2853 17.1519 16.5973 17.1519 15.776V8.16H18.7199V15.776C18.7199 16.672 18.5332 17.4507 18.1599 18.112C17.7972 18.7627 17.2799 19.2693 16.6079 19.632C15.9359 19.984 15.1306 20.16 14.1919 20.16ZM25.2417 20.16C24.559 20.16 23.9723 20.0747 23.4817 19.904C23.0017 19.7227 22.6017 19.4933 22.2817 19.216C21.9617 18.928 21.7057 18.6293 21.5137 18.32C21.3217 18.0107 21.1777 17.7173 21.0817 17.44C20.9857 17.152 20.9217 16.9227 20.8897 16.752C20.8683 16.5707 20.8577 16.48 20.8577 16.48H22.4577C22.4577 16.48 22.4737 16.5547 22.5057 16.704C22.5377 16.8533 22.6017 17.04 22.6977 17.264C22.8043 17.488 22.959 17.7173 23.1617 17.952C23.3643 18.176 23.6363 18.3627 23.9777 18.512C24.319 18.6613 24.751 18.736 25.2737 18.736C26.063 18.736 26.687 18.5493 27.1457 18.176C27.6043 17.792 27.8337 17.296 27.8337 16.688C27.8337 16.1653 27.6577 15.76 27.3057 15.472C26.9643 15.184 26.4737 14.96 25.8337 14.8L24.2657 14.416C23.711 14.2773 23.1937 14.0853 22.7137 13.84C22.2443 13.584 21.8657 13.2533 21.5777 12.848C21.3003 12.432 21.1617 11.9147 21.1617 11.296C21.1617 10.6027 21.3323 10.0107 21.6737 9.52C22.015 9.02933 22.479 8.656 23.0657 8.4C23.6523 8.13333 24.319 8 25.0657 8C25.791 8 26.3937 8.112 26.8737 8.336C27.3537 8.56 27.7377 8.83733 28.0257 9.168C28.3137 9.488 28.527 9.81333 28.6657 10.144C28.8043 10.464 28.895 10.736 28.9377 10.96C28.9803 11.184 29.0017 11.296 29.0017 11.296H27.4657C27.4657 11.296 27.4443 11.2 27.4017 11.008C27.359 10.816 27.2577 10.5973 27.0977 10.352C26.9377 10.096 26.6923 9.872 26.3617 9.68C26.031 9.488 25.583 9.392 25.0177 9.392C24.2497 9.392 23.6683 9.57333 23.2737 9.936C22.8897 10.2987 22.6977 10.7147 22.6977 11.184C22.6977 11.6107 22.8523 11.9573 23.1617 12.224C23.471 12.48 23.8977 12.6773 24.4417 12.816L26.1377 13.232C26.7457 13.3813 27.295 13.6 27.7857 13.888C28.2763 14.1653 28.6657 14.528 28.9537 14.976C29.2417 15.4133 29.3857 15.952 29.3857 16.592C29.3857 17.232 29.2257 17.824 28.9057 18.368C28.5963 18.912 28.1323 19.3493 27.5137 19.68C26.9057 20 26.1483 20.16 25.2417 20.16ZM31.4299 20V8.16H35.2699C36.2192 8.16 37.0459 8.33067 37.7499 8.672C38.4539 9.00267 39.0406 9.45067 39.5099 10.016C39.9792 10.5813 40.3312 11.216 40.5659 11.92C40.8006 12.624 40.9179 13.344 40.9179 14.08C40.9179 14.816 40.8006 15.536 40.5659 16.24C40.3312 16.944 39.9792 17.5787 39.5099 18.144C39.0406 18.7093 38.4539 19.1627 37.7499 19.504C37.0459 19.8347 36.2192 20 35.2699 20H31.4299ZM35.2059 9.536H32.9979V18.624H35.2059C35.8992 18.624 36.5019 18.496 37.0139 18.24C37.5366 17.984 37.9686 17.6427 38.3099 17.216C38.6619 16.7787 38.9232 16.288 39.0939 15.744C39.2646 15.2 39.3499 14.6453 39.3499 14.08C39.3499 13.5147 39.2646 12.96 39.0939 12.416C38.9232 11.872 38.6619 11.3867 38.3099 10.96C37.9686 10.5227 37.5366 10.176 37.0139 9.92C36.5019 9.664 35.8992 9.536 35.2059 9.536Z" fill="#8C94A3"/>
<path d="M50.1749 16.125L46.5499 12.5C46.4999 12.45 46.4624 12.3959 46.4374 12.3375C46.4124 12.2792 46.3999 12.2167 46.3999 12.15C46.3999 12.0167 46.4457 11.9 46.5374 11.8C46.6291 11.7 46.7499 11.65 46.8999 11.65H54.4999C54.6499 11.65 54.7707 11.7 54.8624 11.8C54.9541 11.9 54.9999 12.0167 54.9999 12.15C54.9999 12.1834 54.9499 12.3 54.8499 12.5L51.2249 16.125C51.1416 16.2084 51.0582 16.2667 50.9749 16.3C50.8916 16.3334 50.7999 16.35 50.6999 16.35C50.5999 16.35 50.5082 16.3334 50.4249 16.3C50.3416 16.2667 50.2582 16.2084 50.1749 16.125Z" fill="#8C94A3"/>
</svg>
