<svg width="46" height="46" viewBox="0 0 46 46" fill="none" xmlns="http://www.w3.org/2000/svg">
<path d="M15.2891 21.3194C14.3613 21.3226 13.4498 21.5645 12.6426 22.0218C13.7791 19.0799 15.6642 16.4858 18.1112 14.4961C18.2512 14.3808 18.3672 14.2391 18.4524 14.079C18.5376 13.9189 18.5905 13.7435 18.608 13.563C18.6254 13.3825 18.6072 13.2003 18.5542 13.0268C18.5013 12.8533 18.4147 12.692 18.2994 12.552C18.1841 12.412 18.0423 12.296 17.8822 12.2108C17.7221 12.1256 17.5468 12.0727 17.3663 12.0553C17.1857 12.0378 17.0035 12.056 16.8301 12.109C16.6566 12.1619 16.4952 12.2485 16.3552 12.3638C11.3381 16.4403 9.10547 22.0845 9.10547 25.584C9.11411 26.8213 9.48285 28.0294 10.1666 29.0607C10.8504 30.0919 11.8197 30.9018 12.9561 31.3913C13.6916 31.7476 14.497 31.9361 15.3142 31.9432C16.0335 31.9782 16.7524 31.8667 17.4273 31.6155C18.1022 31.3644 18.719 30.9787 19.2405 30.482C19.7619 29.9853 20.177 29.3879 20.4607 28.726C20.7443 28.0641 20.8906 27.3515 20.8906 26.6313C20.8906 25.9112 20.7443 25.1986 20.4607 24.5366C20.177 23.8747 19.7619 23.2773 19.2405 22.7806C18.719 22.2839 18.1022 21.8983 17.4273 21.6471C16.7524 21.3959 16.0335 21.2845 15.3142 21.3194H15.2891Z" fill="#40A8CD"/>
<path d="M29.2637 21.3184C28.3357 21.3204 27.424 21.5623 26.6172 22.0208C27.7533 19.0819 29.6334 16.4887 32.0733 14.4951C32.226 14.385 32.3546 14.2448 32.4511 14.0832C32.5476 13.9216 32.6101 13.7419 32.6345 13.5552C32.659 13.3686 32.645 13.1789 32.5935 12.9978C32.5419 12.8168 32.4538 12.6482 32.3347 12.5025C32.2155 12.3567 32.0678 12.2369 31.9006 12.1504C31.7334 12.0639 31.5502 12.0125 31.3624 11.9994C31.1746 11.9863 30.9861 12.0118 30.8086 12.0743C30.631 12.1368 30.4681 12.235 30.3299 12.3628C25.3127 16.4392 23.0801 22.0835 23.0801 25.5829C23.086 26.8063 23.444 28.002 24.1113 29.0274C24.7785 30.0527 25.7268 30.8643 26.8429 31.3652C27.597 31.7319 28.4252 31.9207 29.2637 31.9171C29.983 31.9521 30.7019 31.8406 31.3768 31.5894C32.0517 31.3382 32.6686 30.9526 33.19 30.4559C33.7114 29.9592 34.1265 29.3618 34.4102 28.6999C34.6938 28.038 34.8401 27.3253 34.8401 26.6052C34.8401 25.8851 34.6938 25.1724 34.4102 24.5105C34.1265 23.8486 33.7114 23.2512 33.19 22.7545C32.6686 22.2578 32.0517 21.8722 31.3768 21.621C30.7019 21.3698 29.983 21.2583 29.2637 21.2933V21.3184Z" fill="#40A8CD"/>
</svg>
