<svg width="29" height="29" viewBox="0 0 29 29" fill="none" xmlns="http://www.w3.org/2000/svg">
<path d="M9.95857 13.4818C9.39156 13.4837 8.83458 13.6315 8.34124 13.911C9.03581 12.1132 10.1878 10.5279 11.6832 9.31197C11.7688 9.24151 11.8396 9.15488 11.8917 9.05704C11.9438 8.9592 11.9761 8.85206 11.9868 8.74174C11.9974 8.63141 11.9863 8.52007 11.9539 8.41405C11.9216 8.30804 11.8687 8.20944 11.7982 8.12388C11.7277 8.03832 11.6411 7.96748 11.5433 7.91539C11.4454 7.86331 11.3383 7.83101 11.228 7.82033C11.1176 7.80965 11.0063 7.82081 10.9003 7.85317C10.7943 7.88552 10.6957 7.93844 10.6101 8.0089C7.54407 10.5001 6.17969 13.9493 6.17969 16.0879C6.18497 16.8441 6.41031 17.5823 6.82818 18.2125C7.24606 18.8427 7.8384 19.3377 8.53287 19.6368C8.98232 19.8546 9.47451 19.9698 9.9739 19.9741C10.4135 19.9955 10.8528 19.9273 11.2652 19.7738C11.6777 19.6203 12.0547 19.3847 12.3733 19.0812C12.6919 18.7776 12.9456 18.4125 13.119 18.008C13.2923 17.6035 13.3817 17.168 13.3817 16.7279C13.3817 16.2879 13.2923 15.8524 13.119 15.4478C12.9456 15.0433 12.6919 14.6783 12.3733 14.3747C12.0547 14.0712 11.6777 13.8355 11.2652 13.682C10.8528 13.5285 10.4135 13.4604 9.9739 13.4818H9.95857Z" fill="#A3D154"/>
<path d="M18.4976 13.4821C17.9305 13.4833 17.3734 13.6312 16.8803 13.9114C17.5746 12.1154 18.7236 10.5306 20.2146 9.3123C20.3079 9.24503 20.3865 9.15938 20.4455 9.0606C20.5045 8.96183 20.5426 8.85203 20.5576 8.73796C20.5725 8.6239 20.564 8.50797 20.5325 8.39733C20.501 8.28669 20.4471 8.18367 20.3743 8.0946C20.3015 8.00554 20.2112 7.93232 20.109 7.87946C20.0069 7.82659 19.895 7.79519 19.7802 7.7872C19.6654 7.7792 19.5502 7.79477 19.4417 7.83296C19.3332 7.87115 19.2336 7.93114 19.1492 8.00924C16.0831 10.5004 14.7188 13.9497 14.7188 16.0882C14.7224 16.8358 14.9411 17.5666 15.3489 18.1932C15.7567 18.8198 16.3362 19.3157 17.0183 19.6218C17.4791 19.8459 17.9852 19.9613 18.4976 19.9591C18.9372 19.9805 19.3765 19.9123 19.789 19.7588C20.2014 19.6054 20.5784 19.3697 20.897 19.0662C21.2157 18.7626 21.4694 18.3975 21.6427 17.993C21.816 17.5885 21.9054 17.153 21.9054 16.7129C21.9054 16.2729 21.816 15.8374 21.6427 15.4329C21.4694 15.0283 21.2157 14.6633 20.897 14.3597C20.5784 14.0562 20.2014 13.8205 19.789 13.667C19.3765 13.5135 18.9372 13.4454 18.4976 13.4668V13.4821Z" fill="#A3D154"/>
</svg>
