<svg width="16" height="17" viewBox="0 0 16 17" fill="none" xmlns="http://www.w3.org/2000/svg">
<path d="M6.003 2.40611C6.55 2.32811 7 2.78411 7 3.33611V9.33611H13C13.552 9.33611 14.008 9.78611 13.93 10.3331C13.6738 12.0818 12.7657 13.6689 11.388 14.776C10.0104 15.8831 8.26498 16.4283 6.50211 16.3021C4.73923 16.1759 3.08928 15.3878 1.88331 14.0958C0.677344 12.8038 0.00457707 11.1035 1.33103e-07 9.33611C-0.000328106 7.65209 0.606445 6.0244 1.70904 4.75154C2.81164 3.47867 4.33615 2.64596 6.003 2.40611ZM15.062 8.33611C15.56 8.33611 15.989 7.97011 15.999 7.47211L16 7.33611C16 6.40538 15.8145 5.48399 15.4542 4.62584C15.0938 3.76769 14.566 2.99001 13.9015 2.3383C13.2371 1.68659 12.4493 1.17393 11.5843 0.83031C10.7194 0.486695 9.79455 0.319024 8.864 0.337106C8.366 0.347106 8 0.777106 8 1.27411V7.33611C8 7.60132 8.10536 7.85568 8.29289 8.04321C8.48043 8.23075 8.73478 8.33611 9 8.33611H15.062Z" fill="#A3AFB0"/>
</svg>
