<svg width="16" height="16" viewBox="0 0 16 16" fill="none" xmlns="http://www.w3.org/2000/svg">
<path d="M11.2856 1.5738C11.512 1.34015 11.7827 1.15387 12.0818 1.02582C12.3809 0.897777 12.7025 0.830515 13.0278 0.827957C13.3532 0.825398 13.6758 0.887593 13.9769 1.01092C14.278 1.13425 14.5515 1.31624 14.7816 1.54631C15.0116 1.77637 15.1936 2.04991 15.317 2.35099C15.4403 2.65208 15.5025 2.97469 15.4999 3.30004C15.4974 3.62539 15.4301 3.94698 15.3021 4.24608C15.174 4.54519 14.9877 4.81583 14.7541 5.04225L13.7934 6.00294L10.3249 2.53449L11.2856 1.5738ZM9.66369 3.19574L2.06118 10.7983C1.7867 11.0727 1.58707 11.4133 1.48227 11.7876L0.51722 15.2343C0.494923 15.3141 0.494268 15.3985 0.515321 15.4788C0.536375 15.559 0.578381 15.6322 0.637035 15.6908C0.695689 15.7495 0.768882 15.7915 0.849115 15.8126C0.929347 15.8336 1.01374 15.833 1.09363 15.8107L4.53962 14.8456C4.91417 14.7416 5.25529 14.5421 5.52963 14.2667L13.1328 6.66481L9.66369 3.19574Z" fill="#A3AFB0"/>
</svg>
