<svg width="18" height="19" viewBox="0 0 18 19" fill="none" xmlns="http://www.w3.org/2000/svg">
<path d="M1 10.3279H7C7.26522 10.3279 7.51957 10.2225 7.70711 10.035C7.89464 9.84745 8 9.5931 8 9.32788V1.32788C8 1.06266 7.89464 0.80831 7.70711 0.620774C7.51957 0.433238 7.26522 0.327881 7 0.327881H1C0.734784 0.327881 0.48043 0.433238 0.292893 0.620774C0.105357 0.80831 0 1.06266 0 1.32788V9.32788C0 9.5931 0.105357 9.84745 0.292893 10.035C0.48043 10.2225 0.734784 10.3279 1 10.3279ZM0 17.3279C0 17.5931 0.105357 17.8475 0.292893 18.035C0.48043 18.2225 0.734784 18.3279 1 18.3279H7C7.26522 18.3279 7.51957 18.2225 7.70711 18.035C7.89464 17.8475 8 17.5931 8 17.3279V13.3279C8 13.0627 7.89464 12.8083 7.70711 12.6208C7.51957 12.4332 7.26522 12.3279 7 12.3279H1C0.734784 12.3279 0.48043 12.4332 0.292893 12.6208C0.105357 12.8083 0 13.0627 0 13.3279V17.3279ZM10 17.3279C10 17.5931 10.1054 17.8475 10.2929 18.035C10.4804 18.2225 10.7348 18.3279 11 18.3279H17C17.2652 18.3279 17.5196 18.2225 17.7071 18.035C17.8946 17.8475 18 17.5931 18 17.3279V10.3279C18 10.0627 17.8946 9.80831 17.7071 9.62077C17.5196 9.43324 17.2652 9.32788 17 9.32788H11C10.7348 9.32788 10.4804 9.43324 10.2929 9.62077C10.1054 9.80831 10 10.0627 10 10.3279V17.3279ZM11 7.32788H17C17.2652 7.32788 17.5196 7.22252 17.7071 7.03499C17.8946 6.84745 18 6.5931 18 6.32788V1.32788C18 1.06266 17.8946 0.80831 17.7071 0.620774C17.5196 0.433238 17.2652 0.327881 17 0.327881H11C10.7348 0.327881 10.4804 0.433238 10.2929 0.620774C10.1054 0.80831 10 1.06266 10 1.32788V6.32788C10 6.5931 10.1054 6.84745 10.2929 7.03499C10.4804 7.22252 10.7348 7.32788 11 7.32788Z" fill="#A3AFB0"/>
</svg>
