<svg width="16" height="17" viewBox="0 0 16 17" fill="none" xmlns="http://www.w3.org/2000/svg">
<path d="M14.6667 0.327881H1.33333C0.979711 0.327881 0.640573 0.468357 0.390524 0.718405C0.140476 0.968454 0 1.30759 0 1.66121V14.9945C0 15.3482 0.140476 15.6873 0.390524 15.9374C0.640573 16.1874 0.979711 16.3279 1.33333 16.3279H14.6667C15.0203 16.3279 15.3594 16.1874 15.6095 15.9374C15.8595 15.6873 16 15.3482 16 14.9945V1.66121C16 1.30759 15.8595 0.968454 15.6095 0.718405C15.3594 0.468357 15.0203 0.327881 14.6667 0.327881ZM12.6667 8.99455H8.66667V12.9945C8.66667 13.1714 8.59643 13.3409 8.47141 13.466C8.34638 13.591 8.17681 13.6612 8 13.6612C7.82319 13.6612 7.65362 13.591 7.5286 13.466C7.40357 13.3409 7.33333 13.1714 7.33333 12.9945V8.99455H3.33333C3.15652 8.99455 2.98695 8.92431 2.86193 8.79929C2.7369 8.67426 2.66667 8.50469 2.66667 8.32788C2.66667 8.15107 2.7369 7.9815 2.86193 7.85648C2.98695 7.73145 3.15652 7.66121 3.33333 7.66121H7.33333V3.66121C7.33333 3.4844 7.40357 3.31483 7.5286 3.18981C7.65362 3.06479 7.82319 2.99455 8 2.99455C8.17681 2.99455 8.34638 3.06479 8.47141 3.18981C8.59643 3.31483 8.66667 3.4844 8.66667 3.66121V7.66121H12.6667C12.8435 7.66121 13.013 7.73145 13.1381 7.85648C13.2631 7.9815 13.3333 8.15107 13.3333 8.32788C13.3333 8.50469 13.2631 8.67426 13.1381 8.79929C13.013 8.92431 12.8435 8.99455 12.6667 8.99455Z" fill="#A3AFB0"/>
</svg>
