<svg width="16" height="17" viewBox="0 0 16 17" fill="none" xmlns="http://www.w3.org/2000/svg">
<path d="M13.6 0.327881H2.4C1.04 0.327881 0 1.36788 0 2.72788V13.9279C0 15.2879 1.04 16.3279 2.4 16.3279H13.6C14.96 16.3279 16 15.2879 16 13.9279V2.72788C16 1.36788 14.96 0.327881 13.6 0.327881ZM4.8 12.3279C4.8 12.8079 4.48 13.1279 4 13.1279C3.52 13.1279 3.2 12.8079 3.2 12.3279V9.12788C3.2 8.64788 3.52 8.32788 4 8.32788C4.48 8.32788 4.8 8.64788 4.8 9.12788V12.3279ZM8.8 12.3279C8.8 12.8079 8.48 13.1279 8 13.1279C7.52 13.1279 7.2 12.8079 7.2 12.3279V4.32788C7.2 3.84788 7.52 3.52788 8 3.52788C8.48 3.52788 8.8 3.84788 8.8 4.32788V12.3279ZM12.8 12.3279C12.8 12.8079 12.48 13.1279 12 13.1279C11.52 13.1279 11.2 12.8079 11.2 12.3279V7.52788C11.2 7.04788 11.52 6.72788 12 6.72788C12.48 6.72788 12.8 7.04788 12.8 7.52788V12.3279Z" fill="#A3AFB0"/>
</svg>
