<svg width="16" height="17" viewBox="0 0 16 17" fill="none" xmlns="http://www.w3.org/2000/svg">
<path fill-rule="evenodd" clip-rule="evenodd" d="M16 8.32788C16 9.37846 15.7931 10.4187 15.391 11.3893C14.989 12.36 14.3997 13.2419 13.6569 13.9847C12.914 14.7276 12.0321 15.3169 11.0615 15.7189C10.0909 16.121 9.05058 16.3279 8 16.3279C6.94943 16.3279 5.90914 16.121 4.93853 15.7189C3.96793 15.3169 3.08601 14.7276 2.34315 13.9847C1.60028 13.2419 1.011 12.36 0.608964 11.3893C0.206926 10.4187 -1.56548e-08 9.37846 0 8.32788C3.16163e-08 6.20615 0.842855 4.17132 2.34315 2.67103C3.84344 1.17074 5.87827 0.327881 8 0.327881C10.1217 0.327881 12.1566 1.17074 13.6569 2.67103C15.1571 4.17132 16 6.20615 16 8.32788ZM8.44444 8.14388V3.85677C8.44444 3.7389 8.39762 3.62585 8.31427 3.5425C8.23092 3.45915 8.11787 3.41232 8 3.41232C7.88213 3.41232 7.76908 3.45915 7.68573 3.5425C7.60238 3.62585 7.55556 3.7389 7.55556 3.85677V8.31455C7.55355 8.3752 7.56404 8.43561 7.58636 8.49203C7.60869 8.54846 7.64238 8.59969 7.68533 8.64255L10.2 11.1563C10.241 11.1988 10.29 11.2326 10.3443 11.2559C10.3985 11.2792 10.4568 11.2915 10.5158 11.292C10.5748 11.2925 10.6334 11.2813 10.688 11.2589C10.7426 11.2366 10.7922 11.2036 10.834 11.1618C10.8757 11.1201 10.9087 11.0705 10.931 11.0159C10.9534 10.9612 10.9646 10.9027 10.9641 10.8437C10.9636 10.7847 10.9513 10.7264 10.928 10.6721C10.9048 10.6179 10.8709 10.5689 10.8284 10.5279L8.44444 8.14388Z" fill="#A3AFB0"/>
</svg>
