<svg width="20" height="21" viewBox="0 0 20 21" fill="none" xmlns="http://www.w3.org/2000/svg">
<path d="M9.99996 11.8124C10.4602 11.8124 10.8333 11.4393 10.8333 10.979C10.8333 10.5188 10.4602 10.1457 9.99996 10.1457C9.53972 10.1457 9.16663 10.5188 9.16663 10.979C9.16663 11.4393 9.53972 11.8124 9.99996 11.8124Z" stroke="#98A2B3" stroke-width="1.66667" stroke-linecap="round" stroke-linejoin="round"/>
<path d="M9.99996 5.97904C10.4602 5.97904 10.8333 5.60595 10.8333 5.14571C10.8333 4.68547 10.4602 4.31238 9.99996 4.31238C9.53972 4.31238 9.16663 4.68547 9.16663 5.14571C9.16663 5.60595 9.53972 5.97904 9.99996 5.97904Z" stroke="#98A2B3" stroke-width="1.66667" stroke-linecap="round" stroke-linejoin="round"/>
<path d="M9.99996 17.6457C10.4602 17.6457 10.8333 17.2726 10.8333 16.8124C10.8333 16.3521 10.4602 15.979 9.99996 15.979C9.53972 15.979 9.16663 16.3521 9.16663 16.8124C9.16663 17.2726 9.53972 17.6457 9.99996 17.6457Z" stroke="#98A2B3" stroke-width="1.66667" stroke-linecap="round" stroke-linejoin="round"/>
</svg>
