<svg width="16" height="17" viewBox="0 0 16 17" fill="none" xmlns="http://www.w3.org/2000/svg">
<path d="M8 14.0879C6 14.0879 4.232 13.0639 3.2 11.5279C3.224 9.92788 6.4 9.04788 8 9.04788C9.6 9.04788 12.776 9.92788 12.8 11.5279C12.2712 12.3155 11.5568 12.961 10.7197 13.4074C9.88269 13.8538 8.94867 14.0875 8 14.0879ZM8 2.72788C8.63652 2.72788 9.24697 2.98074 9.69706 3.43082C10.1471 3.88091 10.4 4.49136 10.4 5.12788C10.4 5.7644 10.1471 6.37485 9.69706 6.82494C9.24697 7.27502 8.63652 7.52788 8 7.52788C7.36348 7.52788 6.75303 7.27502 6.30294 6.82494C5.85286 6.37485 5.6 5.7644 5.6 5.12788C5.6 4.49136 5.85286 3.88091 6.30294 3.43082C6.75303 2.98074 7.36348 2.72788 8 2.72788ZM8 0.327881C6.94943 0.327881 5.90914 0.534807 4.93853 0.936845C3.96793 1.33888 3.08601 1.92816 2.34315 2.67103C0.842855 4.17132 0 6.20615 0 8.32788C0 10.4496 0.842855 12.4844 2.34315 13.9847C3.08601 14.7276 3.96793 15.3169 4.93853 15.7189C5.90914 16.121 6.94943 16.3279 8 16.3279C10.1217 16.3279 12.1566 15.485 13.6569 13.9847C15.1571 12.4844 16 10.4496 16 8.32788C16 3.90388 12.4 0.327881 8 0.327881Z" fill="#A3AFB0"/>
</svg>
