<svg width="53" height="36" viewBox="0 0 53 36" fill="none" xmlns="http://www.w3.org/2000/svg">
<path d="M13.332 35.672C8.98 35.672 5.732 34.248 3.588 31.4C1.476 28.552 0.42 24.792 0.42 20.12V16.184C0.42 11.512 1.476 7.768 3.588 4.952C5.732 2.136 8.98 0.727998 13.332 0.727998C17.716 0.727998 20.964 2.152 23.076 5C25.22 7.816 26.292 11.544 26.292 16.184V20.12C26.292 24.792 25.22 28.552 23.076 31.4C20.932 34.248 17.684 35.672 13.332 35.672ZM13.332 29.912C15.252 29.912 16.644 29.112 17.508 27.512C18.404 25.88 18.852 23.496 18.852 20.36V15.896C18.852 12.792 18.404 10.456 17.508 8.888C16.644 7.288 15.252 6.488 13.332 6.488C11.444 6.488 10.052 7.288 9.156 8.888C8.292 10.456 7.86 12.792 7.86 15.896V20.36C7.86 23.496 8.292 25.88 9.156 27.512C10.052 29.112 11.444 29.912 13.332 29.912ZM52.0245 29.192V35H31.9605V29.192H39.1605V9.32H38.9685L31.9125 15.752V7.832L39.0165 1.4H45.5445V29.192H52.0245Z" fill="#E9E9E9"/>
</svg>
