<svg width="55" height="36" viewBox="0 0 55 36" fill="none" xmlns="http://www.w3.org/2000/svg">
<path d="M13.332 35.672C8.98 35.672 5.732 34.248 3.588 31.4C1.476 28.552 0.42 24.792 0.42 20.12V16.184C0.42 11.512 1.476 7.768 3.588 4.952C5.732 2.136 8.98 0.727998 13.332 0.727998C17.716 0.727998 20.964 2.152 23.076 5C25.22 7.816 26.292 11.544 26.292 16.184V20.12C26.292 24.792 25.22 28.552 23.076 31.4C20.932 34.248 17.684 35.672 13.332 35.672ZM13.332 29.912C15.252 29.912 16.644 29.112 17.508 27.512C18.404 25.88 18.852 23.496 18.852 20.36V15.896C18.852 12.792 18.404 10.456 17.508 8.888C16.644 7.288 15.252 6.488 13.332 6.488C11.444 6.488 10.052 7.288 9.156 8.888C8.292 10.456 7.86 12.792 7.86 15.896V20.36C7.86 23.496 8.292 25.88 9.156 27.512C10.052 29.112 11.444 29.912 13.332 29.912ZM31.1445 29.336L36.4725 24.68L38.7285 22.808C40.8405 21.08 42.4885 19.672 43.6725 18.584C44.8565 17.496 45.8325 16.344 46.6005 15.128C47.3685 13.88 47.7525 12.616 47.7525 11.336C47.7525 9.96 47.3365 8.792 46.5045 7.832C45.6725 6.872 44.4085 6.392 42.7125 6.392C40.6325 6.392 39.2405 7 38.5365 8.216C37.8645 9.4 37.5285 10.664 37.5285 12.008V12.584H31.0005C31.0005 10.184 31.4645 8.088 32.3925 6.296C33.3525 4.504 34.6965 3.128 36.4245 2.168C38.1845 1.176 40.2485 0.679998 42.6165 0.679998C45.0165 0.679998 47.0645 1.144 48.7605 2.072C50.4885 2.968 51.7845 4.2 52.6485 5.768C53.5445 7.336 53.9925 9.064 53.9925 10.952C53.9925 12.84 53.5925 14.568 52.7925 16.136C51.9925 17.672 51.0325 19.016 49.9125 20.168C48.7925 21.288 47.3525 22.584 45.5925 24.056L44.8245 24.728L39.8805 28.952V29.192H54.2805V35H31.1925L31.1445 29.336Z" fill="#E9E9E9"/>
</svg>
