<svg width="55" height="36" viewBox="0 0 55 36" fill="none" xmlns="http://www.w3.org/2000/svg">
<path d="M13.332 35.672C8.98 35.672 5.732 34.248 3.588 31.4C1.476 28.552 0.42 24.792 0.42 20.12V16.184C0.42 11.512 1.476 7.768 3.588 4.952C5.732 2.136 8.98 0.727998 13.332 0.727998C17.716 0.727998 20.964 2.152 23.076 5C25.22 7.816 26.292 11.544 26.292 16.184V20.12C26.292 24.792 25.22 28.552 23.076 31.4C20.932 34.248 17.684 35.672 13.332 35.672ZM13.332 29.912C15.252 29.912 16.644 29.112 17.508 27.512C18.404 25.88 18.852 23.496 18.852 20.36V15.896C18.852 12.792 18.404 10.456 17.508 8.888C16.644 7.288 15.252 6.488 13.332 6.488C11.444 6.488 10.052 7.288 9.156 8.888C8.292 10.456 7.86 12.792 7.86 15.896V20.36C7.86 23.496 8.292 25.88 9.156 27.512C10.052 29.112 11.444 29.912 13.332 29.912ZM42.7125 35.432C38.8725 35.432 35.9125 34.488 33.8325 32.6C31.7525 30.712 30.5205 28.312 30.1365 25.4H36.8565C37.2085 26.712 37.8805 27.736 38.8725 28.472C39.8645 29.208 41.1285 29.576 42.6645 29.576C44.4245 29.576 45.7845 29.128 46.7445 28.232C47.7365 27.304 48.2325 26.136 48.2325 24.728C48.2325 23.224 47.7045 22.056 46.6485 21.224C45.6245 20.36 44.3125 19.928 42.7125 19.928H39.6885V14.888H42.7605C44.2005 14.888 45.3845 14.52 46.3125 13.784C47.2405 13.016 47.7045 11.944 47.7045 10.568C47.7045 9.192 47.2245 8.088 46.2645 7.256C45.3365 6.424 44.1045 6.008 42.5685 6.008C41.0965 6.008 39.9125 6.376 39.0165 7.112C38.1525 7.848 37.5925 8.856 37.3365 10.136H30.8085C31.2245 7.416 32.3765 5.144 34.2645 3.32C36.1525 1.464 38.9365 0.535997 42.6165 0.535997C45.3045 0.535997 47.5285 1.032 49.2885 2.024C51.0485 2.984 52.3125 4.216 53.0805 5.72C53.8805 7.224 54.2805 8.76 54.2805 10.328C54.2805 11.928 53.8965 13.256 53.1285 14.312C52.3925 15.368 51.5925 16.152 50.7285 16.664C49.8965 17.176 49.3685 17.432 49.1445 17.432V17.72C49.8165 17.944 50.5045 18.248 51.2085 18.632C51.9125 18.984 52.6645 19.72 53.4645 20.84C54.2645 21.96 54.6645 23.464 54.6645 25.352C54.6645 27.144 54.2325 28.808 53.3685 30.344C52.5045 31.88 51.1765 33.112 49.3845 34.04C47.5925 34.968 45.3685 35.432 42.7125 35.432Z" fill="#E9E9E9"/>
</svg>
