<svg width="57" height="36" viewBox="0 0 57 36" fill="none" xmlns="http://www.w3.org/2000/svg">
<path d="M13.832 35.672C9.48 35.672 6.232 34.248 4.088 31.4C1.976 28.552 0.92 24.792 0.92 20.12V16.184C0.92 11.512 1.976 7.768 4.088 4.952C6.232 2.136 9.48 0.727998 13.832 0.727998C18.216 0.727998 21.464 2.152 23.576 5C25.72 7.816 26.792 11.544 26.792 16.184V20.12C26.792 24.792 25.72 28.552 23.576 31.4C21.432 34.248 18.184 35.672 13.832 35.672ZM13.832 29.912C15.752 29.912 17.144 29.112 18.008 27.512C18.904 25.88 19.352 23.496 19.352 20.36V15.896C19.352 12.792 18.904 10.456 18.008 8.888C17.144 7.288 15.752 6.488 13.832 6.488C11.944 6.488 10.552 7.288 9.656 8.888C8.792 10.456 8.36 12.792 8.36 15.896V20.36C8.36 23.496 8.792 25.88 9.656 27.512C10.552 29.112 11.944 29.912 13.832 29.912ZM45.3725 27.032L30.5405 26.984V21.944L43.5485 1.4H51.9005V21.944H56.0765V27.032H51.9005V35H45.3725V27.032ZM45.4205 21.848V9.224L37.2125 21.848H45.4205Z" fill="#E9E9E9"/>
</svg>
