<svg width="571" height="336" viewBox="0 0 571 336" fill="none" xmlns="http://www.w3.org/2000/svg">
<g filter="url(#filter0_d_68_22763)">
<rect x="63" y="23" width="350" height="210" rx="10" fill="#A3D154" shape-rendering="crispEdges"/>
<g filter="url(#filter1_d_68_22763)">
<path d="M101.88 91.88V89.3C100.36 89.18 99.11 88.86 98.13 88.34C97.17 87.8 96.42 87.18 95.88 86.48C95.34 85.76 94.95 85.06 94.71 84.38C94.47 83.68 94.32 83.11 94.26 82.67C94.22 82.21 94.2 81.98 94.2 81.98H98.58C98.58 81.98 98.6 82.14 98.64 82.46C98.7 82.76 98.83 83.13 99.03 83.57C99.23 84.01 99.55 84.42 99.99 84.8C100.45 85.18 101.08 85.45 101.88 85.61V79.37L101.67 79.34C100.87 79.16 100.06 78.93 99.24 78.65C98.44 78.37 97.7 78 97.02 77.54C96.36 77.08 95.82 76.49 95.4 75.77C95 75.05 94.8 74.15 94.8 73.07C94.8 71.77 95.11 70.66 95.73 69.74C96.37 68.8 97.22 68.06 98.28 67.52C99.36 66.98 100.56 66.65 101.88 66.53V63.98H104.28V66.59C105.58 66.73 106.65 67.05 107.49 67.55C108.35 68.03 109.03 68.59 109.53 69.23C110.03 69.85 110.4 70.47 110.64 71.09C110.88 71.69 111.03 72.19 111.09 72.59C111.17 72.99 111.21 73.19 111.21 73.19H106.89C106.89 73.19 106.86 73.07 106.8 72.83C106.76 72.59 106.65 72.3 106.47 71.96C106.31 71.6 106.05 71.26 105.69 70.94C105.35 70.6 104.88 70.35 104.28 70.19V75.98L104.67 76.07C105.35 76.23 106.08 76.44 106.86 76.7C107.66 76.94 108.4 77.29 109.08 77.75C109.78 78.21 110.34 78.83 110.76 79.61C111.2 80.37 111.42 81.33 111.42 82.49C111.42 83.73 111.12 84.84 110.52 85.82C109.94 86.78 109.11 87.56 108.03 88.16C106.97 88.76 105.72 89.13 104.28 89.27V91.88H101.88ZM99.06 72.89C99.06 73.55 99.29 74.08 99.75 74.48C100.21 74.86 100.92 75.18 101.88 75.44V70.04C101 70.2 100.31 70.54 99.81 71.06C99.31 71.58 99.06 72.19 99.06 72.89ZM107.13 82.58C107.13 81.84 106.88 81.27 106.38 80.87C105.9 80.47 105.2 80.15 104.28 79.91V85.61C105.14 85.43 105.83 85.07 106.35 84.53C106.87 83.99 107.13 83.34 107.13 82.58ZM131.396 89V84.47L120.656 84.44V80.42L130.316 66.8H136.046V80.57H139.466V84.47H136.046V89H131.396ZM125.216 80.57H131.396V71.78L125.216 80.57ZM158.132 89.3C156.632 89.3 155.352 89.06 154.292 88.58C153.232 88.1 152.362 87.49 151.682 86.75C151.022 86.01 150.532 85.24 150.212 84.44C149.912 83.62 149.762 82.87 149.762 82.19H154.052C154.052 82.19 154.082 82.36 154.142 82.7C154.222 83.04 154.392 83.43 154.652 83.87C154.912 84.31 155.312 84.7 155.852 85.04C156.392 85.38 157.122 85.55 158.042 85.55C158.962 85.55 159.722 85.36 160.322 84.98C160.922 84.58 161.372 84.08 161.672 83.48C161.972 82.88 162.122 82.25 162.122 81.59C162.122 80.91 161.972 80.27 161.672 79.67C161.372 79.05 160.922 78.55 160.322 78.17C159.742 77.77 159.012 77.57 158.132 77.57C157.452 77.57 156.892 77.68 156.452 77.9C156.012 78.1 155.662 78.34 155.402 78.62C155.142 78.88 154.952 79.12 154.832 79.34C154.732 79.54 154.682 79.64 154.682 79.64H150.122L152.072 66.8H165.152V70.82H155.222L154.442 75.89H154.562C154.662 75.79 154.862 75.59 155.162 75.29C155.482 74.99 155.962 74.71 156.602 74.45C157.242 74.17 158.092 74.03 159.152 74.03C160.752 74.03 162.112 74.39 163.232 75.11C164.352 75.83 165.192 76.76 165.752 77.9C166.332 79.02 166.622 80.21 166.622 81.47C166.622 82.45 166.442 83.4 166.082 84.32C165.742 85.24 165.222 86.08 164.522 86.84C163.822 87.58 162.942 88.18 161.882 88.64C160.822 89.08 159.572 89.3 158.132 89.3ZM179.212 89.3C177.672 89.3 176.332 89.03 175.192 88.49C174.052 87.93 173.102 87.18 172.342 86.24C171.602 85.28 171.052 84.2 170.692 83C170.332 81.78 170.152 80.51 170.152 79.19C170.152 77.73 170.372 76.26 170.812 74.78C171.272 73.28 171.982 71.91 172.942 70.67C173.922 69.41 175.172 68.4 176.692 67.64C178.212 66.88 180.052 66.5 182.212 66.5C183.092 66.5 183.852 66.56 184.492 66.68C185.132 66.78 185.452 66.83 185.452 66.83V70.94C185.452 70.94 185.282 70.92 184.942 70.88C184.622 70.82 184.212 70.76 183.712 70.7C183.212 70.64 182.712 70.61 182.212 70.61C180.672 70.61 179.382 70.92 178.342 71.54C177.302 72.16 176.502 72.95 175.942 73.91C175.402 74.87 175.082 75.88 174.982 76.94C175.182 76.6 175.492 76.23 175.912 75.83C176.332 75.41 176.892 75.05 177.592 74.75C178.312 74.45 179.212 74.3 180.292 74.3C181.892 74.3 183.232 74.65 184.312 75.35C185.392 76.03 186.202 76.92 186.742 78.02C187.282 79.12 187.552 80.27 187.552 81.47C187.552 82.43 187.372 83.38 187.012 84.32C186.672 85.24 186.152 86.08 185.452 86.84C184.772 87.58 183.912 88.18 182.872 88.64C181.832 89.08 180.612 89.3 179.212 89.3ZM179.212 85.49C180.332 85.49 181.252 85.13 181.972 84.41C182.692 83.69 183.052 82.77 183.052 81.65C183.052 80.51 182.692 79.59 181.972 78.89C181.252 78.17 180.332 77.81 179.212 77.81C178.112 77.81 177.192 78.17 176.452 78.89C175.732 79.59 175.372 80.51 175.372 81.65C175.372 82.77 175.732 83.69 176.452 84.41C177.192 85.13 178.112 85.49 179.212 85.49ZM199.857 89.3C198.377 89.3 197.057 89 195.897 88.4C194.757 87.8 193.787 86.98 192.987 85.94C192.187 84.88 191.577 83.66 191.157 82.28C190.757 80.9 190.557 79.44 190.557 77.9C190.557 76.34 190.757 74.87 191.157 73.49C191.577 72.11 192.187 70.9 192.987 69.86C193.787 68.8 194.757 67.98 195.897 67.4C197.057 66.8 198.377 66.5 199.857 66.5C201.337 66.5 202.647 66.8 203.787 67.4C204.947 67.98 205.927 68.8 206.727 69.86C207.527 70.9 208.127 72.11 208.527 73.49C208.947 74.87 209.157 76.34 209.157 77.9C209.157 79.44 208.947 80.9 208.527 82.28C208.127 83.66 207.527 84.88 206.727 85.94C205.927 86.98 204.947 87.8 203.787 88.4C202.647 89 201.337 89.3 199.857 89.3ZM199.857 85.19C201.177 85.19 202.257 84.58 203.097 83.36C203.957 82.14 204.387 80.32 204.387 77.9C204.387 75.48 203.957 73.66 203.097 72.44C202.257 71.22 201.177 70.61 199.857 70.61C198.537 70.61 197.447 71.22 196.587 72.44C195.747 73.66 195.327 75.48 195.327 77.9C195.327 80.32 195.747 82.14 196.587 83.36C197.447 84.58 198.537 85.19 199.857 85.19Z" fill="white"/>
<path d="M329.825 73.0469H331.562L334.118 80.3545L336.675 73.0469H338.411L334.815 83H333.421L329.825 73.0469ZM328.889 73.0469H330.618L330.933 80.1699V83H328.889V73.0469ZM337.618 73.0469H339.354V83H337.304V80.1699L337.618 73.0469ZM343.224 82.166L345.186 75.6035H347.298L344.324 84.1143C344.26 84.3011 344.174 84.5016 344.064 84.7158C343.96 84.93 343.816 85.1328 343.634 85.3242C343.456 85.5202 343.23 85.6797 342.957 85.8027C342.688 85.9258 342.358 85.9873 341.966 85.9873C341.779 85.9873 341.626 85.9759 341.508 85.9531C341.389 85.9303 341.248 85.8984 341.084 85.8574V84.415C341.134 84.415 341.187 84.415 341.241 84.415C341.296 84.4196 341.348 84.4219 341.398 84.4219C341.658 84.4219 341.87 84.3923 342.034 84.333C342.198 84.2738 342.33 84.1826 342.431 84.0596C342.531 83.9411 342.611 83.7861 342.67 83.5947L343.224 82.166ZM342.403 75.6035L344.01 80.9629L344.29 83.0479L342.95 83.1914L340.291 75.6035H342.403ZM355.59 78.6318H353.033L353.02 77.2236H355.166C355.544 77.2236 355.854 77.1758 356.096 77.0801C356.337 76.9798 356.517 76.8363 356.636 76.6494C356.759 76.458 356.82 76.2256 356.82 75.9521C356.82 75.6423 356.761 75.3916 356.643 75.2002C356.529 75.0088 356.349 74.8698 356.103 74.7832C355.861 74.6966 355.549 74.6533 355.166 74.6533H353.744V83H351.693V73.0469H355.166C355.745 73.0469 356.262 73.1016 356.718 73.2109C357.178 73.3203 357.568 73.4867 357.887 73.71C358.206 73.9333 358.45 74.2158 358.618 74.5576C358.787 74.8949 358.871 75.2959 358.871 75.7607C358.871 76.1709 358.778 76.5492 358.591 76.8955C358.409 77.2419 358.119 77.5244 357.723 77.7432C357.331 77.9619 356.818 78.0827 356.185 78.1055L355.59 78.6318ZM355.501 83H352.473L353.272 81.4004H355.501C355.861 81.4004 356.155 81.3434 356.383 81.2295C356.611 81.111 356.779 80.9515 356.889 80.751C356.998 80.5505 357.053 80.3203 357.053 80.0605C357.053 79.7689 357.003 79.516 356.902 79.3018C356.807 79.0876 356.652 78.9235 356.438 78.8096C356.223 78.6911 355.941 78.6318 355.59 78.6318H353.614L353.628 77.2236H356.089L356.561 77.7773C357.167 77.7682 357.654 77.8753 358.023 78.0986C358.397 78.3174 358.668 78.6022 358.837 78.9531C359.01 79.304 359.097 79.68 359.097 80.0811C359.097 80.7191 358.958 81.2568 358.68 81.6943C358.402 82.1273 357.994 82.4531 357.456 82.6719C356.923 82.8906 356.271 83 355.501 83ZM364.504 81.332V78.0371C364.504 77.8001 364.465 77.5973 364.388 77.4287C364.31 77.2555 364.189 77.1211 364.025 77.0254C363.866 76.9297 363.659 76.8818 363.403 76.8818C363.185 76.8818 362.995 76.9206 362.836 76.998C362.676 77.071 362.553 77.1781 362.467 77.3193C362.38 77.4561 362.337 77.6178 362.337 77.8047H360.368C360.368 77.4902 360.441 77.1917 360.587 76.9092C360.733 76.6266 360.945 76.3783 361.223 76.1641C361.501 75.9453 361.831 75.7744 362.214 75.6514C362.601 75.5283 363.034 75.4668 363.513 75.4668C364.087 75.4668 364.597 75.5625 365.044 75.7539C365.491 75.9453 365.841 76.2324 366.097 76.6152C366.356 76.998 366.486 77.4766 366.486 78.0508V81.2158C366.486 81.6214 366.511 81.9541 366.562 82.2139C366.612 82.4691 366.685 82.6924 366.78 82.8838V83H364.791C364.695 82.7995 364.622 82.5488 364.572 82.248C364.527 81.9427 364.504 81.6374 364.504 81.332ZM364.764 78.4951L364.777 79.6094H363.677C363.417 79.6094 363.191 79.639 363 79.6982C362.809 79.7575 362.651 79.8418 362.528 79.9512C362.405 80.056 362.314 80.179 362.255 80.3203C362.2 80.4616 362.173 80.6165 362.173 80.7852C362.173 80.9538 362.212 81.1064 362.289 81.2432C362.367 81.3753 362.478 81.4801 362.624 81.5576C362.77 81.6305 362.941 81.667 363.137 81.667C363.433 81.667 363.69 81.6077 363.909 81.4893C364.128 81.3708 364.297 81.2249 364.415 81.0518C364.538 80.8786 364.602 80.7145 364.606 80.5596L365.126 81.3936C365.053 81.5804 364.953 81.7741 364.825 81.9746C364.702 82.1751 364.545 82.3643 364.354 82.542C364.162 82.7152 363.932 82.8587 363.663 82.9727C363.394 83.082 363.075 83.1367 362.706 83.1367C362.237 83.1367 361.811 83.0433 361.428 82.8564C361.049 82.665 360.749 82.403 360.525 82.0703C360.307 81.7331 360.197 81.3503 360.197 80.9219C360.197 80.5345 360.27 80.1904 360.416 79.8896C360.562 79.5889 360.776 79.3359 361.059 79.1309C361.346 78.9212 361.703 78.764 362.132 78.6592C362.56 78.5498 363.057 78.4951 363.622 78.4951H364.764ZM369.932 77.1826V83H367.963V75.6035H369.809L369.932 77.1826ZM369.645 79.042H369.111C369.111 78.4951 369.182 78.0029 369.323 77.5654C369.465 77.1234 369.663 76.7474 369.918 76.4375C370.173 76.123 370.476 75.8838 370.827 75.7197C371.183 75.5511 371.579 75.4668 372.017 75.4668C372.363 75.4668 372.68 75.5169 372.967 75.6172C373.254 75.7174 373.5 75.877 373.705 76.0957C373.915 76.3145 374.074 76.6038 374.184 76.9639C374.298 77.3239 374.354 77.7637 374.354 78.2832V83H372.372V78.2764C372.372 77.9482 372.326 77.693 372.235 77.5107C372.144 77.3285 372.01 77.2008 371.832 77.1279C371.659 77.0505 371.445 77.0117 371.189 77.0117C370.925 77.0117 370.695 77.0641 370.499 77.1689C370.308 77.2738 370.148 77.4196 370.021 77.6064C369.897 77.7887 369.804 78.0029 369.74 78.249C369.676 78.4951 369.645 78.7594 369.645 79.042ZM377.82 72.4932V83H375.852V72.4932H377.82ZM382.482 75.6035L379.27 79.2676L377.547 81.0107L376.829 79.5889L378.196 77.8525L380.117 75.6035H382.482ZM380.438 83L378.251 79.582L379.611 78.3926L382.708 83H380.438Z" fill="white"/>
<g filter="url(#filter2_d_68_22763)">
<rect x="93" y="131.964" width="5" height="5" rx="2.5" fill="white"/>
</g>
<g filter="url(#filter3_d_68_22763)">
<rect x="101" y="131.964" width="5" height="5" rx="2.5" fill="white"/>
</g>
<g filter="url(#filter4_d_68_22763)">
<rect x="109" y="131.964" width="5" height="5" rx="2.5" fill="white"/>
</g>
<g filter="url(#filter5_d_68_22763)">
<rect x="117" y="131.964" width="5" height="5" rx="2.5" fill="white"/>
</g>
<g filter="url(#filter6_d_68_22763)">
<rect x="132" y="131.964" width="5" height="5" rx="2.5" fill="white"/>
</g>
<g filter="url(#filter7_d_68_22763)">
<rect x="140" y="131.964" width="5" height="5" rx="2.5" fill="white"/>
</g>
<g filter="url(#filter8_d_68_22763)">
<rect x="148" y="131.964" width="5" height="5" rx="2.5" fill="white"/>
</g>
<g filter="url(#filter9_d_68_22763)">
<rect x="156" y="131.964" width="5" height="5" rx="2.5" fill="white"/>
</g>
<g filter="url(#filter10_d_68_22763)">
<rect x="171" y="131.964" width="5" height="5" rx="2.5" fill="white"/>
</g>
<g filter="url(#filter11_d_68_22763)">
<rect x="179" y="131.964" width="5" height="5" rx="2.5" fill="white"/>
</g>
<g filter="url(#filter12_d_68_22763)">
<rect x="187" y="131.964" width="5" height="5" rx="2.5" fill="white"/>
</g>
<g filter="url(#filter13_d_68_22763)">
<rect x="195" y="131.964" width="5" height="5" rx="2.5" fill="white"/>
</g>
<path d="M221.4 140.464V138.048L215.672 138.032V135.888L220.824 128.624H223.88V135.968H225.704V138.048H223.88V140.464H221.4ZM218.104 135.968H221.4V131.28L218.104 135.968ZM232.916 140.464V138.048L227.188 138.032V135.888L232.34 128.624H235.396V135.968H237.22V138.048H235.396V140.464H232.916ZM229.62 135.968H232.916V131.28L229.62 135.968ZM243.487 140.624C242.687 140.624 242.005 140.496 241.439 140.24C240.874 139.984 240.41 139.659 240.047 139.264C239.695 138.869 239.434 138.459 239.263 138.032C239.103 137.595 239.023 137.195 239.023 136.832H241.311C241.311 136.832 241.327 136.923 241.359 137.104C241.402 137.285 241.493 137.493 241.631 137.728C241.77 137.963 241.983 138.171 242.271 138.352C242.559 138.533 242.949 138.624 243.439 138.624C243.93 138.624 244.335 138.523 244.655 138.32C244.975 138.107 245.215 137.84 245.375 137.52C245.535 137.2 245.615 136.864 245.615 136.512C245.615 136.149 245.535 135.808 245.375 135.488C245.215 135.157 244.975 134.891 244.655 134.688C244.346 134.475 243.957 134.368 243.487 134.368C243.125 134.368 242.826 134.427 242.591 134.544C242.357 134.651 242.17 134.779 242.031 134.928C241.893 135.067 241.791 135.195 241.727 135.312C241.674 135.419 241.647 135.472 241.647 135.472H239.215L240.255 128.624H247.231V130.768H241.935L241.519 133.472H241.583C241.637 133.419 241.743 133.312 241.903 133.152C242.074 132.992 242.33 132.843 242.671 132.704C243.013 132.555 243.466 132.48 244.031 132.48C244.885 132.48 245.61 132.672 246.207 133.056C246.805 133.44 247.253 133.936 247.551 134.544C247.861 135.141 248.015 135.776 248.015 136.448C248.015 136.971 247.919 137.477 247.727 137.968C247.546 138.459 247.269 138.907 246.895 139.312C246.522 139.707 246.053 140.027 245.487 140.272C244.922 140.507 244.255 140.624 243.487 140.624ZM254.73 140.624C253.908 140.624 253.194 140.48 252.586 140.192C251.978 139.893 251.471 139.493 251.066 138.992C250.671 138.48 250.378 137.904 250.186 137.264C249.994 136.613 249.898 135.936 249.898 135.232C249.898 134.453 250.015 133.669 250.25 132.88C250.495 132.08 250.874 131.349 251.386 130.688C251.908 130.016 252.575 129.477 253.386 129.072C254.196 128.667 255.178 128.464 256.33 128.464C256.799 128.464 257.204 128.496 257.546 128.56C257.887 128.613 258.058 128.64 258.058 128.64V130.832C258.058 130.832 257.967 130.821 257.786 130.8C257.615 130.768 257.396 130.736 257.13 130.704C256.863 130.672 256.596 130.656 256.33 130.656C255.508 130.656 254.82 130.821 254.266 131.152C253.711 131.483 253.284 131.904 252.986 132.416C252.698 132.928 252.527 133.467 252.474 134.032C252.58 133.851 252.746 133.653 252.97 133.44C253.194 133.216 253.492 133.024 253.866 132.864C254.25 132.704 254.73 132.624 255.306 132.624C256.159 132.624 256.874 132.811 257.45 133.184C258.026 133.547 258.458 134.021 258.746 134.608C259.034 135.195 259.178 135.808 259.178 136.448C259.178 136.96 259.082 137.467 258.89 137.968C258.708 138.459 258.431 138.907 258.058 139.312C257.695 139.707 257.236 140.027 256.682 140.272C256.127 140.507 255.476 140.624 254.73 140.624ZM254.73 138.592C255.327 138.592 255.818 138.4 256.202 138.016C256.586 137.632 256.778 137.141 256.778 136.544C256.778 135.936 256.586 135.445 256.202 135.072C255.818 134.688 255.327 134.496 254.73 134.496C254.143 134.496 253.652 134.688 253.258 135.072C252.874 135.445 252.682 135.936 252.682 136.544C252.682 137.141 252.874 137.632 253.258 138.016C253.652 138.4 254.143 138.592 254.73 138.592Z" fill="white"/>
<path d="M93.952 189.464V179.104H96.108V187.588H101.176V189.464H93.952ZM102.948 189.464V178.824H105.076V189.464H102.948ZM110.553 189.604C109.723 189.604 109.018 189.427 108.439 189.072C107.861 188.708 107.417 188.237 107.109 187.658C106.811 187.07 106.661 186.435 106.661 185.754C106.661 185.073 106.811 184.443 107.109 183.864C107.417 183.276 107.861 182.805 108.439 182.45C109.018 182.086 109.723 181.904 110.553 181.904C111.384 181.904 112.089 182.086 112.667 182.45C113.246 182.805 113.685 183.276 113.983 183.864C114.291 184.443 114.445 185.073 114.445 185.754C114.445 186.435 114.291 187.07 113.983 187.658C113.685 188.237 113.246 188.708 112.667 189.072C112.089 189.427 111.384 189.604 110.553 189.604ZM110.553 187.868C110.927 187.868 111.239 187.77 111.491 187.574C111.753 187.378 111.953 187.121 112.093 186.804C112.233 186.477 112.303 186.127 112.303 185.754C112.303 185.371 112.233 185.021 112.093 184.704C111.953 184.387 111.753 184.13 111.491 183.934C111.239 183.738 110.927 183.64 110.553 183.64C110.18 183.64 109.863 183.738 109.601 183.934C109.34 184.13 109.139 184.387 108.999 184.704C108.869 185.021 108.803 185.371 108.803 185.754C108.803 186.127 108.869 186.477 108.999 186.804C109.139 187.121 109.34 187.378 109.601 187.574C109.863 187.77 110.18 187.868 110.553 187.868ZM116.166 192.194C115.914 192.194 115.713 192.185 115.564 192.166C115.415 192.147 115.34 192.138 115.34 192.138V190.43C115.34 190.43 115.401 190.435 115.522 190.444C115.653 190.453 115.811 190.458 115.998 190.458C116.446 190.458 116.815 190.393 117.104 190.262C117.393 190.141 117.645 189.898 117.86 189.534L115.116 182.044H117.244L118.966 187.07L120.646 182.044H122.788L120.128 189.17C119.885 189.851 119.591 190.416 119.246 190.864C118.91 191.312 118.495 191.643 118 191.858C117.505 192.082 116.894 192.194 116.166 192.194ZM126.63 189.604C126.08 189.604 125.599 189.497 125.188 189.282C124.787 189.058 124.451 188.764 124.18 188.4C123.91 188.027 123.704 187.611 123.564 187.154C123.434 186.697 123.368 186.23 123.368 185.754C123.368 185.278 123.434 184.811 123.564 184.354C123.704 183.897 123.91 183.486 124.18 183.122C124.451 182.749 124.787 182.455 125.188 182.24C125.599 182.016 126.08 181.904 126.63 181.904C127.106 181.904 127.498 181.983 127.806 182.142C128.114 182.291 128.348 182.455 128.506 182.632C128.674 182.809 128.777 182.931 128.814 182.996H128.926V178.824H131.054V189.464H128.926V188.512H128.814C128.777 188.577 128.674 188.699 128.506 188.876C128.348 189.053 128.114 189.221 127.806 189.38C127.498 189.529 127.106 189.604 126.63 189.604ZM127.246 187.882C127.629 187.882 127.946 187.779 128.198 187.574C128.46 187.359 128.651 187.089 128.772 186.762C128.903 186.435 128.968 186.099 128.968 185.754C128.968 185.409 128.903 185.073 128.772 184.746C128.651 184.419 128.46 184.153 128.198 183.948C127.946 183.733 127.629 183.626 127.246 183.626C126.864 183.626 126.542 183.733 126.28 183.948C126.028 184.153 125.837 184.419 125.706 184.746C125.585 185.073 125.524 185.409 125.524 185.754C125.524 186.099 125.585 186.435 125.706 186.762C125.837 187.089 126.028 187.359 126.28 187.574C126.542 187.779 126.864 187.882 127.246 187.882ZM136.184 189.464V179.104H138.34V187.588H143.408V189.464H136.184ZM144.973 192.194C144.721 192.194 144.52 192.185 144.371 192.166C144.221 192.147 144.147 192.138 144.147 192.138V190.43C144.147 190.43 144.207 190.435 144.329 190.444C144.459 190.453 144.618 190.458 144.805 190.458C145.253 190.458 145.621 190.393 145.911 190.262C146.2 190.141 146.452 189.898 146.667 189.534L143.923 182.044H146.051L147.773 187.07L149.453 182.044H151.595L148.935 189.17C148.692 189.851 148.398 190.416 148.053 190.864C147.717 191.312 147.301 191.643 146.807 191.858C146.312 192.082 145.701 192.194 144.973 192.194ZM156.067 189.604C155.236 189.604 154.532 189.427 153.953 189.072C153.374 188.708 152.931 188.237 152.623 187.658C152.324 187.07 152.175 186.435 152.175 185.754C152.175 185.073 152.324 184.443 152.623 183.864C152.931 183.276 153.374 182.805 153.953 182.45C154.532 182.086 155.236 181.904 156.067 181.904C156.898 181.904 157.602 182.086 158.181 182.45C158.76 182.805 159.198 183.276 159.497 183.864C159.805 184.443 159.959 185.073 159.959 185.754C159.959 186.435 159.805 187.07 159.497 187.658C159.198 188.237 158.76 188.708 158.181 189.072C157.602 189.427 156.898 189.604 156.067 189.604ZM156.067 187.868C156.44 187.868 156.753 187.77 157.005 187.574C157.266 187.378 157.467 187.121 157.607 186.804C157.747 186.477 157.817 186.127 157.817 185.754C157.817 185.371 157.747 185.021 157.607 184.704C157.467 184.387 157.266 184.13 157.005 183.934C156.753 183.738 156.44 183.64 156.067 183.64C155.694 183.64 155.376 183.738 155.115 183.934C154.854 184.13 154.653 184.387 154.513 184.704C154.382 185.021 154.317 185.371 154.317 185.754C154.317 186.127 154.382 186.477 154.513 186.804C154.653 187.121 154.854 187.378 155.115 187.574C155.376 187.77 155.694 187.868 156.067 187.868ZM161.406 189.464V182.044H163.534V183.108H163.604C163.688 182.959 163.809 182.791 163.968 182.604C164.136 182.417 164.355 182.254 164.626 182.114C164.906 181.974 165.26 181.904 165.69 181.904C166.268 181.904 166.74 182.039 167.104 182.31C167.468 182.571 167.734 182.912 167.902 183.332C168.07 183.743 168.154 184.177 168.154 184.634V189.464H166.026V184.998C166.026 184.643 165.928 184.331 165.732 184.06C165.545 183.789 165.242 183.654 164.822 183.654C164.504 183.654 164.252 183.729 164.066 183.878C163.879 184.027 163.744 184.219 163.66 184.452C163.576 184.685 163.534 184.933 163.534 185.194V189.464H161.406ZM172.895 189.604C172.279 189.604 171.77 189.52 171.369 189.352C170.968 189.184 170.646 188.979 170.403 188.736C170.17 188.484 169.992 188.237 169.871 187.994C169.759 187.742 169.684 187.532 169.647 187.364C169.619 187.196 169.605 187.112 169.605 187.112H171.579C171.579 187.112 171.593 187.159 171.621 187.252C171.649 187.345 171.71 187.453 171.803 187.574C171.906 187.695 172.05 187.803 172.237 187.896C172.424 187.989 172.676 188.036 172.993 188.036C173.385 188.036 173.651 187.957 173.791 187.798C173.94 187.639 174.015 187.481 174.015 187.322C174.015 186.986 173.74 186.762 173.189 186.65L172.181 186.454C171.752 186.37 171.346 186.249 170.963 186.09C170.59 185.922 170.286 185.693 170.053 185.404C169.829 185.105 169.717 184.723 169.717 184.256C169.717 183.808 169.834 183.407 170.067 183.052C170.3 182.697 170.632 182.417 171.061 182.212C171.5 182.007 172.022 181.904 172.629 181.904C173.198 181.904 173.67 181.983 174.043 182.142C174.426 182.291 174.729 182.483 174.953 182.716C175.177 182.94 175.345 183.169 175.457 183.402C175.569 183.626 175.639 183.817 175.667 183.976C175.704 184.125 175.723 184.2 175.723 184.2H173.819C173.819 184.2 173.791 184.139 173.735 184.018C173.679 183.887 173.562 183.761 173.385 183.64C173.217 183.509 172.956 183.444 172.601 183.444C172.237 183.444 171.985 183.519 171.845 183.668C171.705 183.808 171.635 183.957 171.635 184.116C171.635 184.303 171.714 184.443 171.873 184.536C172.041 184.629 172.256 184.704 172.517 184.76L173.483 184.956C174.192 185.096 174.776 185.343 175.233 185.698C175.69 186.043 175.919 186.547 175.919 187.21C175.919 187.658 175.802 188.064 175.569 188.428C175.336 188.792 174.995 189.081 174.547 189.296C174.099 189.501 173.548 189.604 172.895 189.604Z" fill="white"/>
<path d="M361.12 199.036H344.902V169.891H361.12L361.12 199.036Z" fill="#FF5F00"/>
<path d="M345.931 184.464C345.931 178.552 348.699 173.285 353.01 169.891C349.747 167.318 345.711 165.922 341.556 165.928C331.32 165.928 323.022 174.227 323.022 184.464C323.022 194.701 331.32 203 341.556 203C345.711 203.006 349.747 201.61 353.01 199.037C348.7 195.643 345.931 190.377 345.931 184.464Z" fill="#EB001B"/>
<path d="M383 184.464C383 194.701 374.702 203 364.467 203C360.311 203.006 356.274 201.61 353.011 199.037C357.323 195.643 360.091 190.377 360.091 184.464C360.091 178.552 357.323 173.285 353.011 169.891C356.274 167.319 360.31 165.922 364.466 165.928C374.702 165.928 383 174.227 383 184.464" fill="#F79E1B"/>
</g>
<g filter="url(#filter14_i_68_22763)">
<rect x="431" y="23" width="65" height="40" rx="3" fill="url(#paint0_linear_68_22763)"/>
</g>
<path d="M443.469 37.3438V38.4473H438.347L438.278 37.5928L441.242 32.8906H442.36L441.149 34.917L439.675 37.3438H443.469ZM442.663 32.8906V40H441.257V32.8906H442.663ZM449.211 37.3438V38.4473H444.089L444.021 37.5928L446.984 32.8906H448.103L446.892 34.917L445.417 37.3438H449.211ZM448.405 32.8906V40H446.999V32.8906H448.405ZM451.296 36.7627L450.173 36.4941L450.578 32.8906H454.572V34.0283H451.735L451.56 35.6055C451.654 35.5501 451.797 35.4915 451.989 35.4297C452.181 35.3646 452.396 35.332 452.634 35.332C452.979 35.332 453.285 35.3857 453.552 35.4932C453.819 35.6006 454.045 35.7568 454.23 35.9619C454.419 36.167 454.562 36.4176 454.66 36.7139C454.758 37.0101 454.807 37.3454 454.807 37.7197C454.807 38.0355 454.758 38.3366 454.66 38.623C454.562 38.9062 454.414 39.1602 454.216 39.3848C454.017 39.6061 453.768 39.7803 453.469 39.9072C453.169 40.0342 452.814 40.0977 452.404 40.0977C452.098 40.0977 451.802 40.0521 451.516 39.9609C451.232 39.8698 450.977 39.7347 450.749 39.5557C450.524 39.3766 450.344 39.1602 450.207 38.9062C450.074 38.6491 450.004 38.3561 449.997 38.0273H451.394C451.413 38.2292 451.465 38.4033 451.55 38.5498C451.638 38.693 451.753 38.8037 451.896 38.8818C452.04 38.96 452.207 38.999 452.399 38.999C452.578 38.999 452.731 38.9648 452.858 38.8965C452.985 38.8281 453.088 38.7337 453.166 38.6133C453.244 38.4896 453.301 38.3464 453.337 38.1836C453.376 38.0176 453.396 37.8385 453.396 37.6465C453.396 37.4544 453.373 37.2803 453.327 37.124C453.282 36.9678 453.212 36.8327 453.117 36.7188C453.023 36.6048 452.902 36.5169 452.756 36.4551C452.613 36.3932 452.445 36.3623 452.253 36.3623C451.993 36.3623 451.791 36.403 451.647 36.4844C451.507 36.5658 451.39 36.6585 451.296 36.7627ZM459.343 32.8174H459.548V33.9404H459.465C459.094 33.9404 458.763 33.9958 458.474 34.1064C458.184 34.2171 457.938 34.375 457.736 34.5801C457.538 34.7819 457.385 35.026 457.277 35.3125C457.173 35.599 457.121 35.9196 457.121 36.2744V37.4561C457.121 37.71 457.146 37.9346 457.194 38.1299C457.246 38.3219 457.32 38.4831 457.414 38.6133C457.512 38.7402 457.626 38.8363 457.756 38.9014C457.886 38.9632 458.033 38.9941 458.195 38.9941C458.348 38.9941 458.487 38.9616 458.61 38.8965C458.737 38.8314 458.845 38.7402 458.933 38.623C459.024 38.5026 459.092 38.3626 459.138 38.2031C459.187 38.0404 459.211 37.863 459.211 37.6709C459.211 37.4788 459.187 37.3014 459.138 37.1387C459.092 36.9759 459.024 36.8359 458.933 36.7188C458.841 36.5983 458.731 36.5055 458.601 36.4404C458.47 36.3753 458.324 36.3428 458.161 36.3428C457.94 36.3428 457.744 36.3949 457.575 36.499C457.409 36.5999 457.279 36.7301 457.185 36.8896C457.09 37.0492 457.04 37.2168 457.033 37.3926L456.608 37.1191C456.618 36.8685 456.67 36.6309 456.765 36.4062C456.862 36.1816 456.996 35.9831 457.165 35.8105C457.338 35.6348 457.544 35.498 457.785 35.4004C458.026 35.2995 458.298 35.249 458.601 35.249C458.933 35.249 459.224 35.3125 459.475 35.4395C459.729 35.5664 459.94 35.7406 460.109 35.9619C460.279 36.1833 460.406 36.4388 460.49 36.7285C460.575 37.0182 460.617 37.3275 460.617 37.6562C460.617 38.0013 460.56 38.3219 460.446 38.6182C460.336 38.9144 460.174 39.1732 459.963 39.3945C459.755 39.6159 459.504 39.7884 459.211 39.9121C458.918 40.0358 458.589 40.0977 458.225 40.0977C457.847 40.0977 457.504 40.0293 457.194 39.8926C456.888 39.7526 456.625 39.5573 456.403 39.3066C456.182 39.056 456.011 38.7581 455.891 38.4131C455.773 38.068 455.715 37.6904 455.715 37.2803V36.7334C455.715 36.1605 455.798 35.6364 455.964 35.1611C456.133 34.6826 456.376 34.2692 456.691 33.9209C457.007 33.5693 457.388 33.2975 457.834 33.1055C458.28 32.9134 458.783 32.8174 459.343 32.8174Z" fill="white"/>
<path d="M481.654 55.7454H475.416V44.5356H481.654L481.654 55.7454Z" fill="#FF5F00"/>
<path d="M475.811 50.1406C475.811 47.8667 476.876 45.8411 478.534 44.5358C477.279 43.5462 475.726 43.0091 474.128 43.0115C470.191 43.0115 467 46.2033 467 50.1406C467 54.078 470.191 57.2698 474.128 57.2698C475.726 57.2722 477.279 56.7351 478.534 55.7455C476.876 54.4404 475.811 52.4147 475.811 50.1406Z" fill="#EB001B"/>
<path d="M490.068 50.1406C490.068 54.078 486.876 57.2698 482.939 57.2698C481.341 57.2722 479.788 56.7351 478.533 55.7455C480.192 54.4402 481.256 52.4147 481.256 50.1406C481.256 47.8666 480.192 45.8411 478.533 44.5358C479.788 43.5462 481.341 43.0092 482.939 43.0115C486.876 43.0115 490.067 46.2033 490.067 50.1406" fill="#F79E1B"/>
<rect x="506" y="23" width="2" height="40" rx="1" fill="#FF6633"/>
<g filter="url(#filter15_i_68_22763)">
<rect x="431" y="83" width="65" height="40" rx="3" fill="url(#paint1_linear_68_22763)"/>
</g>
<path d="M442.116 92.8174H442.321V93.9404H442.238C441.867 93.9404 441.537 93.9958 441.247 94.1064C440.957 94.2171 440.712 94.375 440.51 94.5801C440.311 94.7819 440.158 95.026 440.051 95.3125C439.947 95.599 439.895 95.9196 439.895 96.2744V97.4561C439.895 97.71 439.919 97.9346 439.968 98.1299C440.02 98.3219 440.093 98.4831 440.188 98.6133C440.285 98.7402 440.399 98.8363 440.529 98.9014C440.66 98.9632 440.806 98.9941 440.969 98.9941C441.122 98.9941 441.26 98.9616 441.384 98.8965C441.511 98.8314 441.618 98.7402 441.706 98.623C441.797 98.5026 441.866 98.3626 441.911 98.2031C441.96 98.0404 441.984 97.863 441.984 97.6709C441.984 97.4788 441.96 97.3014 441.911 97.1387C441.866 96.9759 441.797 96.8359 441.706 96.7188C441.615 96.5983 441.504 96.5055 441.374 96.4404C441.244 96.3753 441.097 96.3428 440.935 96.3428C440.713 96.3428 440.518 96.3949 440.349 96.499C440.183 96.5999 440.052 96.7301 439.958 96.8896C439.864 97.0492 439.813 97.2168 439.807 97.3926L439.382 97.1191C439.392 96.8685 439.444 96.6309 439.538 96.4062C439.636 96.1816 439.769 95.9831 439.938 95.8105C440.111 95.6348 440.318 95.498 440.559 95.4004C440.799 95.2995 441.071 95.249 441.374 95.249C441.706 95.249 441.997 95.3125 442.248 95.4395C442.502 95.5664 442.714 95.7406 442.883 95.9619C443.052 96.1833 443.179 96.4388 443.264 96.7285C443.348 97.0182 443.391 97.3275 443.391 97.6562C443.391 98.0013 443.334 98.3219 443.22 98.6182C443.109 98.9144 442.948 99.1732 442.736 99.3945C442.528 99.6159 442.277 99.7884 441.984 99.9121C441.691 100.036 441.363 100.098 440.998 100.098C440.62 100.098 440.277 100.029 439.968 99.8926C439.662 99.7526 439.398 99.5573 439.177 99.3066C438.955 99.056 438.785 98.7581 438.664 98.4131C438.547 98.068 438.488 97.6904 438.488 97.2803V96.7334C438.488 96.1605 438.571 95.6364 438.737 95.1611C438.907 94.6826 439.149 94.2692 439.465 93.9209C439.781 93.5693 440.161 93.2975 440.607 93.1055C441.053 92.9134 441.556 92.8174 442.116 92.8174ZM449.06 92.8906V93.6475L446.311 100H444.826L447.575 93.9893H444.035V92.8906H449.06ZM451.296 96.7627L450.173 96.4941L450.578 92.8906H454.572V94.0283H451.735L451.56 95.6055C451.654 95.5501 451.797 95.4915 451.989 95.4297C452.181 95.3646 452.396 95.332 452.634 95.332C452.979 95.332 453.285 95.3857 453.552 95.4932C453.819 95.6006 454.045 95.7568 454.23 95.9619C454.419 96.167 454.562 96.4176 454.66 96.7139C454.758 97.0101 454.807 97.3454 454.807 97.7197C454.807 98.0355 454.758 98.3366 454.66 98.623C454.562 98.9062 454.414 99.1602 454.216 99.3848C454.017 99.6061 453.768 99.7803 453.469 99.9072C453.169 100.034 452.814 100.098 452.404 100.098C452.098 100.098 451.802 100.052 451.516 99.9609C451.232 99.8698 450.977 99.7347 450.749 99.5557C450.524 99.3766 450.344 99.1602 450.207 98.9062C450.074 98.6491 450.004 98.3561 449.997 98.0273H451.394C451.413 98.2292 451.465 98.4033 451.55 98.5498C451.638 98.693 451.753 98.8037 451.896 98.8818C452.04 98.96 452.207 98.999 452.399 98.999C452.578 98.999 452.731 98.9648 452.858 98.8965C452.985 98.8281 453.088 98.7337 453.166 98.6133C453.244 98.4896 453.301 98.3464 453.337 98.1836C453.376 98.0176 453.396 97.8385 453.396 97.6465C453.396 97.4544 453.373 97.2803 453.327 97.124C453.282 96.9678 453.212 96.8327 453.117 96.7188C453.023 96.6048 452.902 96.5169 452.756 96.4551C452.613 96.3932 452.445 96.3623 452.253 96.3623C451.993 96.3623 451.791 96.403 451.647 96.4844C451.507 96.5658 451.39 96.6585 451.296 96.7627ZM457.155 95.835H457.907C458.148 95.835 458.347 95.7943 458.503 95.7129C458.659 95.6283 458.775 95.5111 458.85 95.3613C458.928 95.2083 458.967 95.0309 458.967 94.8291C458.967 94.6468 458.931 94.4857 458.859 94.3457C458.791 94.2025 458.685 94.0918 458.542 94.0137C458.399 93.9323 458.218 93.8916 458 93.8916C457.827 93.8916 457.668 93.9258 457.521 93.9941C457.375 94.0625 457.258 94.1585 457.17 94.2822C457.082 94.4059 457.038 94.5557 457.038 94.7314H455.627C455.627 94.3408 455.731 94.0007 455.939 93.7109C456.151 93.4212 456.434 93.195 456.789 93.0322C457.144 92.8695 457.535 92.7881 457.961 92.7881C458.443 92.7881 458.864 92.8662 459.226 93.0225C459.587 93.1755 459.868 93.4017 460.07 93.7012C460.272 94.0007 460.373 94.3717 460.373 94.8145C460.373 95.0391 460.321 95.2572 460.217 95.4688C460.113 95.6771 459.963 95.8659 459.768 96.0352C459.576 96.2012 459.341 96.3346 459.064 96.4355C458.788 96.5332 458.477 96.582 458.132 96.582H457.155V95.835ZM457.155 96.9043V96.1768H458.132C458.519 96.1768 458.859 96.2207 459.152 96.3086C459.445 96.3965 459.691 96.5234 459.89 96.6895C460.088 96.8522 460.238 97.0459 460.339 97.2705C460.44 97.4919 460.49 97.7376 460.49 98.0078C460.49 98.3398 460.427 98.6361 460.3 98.8965C460.173 99.1536 459.994 99.3717 459.763 99.5508C459.535 99.7298 459.268 99.8665 458.962 99.9609C458.656 100.052 458.322 100.098 457.961 100.098C457.661 100.098 457.367 100.057 457.077 99.9756C456.791 99.891 456.53 99.7656 456.296 99.5996C456.065 99.4303 455.879 99.2188 455.739 98.9648C455.603 98.7077 455.534 98.4033 455.534 98.0518H456.945C456.945 98.234 456.991 98.3968 457.082 98.54C457.173 98.6833 457.299 98.7956 457.458 98.877C457.621 98.9583 457.801 98.999 458 98.999C458.225 98.999 458.417 98.9583 458.576 98.877C458.739 98.7923 458.863 98.6751 458.947 98.5254C459.035 98.3724 459.079 98.195 459.079 97.9932C459.079 97.7327 459.032 97.5244 458.938 97.3682C458.843 97.2087 458.708 97.0915 458.532 97.0166C458.356 96.9417 458.148 96.9043 457.907 96.9043H457.155Z" fill="white"/>
<path d="M481.654 115.745H475.416V104.536H481.654L481.654 115.745Z" fill="#FF5F00"/>
<path d="M475.811 110.141C475.811 107.867 476.876 105.841 478.534 104.536C477.279 103.546 475.726 103.009 474.128 103.011C470.191 103.011 467 106.203 467 110.141C467 114.078 470.191 117.27 474.128 117.27C475.726 117.272 477.279 116.735 478.534 115.746C476.876 114.44 475.811 112.415 475.811 110.141Z" fill="#EB001B"/>
<path d="M490.068 110.141C490.068 114.078 486.876 117.27 482.939 117.27C481.341 117.272 479.788 116.735 478.533 115.746C480.192 114.44 481.256 112.415 481.256 110.141C481.256 107.867 480.192 105.841 478.533 104.536C479.788 103.546 481.341 103.009 482.939 103.011C486.876 103.011 490.067 106.203 490.067 110.141" fill="#F79E1B"/>
<g filter="url(#filter16_i_68_22763)">
<rect x="431" y="143" width="65" height="40" rx="3" fill="url(#paint2_linear_68_22763)"/>
</g>
<path d="M476.341 175.61H474.395L475.611 168.134H477.558L476.341 175.61Z" fill="white"/>
<path d="M472.758 168.134L470.902 173.276L470.682 172.169L470.682 172.169L470.027 168.807C470.027 168.807 469.948 168.134 469.104 168.134H466.036L466 168.26C466 168.26 466.938 168.455 468.036 169.115L469.727 175.611H471.756L474.853 168.134H472.758Z" fill="white"/>
<path fill-rule="evenodd" clip-rule="evenodd" d="M489.857 175.61H488.069L487.841 174.5H485.367L484.961 175.61H482.932L485.835 168.691C485.835 168.691 486.011 168.133 486.733 168.133H488.298L489.857 175.61ZM486.951 170.167L485.928 172.965H487.526L486.951 170.167Z" fill="white"/>
<path d="M483.083 169.932L483.361 168.326C483.361 168.326 482.504 168 481.61 168C480.644 168 478.35 168.422 478.35 170.475C478.35 172.407 481.042 172.431 481.042 173.445C481.042 174.46 478.627 174.278 477.83 173.638L477.541 175.317C477.541 175.317 478.41 175.739 479.738 175.739C481.067 175.739 483.071 175.052 483.071 173.18C483.071 171.236 480.354 171.055 480.354 170.209C480.354 169.364 482.25 169.473 483.083 169.932Z" fill="white"/>
<path d="M470.682 172.169L470.027 168.807C470.027 168.807 469.948 168.133 469.104 168.133H466.036L466 168.26C466 168.26 467.475 168.566 468.889 169.711C470.241 170.805 470.682 172.169 470.682 172.169Z" fill="white"/>
<path d="M439.484 158.931H439.577C439.968 158.931 440.303 158.883 440.583 158.789C440.866 158.691 441.099 158.551 441.281 158.369C441.464 158.187 441.599 157.964 441.687 157.7C441.774 157.433 441.818 157.131 441.818 156.792V155.444C441.818 155.187 441.792 154.961 441.74 154.766C441.691 154.57 441.62 154.409 441.525 154.282C441.434 154.152 441.327 154.054 441.203 153.989C441.083 153.924 440.949 153.892 440.803 153.892C440.646 153.892 440.508 153.931 440.388 154.009C440.267 154.084 440.165 154.186 440.08 154.316C439.999 154.447 439.935 154.596 439.89 154.766C439.847 154.932 439.826 155.106 439.826 155.288C439.826 155.47 439.847 155.645 439.89 155.811C439.932 155.973 439.995 156.118 440.08 156.245C440.165 156.369 440.271 156.468 440.397 156.543C440.524 156.615 440.674 156.65 440.847 156.65C441.013 156.65 441.161 156.619 441.291 156.558C441.424 156.493 441.537 156.408 441.628 156.304C441.722 156.2 441.794 156.084 441.843 155.957C441.895 155.83 441.921 155.701 441.921 155.571L442.385 155.825C442.385 156.053 442.336 156.278 442.238 156.499C442.141 156.72 442.004 156.922 441.828 157.104C441.656 157.284 441.455 157.427 441.228 157.534C441 157.642 440.756 157.695 440.495 157.695C440.163 157.695 439.868 157.635 439.611 157.515C439.354 157.391 439.136 157.222 438.957 157.007C438.781 156.789 438.648 156.535 438.557 156.245C438.465 155.955 438.42 155.641 438.42 155.303C438.42 154.958 438.475 154.634 438.586 154.331C438.7 154.028 438.861 153.761 439.069 153.53C439.281 153.299 439.533 153.118 439.826 152.988C440.122 152.855 440.451 152.788 440.812 152.788C441.174 152.788 441.503 152.858 441.799 152.998C442.095 153.138 442.349 153.337 442.561 153.594C442.772 153.848 442.935 154.152 443.049 154.507C443.166 154.862 443.225 155.256 443.225 155.688V156.177C443.225 156.639 443.174 157.069 443.073 157.466C442.976 157.863 442.827 158.223 442.629 158.545C442.434 158.864 442.189 159.137 441.896 159.365C441.607 159.593 441.27 159.767 440.886 159.888C440.502 160.008 440.072 160.068 439.597 160.068H439.484V158.931ZM449.021 158.052C449.021 158.498 448.916 158.874 448.708 159.18C448.5 159.482 448.213 159.712 447.849 159.868C447.487 160.021 447.077 160.098 446.618 160.098C446.159 160.098 445.747 160.021 445.383 159.868C445.018 159.712 444.73 159.482 444.519 159.18C444.307 158.874 444.201 158.498 444.201 158.052C444.201 157.752 444.261 157.482 444.382 157.241C444.502 156.997 444.67 156.789 444.885 156.616C445.103 156.44 445.358 156.307 445.651 156.216C445.944 156.121 446.263 156.074 446.608 156.074C447.071 156.074 447.484 156.156 447.849 156.318C448.213 156.481 448.5 156.711 448.708 157.007C448.916 157.303 449.021 157.651 449.021 158.052ZM447.604 157.959C447.604 157.741 447.562 157.554 447.478 157.397C447.396 157.238 447.281 157.116 447.131 157.031C446.981 156.947 446.807 156.904 446.608 156.904C446.41 156.904 446.236 156.947 446.086 157.031C445.936 157.116 445.819 157.238 445.734 157.397C445.653 157.554 445.612 157.741 445.612 157.959C445.612 158.174 445.653 158.359 445.734 158.516C445.819 158.672 445.936 158.792 446.086 158.877C446.239 158.958 446.416 158.999 446.618 158.999C446.82 158.999 446.994 158.958 447.141 158.877C447.29 158.792 447.404 158.672 447.482 158.516C447.564 158.359 447.604 158.174 447.604 157.959ZM448.869 154.775C448.869 155.137 448.773 155.457 448.581 155.737C448.389 156.014 448.122 156.23 447.78 156.387C447.442 156.543 447.054 156.621 446.618 156.621C446.179 156.621 445.788 156.543 445.446 156.387C445.104 156.23 444.838 156.014 444.646 155.737C444.453 155.457 444.357 155.137 444.357 154.775C444.357 154.346 444.453 153.984 444.646 153.691C444.841 153.395 445.108 153.171 445.446 153.018C445.788 152.865 446.175 152.788 446.608 152.788C447.048 152.788 447.437 152.865 447.775 153.018C448.117 153.171 448.384 153.395 448.576 153.691C448.771 153.984 448.869 154.346 448.869 154.775ZM447.463 154.839C447.463 154.647 447.429 154.481 447.36 154.341C447.292 154.198 447.194 154.087 447.067 154.009C446.944 153.931 446.791 153.892 446.608 153.892C446.433 153.892 446.281 153.929 446.154 154.004C446.031 154.079 445.935 154.188 445.866 154.331C445.801 154.471 445.769 154.64 445.769 154.839C445.769 155.031 445.801 155.2 445.866 155.347C445.935 155.49 446.032 155.602 446.159 155.684C446.286 155.765 446.439 155.806 446.618 155.806C446.797 155.806 446.949 155.765 447.072 155.684C447.199 155.602 447.295 155.49 447.36 155.347C447.429 155.2 447.463 155.031 447.463 154.839ZM454.802 152.891V153.647L452.053 160H450.568L453.317 153.989H449.777V152.891H454.802ZM457.038 156.763L455.915 156.494L456.32 152.891H460.314V154.028H457.478L457.302 155.605C457.396 155.55 457.539 155.492 457.731 155.43C457.924 155.365 458.138 155.332 458.376 155.332C458.721 155.332 459.027 155.386 459.294 155.493C459.561 155.601 459.787 155.757 459.973 155.962C460.161 156.167 460.305 156.418 460.402 156.714C460.5 157.01 460.549 157.345 460.549 157.72C460.549 158.035 460.5 158.337 460.402 158.623C460.305 158.906 460.157 159.16 459.958 159.385C459.759 159.606 459.51 159.78 459.211 159.907C458.911 160.034 458.557 160.098 458.146 160.098C457.84 160.098 457.544 160.052 457.258 159.961C456.975 159.87 456.719 159.735 456.491 159.556C456.267 159.377 456.086 159.16 455.949 158.906C455.816 158.649 455.746 158.356 455.739 158.027H457.136C457.155 158.229 457.207 158.403 457.292 158.55C457.38 158.693 457.495 158.804 457.639 158.882C457.782 158.96 457.95 158.999 458.142 158.999C458.321 158.999 458.474 158.965 458.601 158.896C458.728 158.828 458.83 158.734 458.908 158.613C458.986 158.49 459.043 158.346 459.079 158.184C459.118 158.018 459.138 157.839 459.138 157.646C459.138 157.454 459.115 157.28 459.069 157.124C459.024 156.968 458.954 156.833 458.859 156.719C458.765 156.605 458.645 156.517 458.498 156.455C458.355 156.393 458.187 156.362 457.995 156.362C457.735 156.362 457.533 156.403 457.39 156.484C457.25 156.566 457.132 156.659 457.038 156.763Z" fill="white"/>
</g>
<defs>
<filter id="filter0_d_68_22763" x="0" y="0" width="571" height="336" filterUnits="userSpaceOnUse" color-interpolation-filters="sRGB">
<feFlood flood-opacity="0" result="BackgroundImageFix"/>
<feColorMatrix in="SourceAlpha" type="matrix" values="0 0 0 0 0 0 0 0 0 0 0 0 0 0 0 0 0 0 127 0" result="hardAlpha"/>
<feOffset dy="40"/>
<feGaussianBlur stdDeviation="31.5"/>
<feComposite in2="hardAlpha" operator="out"/>
<feColorMatrix type="matrix" values="0 0 0 0 0.901961 0 0 0 0 0.180392 0 0 0 0 0.180392 0 0 0 0.15 0"/>
<feBlend mode="normal" in2="BackgroundImageFix" result="effect1_dropShadow_68_22763"/>
<feBlend mode="normal" in="SourceGraphic" in2="effect1_dropShadow_68_22763" result="shape"/>
</filter>
<filter id="filter1_d_68_22763" x="3" y="-7" width="470" height="330" filterUnits="userSpaceOnUse" color-interpolation-filters="sRGB">
<feFlood flood-opacity="0" result="BackgroundImageFix"/>
<feColorMatrix in="SourceAlpha" type="matrix" values="0 0 0 0 0 0 0 0 0 0 0 0 0 0 0 0 0 0 127 0" result="hardAlpha"/>
<feOffset dy="30"/>
<feGaussianBlur stdDeviation="30"/>
<feColorMatrix type="matrix" values="0 0 0 0 0.639216 0 0 0 0 0.819608 0 0 0 0 0.329412 0 0 0 1 0"/>
<feBlend mode="normal" in2="BackgroundImageFix" result="effect1_dropShadow_68_22763"/>
<feBlend mode="normal" in="SourceGraphic" in2="effect1_dropShadow_68_22763" result="shape"/>
</filter>
<filter id="filter2_d_68_22763" x="88" y="128.964" width="15" height="15" filterUnits="userSpaceOnUse" color-interpolation-filters="sRGB">
<feFlood flood-opacity="0" result="BackgroundImageFix"/>
<feColorMatrix in="SourceAlpha" type="matrix" values="0 0 0 0 0 0 0 0 0 0 0 0 0 0 0 0 0 0 127 0" result="hardAlpha"/>
<feOffset dy="2"/>
<feGaussianBlur stdDeviation="2.5"/>
<feColorMatrix type="matrix" values="0 0 0 0 0.14902 0 0 0 0 0.2 0 0 0 0 0.301961 0 0 0 0.03 0"/>
<feBlend mode="normal" in2="BackgroundImageFix" result="effect1_dropShadow_68_22763"/>
<feBlend mode="normal" in="SourceGraphic" in2="effect1_dropShadow_68_22763" result="shape"/>
</filter>
<filter id="filter3_d_68_22763" x="96" y="128.964" width="15" height="15" filterUnits="userSpaceOnUse" color-interpolation-filters="sRGB">
<feFlood flood-opacity="0" result="BackgroundImageFix"/>
<feColorMatrix in="SourceAlpha" type="matrix" values="0 0 0 0 0 0 0 0 0 0 0 0 0 0 0 0 0 0 127 0" result="hardAlpha"/>
<feOffset dy="2"/>
<feGaussianBlur stdDeviation="2.5"/>
<feColorMatrix type="matrix" values="0 0 0 0 0.14902 0 0 0 0 0.2 0 0 0 0 0.301961 0 0 0 0.03 0"/>
<feBlend mode="normal" in2="BackgroundImageFix" result="effect1_dropShadow_68_22763"/>
<feBlend mode="normal" in="SourceGraphic" in2="effect1_dropShadow_68_22763" result="shape"/>
</filter>
<filter id="filter4_d_68_22763" x="104" y="128.964" width="15" height="15" filterUnits="userSpaceOnUse" color-interpolation-filters="sRGB">
<feFlood flood-opacity="0" result="BackgroundImageFix"/>
<feColorMatrix in="SourceAlpha" type="matrix" values="0 0 0 0 0 0 0 0 0 0 0 0 0 0 0 0 0 0 127 0" result="hardAlpha"/>
<feOffset dy="2"/>
<feGaussianBlur stdDeviation="2.5"/>
<feColorMatrix type="matrix" values="0 0 0 0 0.14902 0 0 0 0 0.2 0 0 0 0 0.301961 0 0 0 0.03 0"/>
<feBlend mode="normal" in2="BackgroundImageFix" result="effect1_dropShadow_68_22763"/>
<feBlend mode="normal" in="SourceGraphic" in2="effect1_dropShadow_68_22763" result="shape"/>
</filter>
<filter id="filter5_d_68_22763" x="112" y="128.964" width="15" height="15" filterUnits="userSpaceOnUse" color-interpolation-filters="sRGB">
<feFlood flood-opacity="0" result="BackgroundImageFix"/>
<feColorMatrix in="SourceAlpha" type="matrix" values="0 0 0 0 0 0 0 0 0 0 0 0 0 0 0 0 0 0 127 0" result="hardAlpha"/>
<feOffset dy="2"/>
<feGaussianBlur stdDeviation="2.5"/>
<feColorMatrix type="matrix" values="0 0 0 0 0.14902 0 0 0 0 0.2 0 0 0 0 0.301961 0 0 0 0.03 0"/>
<feBlend mode="normal" in2="BackgroundImageFix" result="effect1_dropShadow_68_22763"/>
<feBlend mode="normal" in="SourceGraphic" in2="effect1_dropShadow_68_22763" result="shape"/>
</filter>
<filter id="filter6_d_68_22763" x="127" y="128.964" width="15" height="15" filterUnits="userSpaceOnUse" color-interpolation-filters="sRGB">
<feFlood flood-opacity="0" result="BackgroundImageFix"/>
<feColorMatrix in="SourceAlpha" type="matrix" values="0 0 0 0 0 0 0 0 0 0 0 0 0 0 0 0 0 0 127 0" result="hardAlpha"/>
<feOffset dy="2"/>
<feGaussianBlur stdDeviation="2.5"/>
<feColorMatrix type="matrix" values="0 0 0 0 0.14902 0 0 0 0 0.2 0 0 0 0 0.301961 0 0 0 0.03 0"/>
<feBlend mode="normal" in2="BackgroundImageFix" result="effect1_dropShadow_68_22763"/>
<feBlend mode="normal" in="SourceGraphic" in2="effect1_dropShadow_68_22763" result="shape"/>
</filter>
<filter id="filter7_d_68_22763" x="135" y="128.964" width="15" height="15" filterUnits="userSpaceOnUse" color-interpolation-filters="sRGB">
<feFlood flood-opacity="0" result="BackgroundImageFix"/>
<feColorMatrix in="SourceAlpha" type="matrix" values="0 0 0 0 0 0 0 0 0 0 0 0 0 0 0 0 0 0 127 0" result="hardAlpha"/>
<feOffset dy="2"/>
<feGaussianBlur stdDeviation="2.5"/>
<feColorMatrix type="matrix" values="0 0 0 0 0.14902 0 0 0 0 0.2 0 0 0 0 0.301961 0 0 0 0.03 0"/>
<feBlend mode="normal" in2="BackgroundImageFix" result="effect1_dropShadow_68_22763"/>
<feBlend mode="normal" in="SourceGraphic" in2="effect1_dropShadow_68_22763" result="shape"/>
</filter>
<filter id="filter8_d_68_22763" x="143" y="128.964" width="15" height="15" filterUnits="userSpaceOnUse" color-interpolation-filters="sRGB">
<feFlood flood-opacity="0" result="BackgroundImageFix"/>
<feColorMatrix in="SourceAlpha" type="matrix" values="0 0 0 0 0 0 0 0 0 0 0 0 0 0 0 0 0 0 127 0" result="hardAlpha"/>
<feOffset dy="2"/>
<feGaussianBlur stdDeviation="2.5"/>
<feColorMatrix type="matrix" values="0 0 0 0 0.14902 0 0 0 0 0.2 0 0 0 0 0.301961 0 0 0 0.03 0"/>
<feBlend mode="normal" in2="BackgroundImageFix" result="effect1_dropShadow_68_22763"/>
<feBlend mode="normal" in="SourceGraphic" in2="effect1_dropShadow_68_22763" result="shape"/>
</filter>
<filter id="filter9_d_68_22763" x="151" y="128.964" width="15" height="15" filterUnits="userSpaceOnUse" color-interpolation-filters="sRGB">
<feFlood flood-opacity="0" result="BackgroundImageFix"/>
<feColorMatrix in="SourceAlpha" type="matrix" values="0 0 0 0 0 0 0 0 0 0 0 0 0 0 0 0 0 0 127 0" result="hardAlpha"/>
<feOffset dy="2"/>
<feGaussianBlur stdDeviation="2.5"/>
<feColorMatrix type="matrix" values="0 0 0 0 0.14902 0 0 0 0 0.2 0 0 0 0 0.301961 0 0 0 0.03 0"/>
<feBlend mode="normal" in2="BackgroundImageFix" result="effect1_dropShadow_68_22763"/>
<feBlend mode="normal" in="SourceGraphic" in2="effect1_dropShadow_68_22763" result="shape"/>
</filter>
<filter id="filter10_d_68_22763" x="166" y="128.964" width="15" height="15" filterUnits="userSpaceOnUse" color-interpolation-filters="sRGB">
<feFlood flood-opacity="0" result="BackgroundImageFix"/>
<feColorMatrix in="SourceAlpha" type="matrix" values="0 0 0 0 0 0 0 0 0 0 0 0 0 0 0 0 0 0 127 0" result="hardAlpha"/>
<feOffset dy="2"/>
<feGaussianBlur stdDeviation="2.5"/>
<feColorMatrix type="matrix" values="0 0 0 0 0.14902 0 0 0 0 0.2 0 0 0 0 0.301961 0 0 0 0.03 0"/>
<feBlend mode="normal" in2="BackgroundImageFix" result="effect1_dropShadow_68_22763"/>
<feBlend mode="normal" in="SourceGraphic" in2="effect1_dropShadow_68_22763" result="shape"/>
</filter>
<filter id="filter11_d_68_22763" x="174" y="128.964" width="15" height="15" filterUnits="userSpaceOnUse" color-interpolation-filters="sRGB">
<feFlood flood-opacity="0" result="BackgroundImageFix"/>
<feColorMatrix in="SourceAlpha" type="matrix" values="0 0 0 0 0 0 0 0 0 0 0 0 0 0 0 0 0 0 127 0" result="hardAlpha"/>
<feOffset dy="2"/>
<feGaussianBlur stdDeviation="2.5"/>
<feColorMatrix type="matrix" values="0 0 0 0 0.14902 0 0 0 0 0.2 0 0 0 0 0.301961 0 0 0 0.03 0"/>
<feBlend mode="normal" in2="BackgroundImageFix" result="effect1_dropShadow_68_22763"/>
<feBlend mode="normal" in="SourceGraphic" in2="effect1_dropShadow_68_22763" result="shape"/>
</filter>
<filter id="filter12_d_68_22763" x="182" y="128.964" width="15" height="15" filterUnits="userSpaceOnUse" color-interpolation-filters="sRGB">
<feFlood flood-opacity="0" result="BackgroundImageFix"/>
<feColorMatrix in="SourceAlpha" type="matrix" values="0 0 0 0 0 0 0 0 0 0 0 0 0 0 0 0 0 0 127 0" result="hardAlpha"/>
<feOffset dy="2"/>
<feGaussianBlur stdDeviation="2.5"/>
<feColorMatrix type="matrix" values="0 0 0 0 0.14902 0 0 0 0 0.2 0 0 0 0 0.301961 0 0 0 0.03 0"/>
<feBlend mode="normal" in2="BackgroundImageFix" result="effect1_dropShadow_68_22763"/>
<feBlend mode="normal" in="SourceGraphic" in2="effect1_dropShadow_68_22763" result="shape"/>
</filter>
<filter id="filter13_d_68_22763" x="190" y="128.964" width="15" height="15" filterUnits="userSpaceOnUse" color-interpolation-filters="sRGB">
<feFlood flood-opacity="0" result="BackgroundImageFix"/>
<feColorMatrix in="SourceAlpha" type="matrix" values="0 0 0 0 0 0 0 0 0 0 0 0 0 0 0 0 0 0 127 0" result="hardAlpha"/>
<feOffset dy="2"/>
<feGaussianBlur stdDeviation="2.5"/>
<feColorMatrix type="matrix" values="0 0 0 0 0.14902 0 0 0 0 0.2 0 0 0 0 0.301961 0 0 0 0.03 0"/>
<feBlend mode="normal" in2="BackgroundImageFix" result="effect1_dropShadow_68_22763"/>
<feBlend mode="normal" in="SourceGraphic" in2="effect1_dropShadow_68_22763" result="shape"/>
</filter>
<filter id="filter14_i_68_22763" x="431" y="23" width="65" height="41" filterUnits="userSpaceOnUse" color-interpolation-filters="sRGB">
<feFlood flood-opacity="0" result="BackgroundImageFix"/>
<feBlend mode="normal" in="SourceGraphic" in2="BackgroundImageFix" result="shape"/>
<feColorMatrix in="SourceAlpha" type="matrix" values="0 0 0 0 0 0 0 0 0 0 0 0 0 0 0 0 0 0 127 0" result="hardAlpha"/>
<feOffset dy="1"/>
<feGaussianBlur stdDeviation="31.5"/>
<feComposite in2="hardAlpha" operator="arithmetic" k2="-1" k3="1"/>
<feColorMatrix type="matrix" values="0 0 0 0 0.955828 0 0 0 0 0.936623 0 0 0 0 1 0 0 0 0.2 0"/>
<feBlend mode="normal" in2="shape" result="effect1_innerShadow_68_22763"/>
</filter>
<filter id="filter15_i_68_22763" x="431" y="83" width="65" height="41" filterUnits="userSpaceOnUse" color-interpolation-filters="sRGB">
<feFlood flood-opacity="0" result="BackgroundImageFix"/>
<feBlend mode="normal" in="SourceGraphic" in2="BackgroundImageFix" result="shape"/>
<feColorMatrix in="SourceAlpha" type="matrix" values="0 0 0 0 0 0 0 0 0 0 0 0 0 0 0 0 0 0 127 0" result="hardAlpha"/>
<feOffset dy="1"/>
<feGaussianBlur stdDeviation="31.5"/>
<feComposite in2="hardAlpha" operator="arithmetic" k2="-1" k3="1"/>
<feColorMatrix type="matrix" values="0 0 0 0 0.955828 0 0 0 0 0.936623 0 0 0 0 1 0 0 0 0.2 0"/>
<feBlend mode="normal" in2="shape" result="effect1_innerShadow_68_22763"/>
</filter>
<filter id="filter16_i_68_22763" x="431" y="143" width="65" height="41" filterUnits="userSpaceOnUse" color-interpolation-filters="sRGB">
<feFlood flood-opacity="0" result="BackgroundImageFix"/>
<feBlend mode="normal" in="SourceGraphic" in2="BackgroundImageFix" result="shape"/>
<feColorMatrix in="SourceAlpha" type="matrix" values="0 0 0 0 0 0 0 0 0 0 0 0 0 0 0 0 0 0 127 0" result="hardAlpha"/>
<feOffset dy="1"/>
<feGaussianBlur stdDeviation="31.5"/>
<feComposite in2="hardAlpha" operator="arithmetic" k2="-1" k3="1"/>
<feColorMatrix type="matrix" values="0 0 0 0 0.955828 0 0 0 0 0.936623 0 0 0 0 1 0 0 0 0.2 0"/>
<feBlend mode="normal" in2="shape" result="effect1_innerShadow_68_22763"/>
</filter>
<linearGradient id="paint0_linear_68_22763" x1="441.635" y1="13.2336" x2="428.96" y2="81.601" gradientUnits="userSpaceOnUse">
<stop stop-color="#6246FF"/>
<stop offset="1" stop-color="#FFB9B9"/>
</linearGradient>
<linearGradient id="paint1_linear_68_22763" x1="441.635" y1="73.2336" x2="428.96" y2="141.601" gradientUnits="userSpaceOnUse">
<stop stop-color="#FFA346"/>
<stop offset="1" stop-color="#F2E32E"/>
</linearGradient>
<linearGradient id="paint2_linear_68_22763" x1="442.703" y1="133.432" x2="430.284" y2="200.413" gradientUnits="userSpaceOnUse">
<stop stop-color="#3B3B3B"/>
<stop offset="1" stop-color="#767676"/>
</linearGradient>
</defs>
</svg>
