<svg width="21" height="20" viewBox="0 0 21 20" fill="none" xmlns="http://www.w3.org/2000/svg">
<path d="M10.3516 20C4.82856 20 0.351562 15.523 0.351562 10C0.351562 4.477 4.82856 0 10.3516 0C15.8746 0 20.3516 4.477 20.3516 10C20.3516 15.523 15.8746 20 10.3516 20ZM10.3516 18C12.4733 18 14.5081 17.1571 16.0084 15.6569C17.5087 14.1566 18.3516 12.1217 18.3516 10C18.3516 7.87827 17.5087 5.84344 16.0084 4.34315C14.5081 2.84285 12.4733 2 10.3516 2C8.22983 2 6.195 2.84285 4.69471 4.34315C3.19442 5.84344 2.35156 7.87827 2.35156 10C2.35156 12.1217 3.19442 14.1566 4.69471 15.6569C6.195 17.1571 8.22983 18 10.3516 18ZM5.35156 11H7.35156C7.35156 11.7956 7.66763 12.5587 8.23024 13.1213C8.79285 13.6839 9.55591 14 10.3516 14C11.1472 14 11.9103 13.6839 12.4729 13.1213C13.0355 12.5587 13.3516 11.7956 13.3516 11H15.3516C15.3516 12.3261 14.8248 13.5979 13.8871 14.5355C12.9494 15.4732 11.6776 16 10.3516 16C9.02548 16 7.75371 15.4732 6.81603 14.5355C5.87835 13.5979 5.35156 12.3261 5.35156 11ZM6.35156 9C5.95374 9 5.57221 8.84196 5.2909 8.56066C5.0096 8.27936 4.85156 7.89782 4.85156 7.5C4.85156 7.10218 5.0096 6.72064 5.2909 6.43934C5.57221 6.15804 5.95374 6 6.35156 6C6.74939 6 7.13092 6.15804 7.41222 6.43934C7.69353 6.72064 7.85156 7.10218 7.85156 7.5C7.85156 7.89782 7.69353 8.27936 7.41222 8.56066C7.13092 8.84196 6.74939 9 6.35156 9ZM14.3516 9C13.9537 9 13.5722 8.84196 13.2909 8.56066C13.0096 8.27936 12.8516 7.89782 12.8516 7.5C12.8516 7.10218 13.0096 6.72064 13.2909 6.43934C13.5722 6.15804 13.9537 6 14.3516 6C14.7494 6 15.1309 6.15804 15.4122 6.43934C15.6935 6.72064 15.8516 7.10218 15.8516 7.5C15.8516 7.89782 15.6935 8.27936 15.4122 8.56066C15.1309 8.84196 14.7494 9 14.3516 9Z" fill="#3F3F44" fill-opacity="0.2"/>
</svg>
