<svg width="60" height="38" viewBox="0 0 60 38" fill="none" xmlns="http://www.w3.org/2000/svg">
<path d="M38.12 34.0363H21.9023V4.89087H38.1203L38.12 34.0363Z" fill="#FF5F00"/>
<path d="M22.931 19.4641C22.931 13.5519 25.6992 8.28536 30.0099 4.89136C26.7469 2.31849 22.7112 0.922103 18.5559 0.928243C8.31991 0.928243 0.0224609 9.22689 0.0224609 19.4641C0.0224609 29.7013 8.31991 37.9999 18.5559 37.9999C22.7113 38.0061 26.7472 36.6097 30.0102 34.0368C25.6998 30.6434 22.931 25.3765 22.931 19.4641Z" fill="#EB001B"/>
<path d="M59.9999 19.4641C59.9999 29.7013 51.7025 37.9999 41.4665 37.9999C37.3107 38.006 33.2744 36.6096 30.0107 34.0368C34.3226 30.6428 37.0908 25.3765 37.0908 19.4641C37.0908 13.5516 34.3226 8.28536 30.0107 4.89136C33.2743 2.31857 37.3105 0.922211 41.4662 0.928242C51.7022 0.928242 59.9996 9.22689 59.9996 19.4641" fill="#F79E1B"/>
</svg>
