<svg width="77" height="160" viewBox="0 0 77 160" fill="none" xmlns="http://www.w3.org/2000/svg">
<g filter="url(#filter0_i_68_22802)">
<rect width="65" height="40" rx="3" fill="url(#paint0_linear_68_22802)"/>
</g>
<path d="M12.4688 14.3438V15.4473H7.34668L7.27832 14.5928L10.2422 9.89062H11.3604L10.1494 11.917L8.6748 14.3438H12.4688ZM11.6631 9.89062V17H10.2568V9.89062H11.6631ZM18.2109 14.3438V15.4473H13.0889L13.0205 14.5928L15.9844 9.89062H17.1025L15.8916 11.917L14.417 14.3438H18.2109ZM17.4053 9.89062V17H15.999V9.89062H17.4053ZM20.2959 13.7627L19.1729 13.4941L19.5781 9.89062H23.5723V11.0283H20.7354L20.5596 12.6055C20.654 12.5501 20.7972 12.4915 20.9893 12.4297C21.1813 12.3646 21.3962 12.332 21.6338 12.332C21.9788 12.332 22.2848 12.3857 22.5518 12.4932C22.8187 12.6006 23.0449 12.7568 23.2305 12.9619C23.4193 13.167 23.5625 13.4176 23.6602 13.7139C23.7578 14.0101 23.8066 14.3454 23.8066 14.7197C23.8066 15.0355 23.7578 15.3366 23.6602 15.623C23.5625 15.9062 23.4144 16.1602 23.2158 16.3848C23.0173 16.6061 22.7682 16.7803 22.4688 16.9072C22.1693 17.0342 21.8145 17.0977 21.4043 17.0977C21.0983 17.0977 20.8021 17.0521 20.5156 16.9609C20.2324 16.8698 19.9769 16.7347 19.749 16.5557C19.5244 16.3766 19.3438 16.1602 19.207 15.9062C19.0736 15.6491 19.0036 15.3561 18.9971 15.0273H20.3936C20.4131 15.2292 20.4652 15.4033 20.5498 15.5498C20.6377 15.693 20.7533 15.8037 20.8965 15.8818C21.0397 15.96 21.2074 15.999 21.3994 15.999C21.5785 15.999 21.7314 15.9648 21.8584 15.8965C21.9854 15.8281 22.0879 15.7337 22.166 15.6133C22.2441 15.4896 22.3011 15.3464 22.3369 15.1836C22.376 15.0176 22.3955 14.8385 22.3955 14.6465C22.3955 14.4544 22.3727 14.2803 22.3271 14.124C22.2816 13.9678 22.2116 13.8327 22.1172 13.7188C22.0228 13.6048 21.9023 13.5169 21.7559 13.4551C21.6126 13.3932 21.445 13.3623 21.2529 13.3623C20.9925 13.3623 20.7907 13.403 20.6475 13.4844C20.5075 13.5658 20.3903 13.6585 20.2959 13.7627ZM28.3428 9.81738H28.5479V10.9404H28.4648C28.0938 10.9404 27.7633 10.9958 27.4736 11.1064C27.1839 11.2171 26.9382 11.375 26.7363 11.5801C26.5378 11.7819 26.3848 12.026 26.2773 12.3125C26.1732 12.599 26.1211 12.9196 26.1211 13.2744V14.4561C26.1211 14.71 26.1455 14.9346 26.1943 15.1299C26.2464 15.3219 26.3197 15.4831 26.4141 15.6133C26.5117 15.7402 26.6257 15.8363 26.7559 15.9014C26.8861 15.9632 27.0326 15.9941 27.1953 15.9941C27.3483 15.9941 27.4867 15.9616 27.6104 15.8965C27.7373 15.8314 27.8447 15.7402 27.9326 15.623C28.0238 15.5026 28.0921 15.3626 28.1377 15.2031C28.1865 15.0404 28.2109 14.863 28.2109 14.6709C28.2109 14.4788 28.1865 14.3014 28.1377 14.1387C28.0921 13.9759 28.0238 13.8359 27.9326 13.7188C27.8415 13.5983 27.7308 13.5055 27.6006 13.4404C27.4704 13.3753 27.3239 13.3428 27.1611 13.3428C26.9398 13.3428 26.7445 13.3949 26.5752 13.499C26.4092 13.5999 26.279 13.7301 26.1846 13.8896C26.0902 14.0492 26.0397 14.2168 26.0332 14.3926L25.6084 14.1191C25.6182 13.8685 25.6702 13.6309 25.7646 13.4062C25.8623 13.1816 25.9958 12.9831 26.165 12.8105C26.3376 12.6348 26.5443 12.498 26.7852 12.4004C27.026 12.2995 27.2979 12.249 27.6006 12.249C27.9326 12.249 28.224 12.3125 28.4746 12.4395C28.7285 12.5664 28.9401 12.7406 29.1094 12.9619C29.2786 13.1833 29.4056 13.4388 29.4902 13.7285C29.5749 14.0182 29.6172 14.3275 29.6172 14.6562C29.6172 15.0013 29.5602 15.3219 29.4463 15.6182C29.3356 15.9144 29.1745 16.1732 28.9629 16.3945C28.7546 16.6159 28.5039 16.7884 28.2109 16.9121C27.918 17.0358 27.5892 17.0977 27.2246 17.0977C26.847 17.0977 26.5036 17.0293 26.1943 16.8926C25.8883 16.7526 25.6247 16.5573 25.4033 16.3066C25.182 16.056 25.0111 15.7581 24.8906 15.4131C24.7734 15.068 24.7148 14.6904 24.7148 14.2803V13.7334C24.7148 13.1605 24.7979 12.6364 24.9639 12.1611C25.1331 11.6826 25.3757 11.2692 25.6914 10.9209C26.0072 10.5693 26.388 10.2975 26.834 10.1055C27.2799 9.91341 27.7829 9.81738 28.3428 9.81738Z" fill="white"/>
<path d="M50.6536 32.7454H44.416V21.5356H50.6537L50.6536 32.7454Z" fill="#FF5F00"/>
<path d="M44.811 27.1406C44.811 24.8667 45.8757 22.8411 47.5336 21.5358C46.2786 20.5462 44.7264 20.0091 43.1282 20.0115C39.1913 20.0115 36 23.2033 36 27.1406C36 31.078 39.1913 34.2698 43.1282 34.2698C44.7265 34.2722 46.2787 33.7351 47.5337 32.7455C45.8759 31.4404 44.811 29.4147 44.811 27.1406Z" fill="#EB001B"/>
<path d="M59.0675 27.1406C59.0675 31.078 55.8762 34.2698 51.9393 34.2698C50.3409 34.2722 48.7884 33.7351 47.5332 32.7455C49.1916 31.4402 50.2563 29.4147 50.2563 27.1406C50.2563 24.8666 49.1916 22.8411 47.5332 21.5358C48.7884 20.5462 50.3408 20.0092 51.9392 20.0115C55.8761 20.0115 59.0674 23.2033 59.0674 27.1406" fill="#F79E1B"/>
<rect x="75" width="2" height="40" rx="1" fill="#FF6633"/>
<g filter="url(#filter1_i_68_22802)">
<rect y="60" width="65" height="40" rx="3" fill="url(#paint1_linear_68_22802)"/>
</g>
<path d="M11.1162 69.8174H11.3213V70.9404H11.2383C10.8672 70.9404 10.5368 70.9958 10.2471 71.1064C9.95736 71.2171 9.71159 71.375 9.50977 71.5801C9.3112 71.7819 9.1582 72.026 9.05078 72.3125C8.94661 72.599 8.89453 72.9196 8.89453 73.2744V74.4561C8.89453 74.71 8.91895 74.9346 8.96777 75.1299C9.01986 75.3219 9.0931 75.4831 9.1875 75.6133C9.28516 75.7402 9.39909 75.8363 9.5293 75.9014C9.65951 75.9632 9.80599 75.9941 9.96875 75.9941C10.1217 75.9941 10.2601 75.9616 10.3838 75.8965C10.5107 75.8314 10.6182 75.7402 10.7061 75.623C10.7972 75.5026 10.8656 75.3626 10.9111 75.2031C10.96 75.0404 10.9844 74.863 10.9844 74.6709C10.9844 74.4788 10.96 74.3014 10.9111 74.1387C10.8656 73.9759 10.7972 73.8359 10.7061 73.7188C10.6149 73.5983 10.5042 73.5055 10.374 73.4404C10.2438 73.3753 10.0973 73.3428 9.93457 73.3428C9.71322 73.3428 9.5179 73.3949 9.34863 73.499C9.18262 73.5999 9.05241 73.7301 8.95801 73.8896C8.86361 74.0492 8.81315 74.2168 8.80664 74.3926L8.38184 74.1191C8.3916 73.8685 8.44368 73.6309 8.53809 73.4062C8.63574 73.1816 8.76921 72.9831 8.93848 72.8105C9.111 72.6348 9.31771 72.498 9.55859 72.4004C9.79948 72.2995 10.0713 72.249 10.374 72.249C10.7061 72.249 10.9974 72.3125 11.248 72.4395C11.502 72.5664 11.7135 72.7406 11.8828 72.9619C12.0521 73.1833 12.179 73.4388 12.2637 73.7285C12.3483 74.0182 12.3906 74.3275 12.3906 74.6562C12.3906 75.0013 12.3337 75.3219 12.2197 75.6182C12.109 75.9144 11.9479 76.1732 11.7363 76.3945C11.528 76.6159 11.2773 76.7884 10.9844 76.9121C10.6914 77.0358 10.3626 77.0977 9.99805 77.0977C9.62044 77.0977 9.27702 77.0293 8.96777 76.8926C8.66178 76.7526 8.39811 76.5573 8.17676 76.3066C7.9554 76.056 7.78451 75.7581 7.66406 75.4131C7.54688 75.068 7.48828 74.6904 7.48828 74.2803V73.7334C7.48828 73.1605 7.57129 72.6364 7.7373 72.1611C7.90658 71.6826 8.14909 71.2692 8.46484 70.9209C8.7806 70.5693 9.16146 70.2975 9.60742 70.1055C10.0534 69.9134 10.5563 69.8174 11.1162 69.8174ZM18.0596 69.8906V70.6475L15.3105 77H13.8262L16.5752 70.9893H13.0352V69.8906H18.0596ZM20.2959 73.7627L19.1729 73.4941L19.5781 69.8906H23.5723V71.0283H20.7354L20.5596 72.6055C20.654 72.5501 20.7972 72.4915 20.9893 72.4297C21.1813 72.3646 21.3962 72.332 21.6338 72.332C21.9788 72.332 22.2848 72.3857 22.5518 72.4932C22.8187 72.6006 23.0449 72.7568 23.2305 72.9619C23.4193 73.167 23.5625 73.4176 23.6602 73.7139C23.7578 74.0101 23.8066 74.3454 23.8066 74.7197C23.8066 75.0355 23.7578 75.3366 23.6602 75.623C23.5625 75.9062 23.4144 76.1602 23.2158 76.3848C23.0173 76.6061 22.7682 76.7803 22.4688 76.9072C22.1693 77.0342 21.8145 77.0977 21.4043 77.0977C21.0983 77.0977 20.8021 77.0521 20.5156 76.9609C20.2324 76.8698 19.9769 76.7347 19.749 76.5557C19.5244 76.3766 19.3438 76.1602 19.207 75.9062C19.0736 75.6491 19.0036 75.3561 18.9971 75.0273H20.3936C20.4131 75.2292 20.4652 75.4033 20.5498 75.5498C20.6377 75.693 20.7533 75.8037 20.8965 75.8818C21.0397 75.96 21.2074 75.999 21.3994 75.999C21.5785 75.999 21.7314 75.9648 21.8584 75.8965C21.9854 75.8281 22.0879 75.7337 22.166 75.6133C22.2441 75.4896 22.3011 75.3464 22.3369 75.1836C22.376 75.0176 22.3955 74.8385 22.3955 74.6465C22.3955 74.4544 22.3727 74.2803 22.3271 74.124C22.2816 73.9678 22.2116 73.8327 22.1172 73.7188C22.0228 73.6048 21.9023 73.5169 21.7559 73.4551C21.6126 73.3932 21.445 73.3623 21.2529 73.3623C20.9925 73.3623 20.7907 73.403 20.6475 73.4844C20.5075 73.5658 20.3903 73.6585 20.2959 73.7627ZM26.1553 72.835H26.9072C27.1481 72.835 27.3467 72.7943 27.5029 72.7129C27.6592 72.6283 27.7747 72.5111 27.8496 72.3613C27.9277 72.2083 27.9668 72.0309 27.9668 71.8291C27.9668 71.6468 27.931 71.4857 27.8594 71.3457C27.791 71.2025 27.6852 71.0918 27.542 71.0137C27.3988 70.9323 27.2181 70.8916 27 70.8916C26.8275 70.8916 26.668 70.9258 26.5215 70.9941C26.375 71.0625 26.2578 71.1585 26.1699 71.2822C26.082 71.4059 26.0381 71.5557 26.0381 71.7314H24.627C24.627 71.3408 24.7311 71.0007 24.9395 70.7109C25.151 70.4212 25.4342 70.195 25.7891 70.0322C26.1439 69.8695 26.5345 69.7881 26.9609 69.7881C27.4427 69.7881 27.8643 69.8662 28.2256 70.0225C28.5869 70.1755 28.8685 70.4017 29.0703 70.7012C29.2721 71.0007 29.373 71.3717 29.373 71.8145C29.373 72.0391 29.321 72.2572 29.2168 72.4688C29.1126 72.6771 28.9629 72.8659 28.7676 73.0352C28.5755 73.2012 28.3411 73.3346 28.0645 73.4355C27.7878 73.5332 27.4769 73.582 27.1318 73.582H26.1553V72.835ZM26.1553 73.9043V73.1768H27.1318C27.5192 73.1768 27.8594 73.2207 28.1523 73.3086C28.4453 73.3965 28.6911 73.5234 28.8896 73.6895C29.0882 73.8522 29.238 74.0459 29.3389 74.2705C29.4398 74.4919 29.4902 74.7376 29.4902 75.0078C29.4902 75.3398 29.4268 75.6361 29.2998 75.8965C29.1729 76.1536 28.9938 76.3717 28.7627 76.5508C28.5348 76.7298 28.2679 76.8665 27.9619 76.9609C27.6559 77.0521 27.3223 77.0977 26.9609 77.0977C26.6615 77.0977 26.3669 77.057 26.0771 76.9756C25.7907 76.891 25.5303 76.7656 25.2959 76.5996C25.0648 76.4303 24.8792 76.2188 24.7393 75.9648C24.6025 75.7077 24.5342 75.4033 24.5342 75.0518H25.9453C25.9453 75.234 25.9909 75.3968 26.082 75.54C26.1732 75.6833 26.2985 75.7956 26.458 75.877C26.6208 75.9583 26.8014 75.999 27 75.999C27.2246 75.999 27.4167 75.9583 27.5762 75.877C27.7389 75.7923 27.8626 75.6751 27.9473 75.5254C28.0352 75.3724 28.0791 75.195 28.0791 74.9932C28.0791 74.7327 28.0319 74.5244 27.9375 74.3682C27.8431 74.2087 27.708 74.0915 27.5322 74.0166C27.3564 73.9417 27.1481 73.9043 26.9072 73.9043H26.1553Z" fill="white"/>
<path d="M50.6536 92.7454H44.416V81.5356H50.6537L50.6536 92.7454Z" fill="#FF5F00"/>
<path d="M44.811 87.1406C44.811 84.8667 45.8757 82.8411 47.5336 81.5358C46.2786 80.5462 44.7264 80.0091 43.1282 80.0115C39.1913 80.0115 36 83.2033 36 87.1406C36 91.078 39.1913 94.2698 43.1282 94.2698C44.7265 94.2722 46.2787 93.7351 47.5337 92.7455C45.8759 91.4404 44.811 89.4147 44.811 87.1406Z" fill="#EB001B"/>
<path d="M59.0675 87.1406C59.0675 91.078 55.8762 94.2698 51.9393 94.2698C50.3409 94.2722 48.7884 93.7351 47.5332 92.7455C49.1916 91.4402 50.2563 89.4147 50.2563 87.1406C50.2563 84.8666 49.1916 82.8411 47.5332 81.5358C48.7884 80.5462 50.3408 80.0092 51.9392 80.0115C55.8761 80.0115 59.0674 83.2033 59.0674 87.1406" fill="#F79E1B"/>
<g filter="url(#filter2_i_68_22802)">
<rect y="120" width="65" height="40" rx="3" fill="url(#paint2_linear_68_22802)"/>
</g>
<path d="M45.3411 152.61H43.3945L44.6111 145.134H46.5579L45.3411 152.61Z" fill="white"/>
<path d="M41.7576 145.134L39.9018 150.276L39.6822 149.169L39.6824 149.169L39.0274 145.807C39.0274 145.807 38.9482 145.134 38.104 145.134H35.036L35 145.26C35 145.26 35.9382 145.455 37.0362 146.115L38.7274 152.611H40.7556L43.8526 145.134H41.7576Z" fill="white"/>
<path fill-rule="evenodd" clip-rule="evenodd" d="M58.8566 152.61H57.0692L56.8412 151.5H54.3666L53.9608 152.61H51.9316L54.8348 145.691C54.8348 145.691 55.0108 145.133 55.7334 145.133H57.2982L58.8566 152.61ZM55.9505 147.167L54.9277 149.965H56.5259L55.9505 147.167Z" fill="white"/>
<path d="M52.083 146.932L52.3608 145.326C52.3608 145.326 51.5036 145 50.61 145C49.644 145 47.35 145.422 47.35 147.475C47.35 149.407 50.0424 149.431 50.0424 150.445C50.0424 151.46 47.6274 151.278 46.8304 150.638L46.541 152.317C46.541 152.317 47.4102 152.739 48.7382 152.739C50.0666 152.739 52.0706 152.052 52.0706 150.18C52.0706 148.236 49.354 148.055 49.354 147.209C49.3542 146.364 51.25 146.473 52.083 146.932Z" fill="white"/>
<path d="M39.6824 149.169L39.0274 145.807C39.0274 145.807 38.9482 145.133 38.104 145.133H35.036L35 145.26C35 145.26 36.4746 145.566 37.889 146.711C39.2414 147.805 39.6824 149.169 39.6824 149.169Z" fill="white"/>
<path d="M8.48438 135.931H8.57715C8.96777 135.931 9.30306 135.883 9.58301 135.789C9.86621 135.691 10.099 135.551 10.2812 135.369C10.4635 135.187 10.5986 134.964 10.6865 134.7C10.7744 134.433 10.8184 134.131 10.8184 133.792V132.444C10.8184 132.187 10.7923 131.961 10.7402 131.766C10.6914 131.57 10.6198 131.409 10.5254 131.282C10.4342 131.152 10.3268 131.054 10.2031 130.989C10.0827 130.924 9.94922 130.892 9.80273 130.892C9.64648 130.892 9.50814 130.931 9.3877 131.009C9.26725 131.084 9.16471 131.186 9.08008 131.316C8.9987 131.447 8.93522 131.596 8.88965 131.766C8.84733 131.932 8.82617 132.106 8.82617 132.288C8.82617 132.47 8.84733 132.645 8.88965 132.811C8.93197 132.973 8.99544 133.118 9.08008 133.245C9.16471 133.369 9.27051 133.468 9.39746 133.543C9.52441 133.615 9.67415 133.65 9.84668 133.65C10.0127 133.65 10.1608 133.619 10.291 133.558C10.4245 133.493 10.5368 133.408 10.6279 133.304C10.7223 133.2 10.7939 133.084 10.8428 132.957C10.8949 132.83 10.9209 132.701 10.9209 132.571L11.3848 132.825C11.3848 133.053 11.3359 133.278 11.2383 133.499C11.1406 133.72 11.0039 133.922 10.8281 134.104C10.6556 134.284 10.4554 134.427 10.2275 134.534C9.99967 134.642 9.75553 134.695 9.49512 134.695C9.16309 134.695 8.86849 134.635 8.61133 134.515C8.35417 134.391 8.13607 134.222 7.95703 134.007C7.78125 133.789 7.64779 133.535 7.55664 133.245C7.46549 132.955 7.41992 132.641 7.41992 132.303C7.41992 131.958 7.47526 131.634 7.58594 131.331C7.69987 131.028 7.861 130.761 8.06934 130.53C8.28092 130.299 8.5332 130.118 8.82617 129.988C9.1224 129.855 9.45117 129.788 9.8125 129.788C10.1738 129.788 10.5026 129.858 10.7988 129.998C11.0951 130.138 11.349 130.337 11.5605 130.594C11.7721 130.848 11.9349 131.152 12.0488 131.507C12.166 131.862 12.2246 132.256 12.2246 132.688V133.177C12.2246 133.639 12.1742 134.069 12.0732 134.466C11.9756 134.863 11.8275 135.223 11.6289 135.545C11.4336 135.864 11.1895 136.137 10.8965 136.365C10.6068 136.593 10.2699 136.767 9.88574 136.888C9.50163 137.008 9.07194 137.068 8.59668 137.068H8.48438V135.931ZM18.0205 135.052C18.0205 135.498 17.9163 135.874 17.708 136.18C17.4997 136.482 17.2132 136.712 16.8486 136.868C16.4873 137.021 16.0771 137.098 15.6182 137.098C15.1592 137.098 14.7474 137.021 14.3828 136.868C14.0182 136.712 13.7301 136.482 13.5186 136.18C13.307 135.874 13.2012 135.498 13.2012 135.052C13.2012 134.752 13.2614 134.482 13.3818 134.241C13.5023 133.997 13.6699 133.789 13.8848 133.616C14.1029 133.44 14.3584 133.307 14.6514 133.216C14.9443 133.121 15.2633 133.074 15.6084 133.074C16.0706 133.074 16.484 133.156 16.8486 133.318C17.2132 133.481 17.4997 133.711 17.708 134.007C17.9163 134.303 18.0205 134.651 18.0205 135.052ZM16.6045 134.959C16.6045 134.741 16.5622 134.554 16.4775 134.397C16.3962 134.238 16.2806 134.116 16.1309 134.031C15.9811 133.947 15.807 133.904 15.6084 133.904C15.4098 133.904 15.2357 133.947 15.0859 134.031C14.9362 134.116 14.819 134.238 14.7344 134.397C14.653 134.554 14.6123 134.741 14.6123 134.959C14.6123 135.174 14.653 135.359 14.7344 135.516C14.819 135.672 14.9362 135.792 15.0859 135.877C15.2389 135.958 15.4163 135.999 15.6182 135.999C15.82 135.999 15.9941 135.958 16.1406 135.877C16.2904 135.792 16.4043 135.672 16.4824 135.516C16.5638 135.359 16.6045 135.174 16.6045 134.959ZM17.8691 131.775C17.8691 132.137 17.7731 132.457 17.5811 132.737C17.389 133.014 17.1221 133.23 16.7803 133.387C16.4417 133.543 16.0544 133.621 15.6182 133.621C15.1787 133.621 14.7881 133.543 14.4463 133.387C14.1045 133.23 13.8376 133.014 13.6455 132.737C13.4535 132.457 13.3574 132.137 13.3574 131.775C13.3574 131.346 13.4535 130.984 13.6455 130.691C13.8408 130.395 14.1077 130.171 14.4463 130.018C14.7881 129.865 15.1755 129.788 15.6084 129.788C16.0479 129.788 16.4368 129.865 16.7754 130.018C17.1172 130.171 17.3841 130.395 17.5762 130.691C17.7715 130.984 17.8691 131.346 17.8691 131.775ZM16.4629 131.839C16.4629 131.647 16.4287 131.481 16.3604 131.341C16.292 131.198 16.1943 131.087 16.0674 131.009C15.9437 130.931 15.7907 130.892 15.6084 130.892C15.4326 130.892 15.2812 130.929 15.1543 131.004C15.0306 131.079 14.9346 131.188 14.8662 131.331C14.8011 131.471 14.7686 131.64 14.7686 131.839C14.7686 132.031 14.8011 132.2 14.8662 132.347C14.9346 132.49 15.0322 132.602 15.1592 132.684C15.2861 132.765 15.4391 132.806 15.6182 132.806C15.7972 132.806 15.9486 132.765 16.0723 132.684C16.1992 132.602 16.2952 132.49 16.3604 132.347C16.4287 132.2 16.4629 132.031 16.4629 131.839ZM23.8018 129.891V130.647L21.0527 137H19.5684L22.3174 130.989H18.7773V129.891H23.8018ZM26.0381 133.763L24.915 133.494L25.3203 129.891H29.3145V131.028H26.4775L26.3018 132.605C26.3962 132.55 26.5394 132.492 26.7314 132.43C26.9235 132.365 27.1383 132.332 27.376 132.332C27.721 132.332 28.027 132.386 28.2939 132.493C28.5609 132.601 28.7871 132.757 28.9727 132.962C29.1615 133.167 29.3047 133.418 29.4023 133.714C29.5 134.01 29.5488 134.345 29.5488 134.72C29.5488 135.035 29.5 135.337 29.4023 135.623C29.3047 135.906 29.1566 136.16 28.958 136.385C28.7594 136.606 28.5104 136.78 28.2109 136.907C27.9115 137.034 27.5566 137.098 27.1465 137.098C26.8405 137.098 26.5443 137.052 26.2578 136.961C25.9746 136.87 25.7191 136.735 25.4912 136.556C25.2666 136.377 25.0859 136.16 24.9492 135.906C24.8158 135.649 24.7458 135.356 24.7393 135.027H26.1357C26.1553 135.229 26.2074 135.403 26.292 135.55C26.3799 135.693 26.4954 135.804 26.6387 135.882C26.7819 135.96 26.9495 135.999 27.1416 135.999C27.3206 135.999 27.4736 135.965 27.6006 135.896C27.7275 135.828 27.8301 135.734 27.9082 135.613C27.9863 135.49 28.0433 135.346 28.0791 135.184C28.1182 135.018 28.1377 134.839 28.1377 134.646C28.1377 134.454 28.1149 134.28 28.0693 134.124C28.0238 133.968 27.9538 133.833 27.8594 133.719C27.765 133.605 27.6445 133.517 27.498 133.455C27.3548 133.393 27.1872 133.362 26.9951 133.362C26.7347 133.362 26.5329 133.403 26.3896 133.484C26.2497 133.566 26.1325 133.659 26.0381 133.763Z" fill="white"/>
<defs>
<filter id="filter0_i_68_22802" x="0" y="0" width="65" height="41" filterUnits="userSpaceOnUse" color-interpolation-filters="sRGB">
<feFlood flood-opacity="0" result="BackgroundImageFix"/>
<feBlend mode="normal" in="SourceGraphic" in2="BackgroundImageFix" result="shape"/>
<feColorMatrix in="SourceAlpha" type="matrix" values="0 0 0 0 0 0 0 0 0 0 0 0 0 0 0 0 0 0 127 0" result="hardAlpha"/>
<feOffset dy="1"/>
<feGaussianBlur stdDeviation="31.5"/>
<feComposite in2="hardAlpha" operator="arithmetic" k2="-1" k3="1"/>
<feColorMatrix type="matrix" values="0 0 0 0 0.955828 0 0 0 0 0.936623 0 0 0 0 1 0 0 0 0.2 0"/>
<feBlend mode="normal" in2="shape" result="effect1_innerShadow_68_22802"/>
</filter>
<filter id="filter1_i_68_22802" x="0" y="60" width="65" height="41" filterUnits="userSpaceOnUse" color-interpolation-filters="sRGB">
<feFlood flood-opacity="0" result="BackgroundImageFix"/>
<feBlend mode="normal" in="SourceGraphic" in2="BackgroundImageFix" result="shape"/>
<feColorMatrix in="SourceAlpha" type="matrix" values="0 0 0 0 0 0 0 0 0 0 0 0 0 0 0 0 0 0 127 0" result="hardAlpha"/>
<feOffset dy="1"/>
<feGaussianBlur stdDeviation="31.5"/>
<feComposite in2="hardAlpha" operator="arithmetic" k2="-1" k3="1"/>
<feColorMatrix type="matrix" values="0 0 0 0 0.955828 0 0 0 0 0.936623 0 0 0 0 1 0 0 0 0.2 0"/>
<feBlend mode="normal" in2="shape" result="effect1_innerShadow_68_22802"/>
</filter>
<filter id="filter2_i_68_22802" x="0" y="120" width="65" height="41" filterUnits="userSpaceOnUse" color-interpolation-filters="sRGB">
<feFlood flood-opacity="0" result="BackgroundImageFix"/>
<feBlend mode="normal" in="SourceGraphic" in2="BackgroundImageFix" result="shape"/>
<feColorMatrix in="SourceAlpha" type="matrix" values="0 0 0 0 0 0 0 0 0 0 0 0 0 0 0 0 0 0 127 0" result="hardAlpha"/>
<feOffset dy="1"/>
<feGaussianBlur stdDeviation="31.5"/>
<feComposite in2="hardAlpha" operator="arithmetic" k2="-1" k3="1"/>
<feColorMatrix type="matrix" values="0 0 0 0 0.955828 0 0 0 0 0.936623 0 0 0 0 1 0 0 0 0.2 0"/>
<feBlend mode="normal" in2="shape" result="effect1_innerShadow_68_22802"/>
</filter>
<linearGradient id="paint0_linear_68_22802" x1="10.6351" y1="-9.76644" x2="-2.04046" y2="58.601" gradientUnits="userSpaceOnUse">
<stop stop-color="#6246FF"/>
<stop offset="1" stop-color="#FFB9B9"/>
</linearGradient>
<linearGradient id="paint1_linear_68_22802" x1="10.6351" y1="50.2336" x2="-2.04046" y2="118.601" gradientUnits="userSpaceOnUse">
<stop stop-color="#FFA346"/>
<stop offset="1" stop-color="#F2E32E"/>
</linearGradient>
<linearGradient id="paint2_linear_68_22802" x1="11.7029" y1="110.432" x2="-0.715751" y2="177.413" gradientUnits="userSpaceOnUse">
<stop stop-color="#3B3B3B"/>
<stop offset="1" stop-color="#767676"/>
</linearGradient>
</defs>
</svg>
