<svg width="18" height="20" viewBox="0 0 18 20" fill="none" xmlns="http://www.w3.org/2000/svg">
<path d="M12.1789 5.75689L6.52287 11.4139C6.42736 11.5061 6.35118 11.6165 6.29877 11.7385C6.24636 11.8605 6.21878 11.9917 6.21762 12.1245C6.21647 12.2573 6.24177 12.3889 6.29205 12.5118C6.34233 12.6347 6.41659 12.7464 6.51048 12.8403C6.60437 12.9342 6.71602 13.0084 6.83892 13.0587C6.96181 13.109 7.0935 13.1343 7.22627 13.1331C7.35905 13.132 7.49027 13.1044 7.61228 13.052C7.73428 12.9996 7.84463 12.9234 7.93687 12.8279L13.5939 7.17189C14.1565 6.60923 14.4726 5.8461 14.4726 5.05039C14.4726 4.25467 14.1565 3.49154 13.5939 2.92889C13.0312 2.36623 12.2681 2.05013 11.4724 2.05013C10.6767 2.05013 9.91353 2.36623 9.35087 2.92889L3.69387 8.58589C3.21995 9.04802 2.8425 9.59965 2.58343 10.2088C2.32436 10.8179 2.18882 11.4724 2.18467 12.1344C2.18052 12.7963 2.30785 13.4525 2.55927 14.0648C2.81069 14.6771 3.18119 15.2334 3.64929 15.7015C4.11738 16.1695 4.67376 16.5399 5.28613 16.7913C5.8985 17.0426 6.55468 17.1698 7.21661 17.1656C7.87854 17.1614 8.53303 17.0257 9.14213 16.7666C9.75123 16.5074 10.3028 16.1299 10.7649 15.6559L16.4219 9.99989L17.8359 11.4139L12.1789 17.0709C11.5288 17.7209 10.7571 18.2366 9.90779 18.5884C9.05847 18.9402 8.14817 19.1212 7.22887 19.1212C6.30957 19.1212 5.39927 18.9402 4.54995 18.5884C3.70063 18.2366 2.92892 17.7209 2.27887 17.0709C1.62883 16.4208 1.11319 15.6491 0.761386 14.7998C0.409585 13.9505 0.228516 13.0402 0.228516 12.1209C0.228516 11.2016 0.409585 10.2913 0.761386 9.44197C1.11319 8.59264 1.62883 7.82093 2.27887 7.17089L7.93687 1.51489C8.87988 0.604097 10.1429 0.100125 11.4539 0.111517C12.7649 0.122909 14.0189 0.648754 14.946 1.57579C15.873 2.50284 16.3988 3.7569 16.4102 5.06788C16.4216 6.37887 15.9177 7.64188 15.0069 8.58489L9.35087 14.2439C9.07221 14.5225 8.7414 14.7435 8.37733 14.8942C8.01326 15.045 7.62306 15.1225 7.22902 15.1225C6.83497 15.1224 6.4448 15.0448 6.08076 14.894C5.71673 14.7431 5.38597 14.5221 5.10737 14.2434C4.82877 13.9647 4.60779 13.6339 4.45704 13.2698C4.30629 12.9058 4.22872 12.5156 4.22877 12.1215C4.22881 11.7275 4.30647 11.3373 4.45731 10.9733C4.60815 10.6092 4.82921 10.2785 5.10787 9.99989L10.7649 4.34289L12.1789 5.75689Z" fill="#3F3F44" fill-opacity="0.2"/>
</svg>
