<svg width="21" height="19" viewBox="0 0 21 19" fill="none" xmlns="http://www.w3.org/2000/svg">
<path d="M3.17956 18L3.15956 18.02L3.13856 18H1.34356C1.08038 17.9997 0.828059 17.895 0.642052 17.7088C0.456045 17.5226 0.351562 17.2702 0.351563 17.007V0.993C0.353393 0.730378 0.458463 0.479017 0.644075 0.293218C0.829688 0.107418 1.08094 0.00209465 1.34356 0H19.3596C19.9076 0 20.3516 0.445 20.3516 0.993V17.007C20.3497 17.2696 20.2447 17.521 20.059 17.7068C19.8734 17.8926 19.6222 17.9979 19.3596 18H3.17956ZM18.3516 12V2H2.35156V16L12.3516 6L18.3516 12ZM18.3516 14.828L12.3516 8.828L5.17956 16H18.3516V14.828ZM6.35156 8C5.82113 8 5.31242 7.78929 4.93735 7.41421C4.56228 7.03914 4.35156 6.53043 4.35156 6C4.35156 5.46957 4.56228 4.96086 4.93735 4.58579C5.31242 4.21071 5.82113 4 6.35156 4C6.882 4 7.3907 4.21071 7.76578 4.58579C8.14085 4.96086 8.35156 5.46957 8.35156 6C8.35156 6.53043 8.14085 7.03914 7.76578 7.41421C7.3907 7.78929 6.882 8 6.35156 8Z" fill="#3F3F44" fill-opacity="0.2"/>
</svg>
