<svg width="38" height="33" viewBox="0 0 38 33" fill="none" xmlns="http://www.w3.org/2000/svg">
<path d="M19.5648 7.38519C19.4895 7.63779 19.6334 7.90324 19.8858 7.97853L19.9357 7.99342L19.9379 7.99094C20.1747 8.03384 20.4096 7.89205 20.4792 7.65718C21.1131 5.52709 23.1103 4.03904 25.3355 4.03904C25.5989 4.03904 25.8125 3.82537 25.8125 3.56195C25.8125 3.29851 25.5989 3.08485 25.3355 3.08485C22.6008 3.08485 20.3027 4.90561 19.5648 7.38519ZM19.5648 7.38519L19.6426 7.40839M19.5648 7.38519C19.5648 7.38521 19.5648 7.38522 19.5648 7.38524L19.6426 7.40839M19.6426 7.40839C19.5801 7.61795 19.6994 7.83825 19.909 7.90075L19.6426 7.40839Z" fill="#A3D154" stroke="#F9FFF9" stroke-width="0.162324"/>
<path d="M30.8781 22.9626H28.5026C28.284 22.9626 28.1067 22.7853 28.1067 22.5667C28.1067 22.3481 28.284 22.1707 28.5026 22.1707H30.8781C34.1527 22.1707 36.817 19.5064 36.817 16.2319C36.817 12.9573 34.1527 10.293 30.8781 10.293H30.821C30.7062 10.293 30.597 10.2432 30.5218 10.1564C30.4466 10.0696 30.4126 9.95448 30.429 9.84079C30.4644 9.59419 30.4822 9.34645 30.4822 9.10523C30.4822 6.26731 28.1731 3.95817 25.3351 3.95817C24.2311 3.95817 23.1782 4.30319 22.2901 4.95618C22.095 5.09956 21.8179 5.03593 21.705 4.82128C19.1901 0.0323021 12.6213 -0.610809 9.21566 3.55518C7.78102 5.31026 7.21734 7.59332 7.66903 9.81847C7.7188 10.0642 7.53073 10.2933 7.28102 10.2933H7.12236C3.84781 10.2933 1.18349 12.9576 1.18349 16.2322C1.18349 19.5067 3.84781 22.1711 7.12236 22.1711H9.49788C9.71649 22.1711 9.89381 22.3484 9.89381 22.567C9.89381 22.7856 9.7165 22.9629 9.49788 22.9629H7.12236C3.4111 22.9629 0.391602 19.9434 0.391602 16.2321C0.391602 12.625 3.24394 9.67138 6.81156 9.50848C6.47644 7.19993 7.11727 4.87132 8.60254 3.05406C12.2487 -1.40659 19.2363 -0.906612 22.1902 4.06734C23.1325 3.47656 24.2108 3.16664 25.335 3.16664C28.7733 3.16664 31.4979 6.09311 31.2595 9.51217C34.7942 9.71042 37.6087 12.6485 37.6087 16.2319C37.6087 19.9434 34.5892 22.9626 30.8779 22.9626L30.8781 22.9626Z" fill="#A3D154"/>
<path d="M8.96767 22.3436C8.96767 27.8463 13.4444 32.323 18.9471 32.323C24.4498 32.323 28.9265 27.8462 28.9265 22.3436C28.9265 16.8408 24.4498 12.3642 18.9471 12.3642C13.4443 12.3642 8.96767 16.8409 8.96767 22.3436ZM9.92202 22.3436C9.92202 17.3673 13.9707 13.3185 18.9471 13.3185C23.9233 13.3185 27.9721 17.3672 27.9721 22.3436C27.9721 27.3198 23.9233 31.3686 18.9471 31.3686C13.9708 31.3686 9.92202 27.3199 9.92202 22.3436Z" fill="#A3D154" stroke="#F9FFF9" stroke-width="0.162324"/>
<path d="M18.7577 26.3263C18.7577 26.5312 18.9239 26.6974 19.1287 26.6974C19.3336 26.6974 19.4998 26.5315 19.4998 26.3263V18.7899C19.4998 18.585 19.3336 18.4188 19.1287 18.4188C18.9239 18.4188 18.7577 18.585 18.7577 18.7899V26.3263Z" fill="#A3D154" stroke="#483EA8" stroke-width="0.162324"/>
<path d="M19.1283 19.3146L17.0719 21.3711C17.0718 21.3711 17.0718 21.3711 17.0718 21.3711C17.0718 21.3711 17.0718 21.3711 17.0718 21.3712C16.927 21.5161 16.692 21.5161 16.5471 21.3712C16.4021 21.2262 16.4021 20.9914 16.5471 20.8464L18.8659 18.5276L18.866 18.5275L18.9233 18.5849L19.1283 19.3146ZM19.1283 19.3146L21.1849 21.3712C21.2572 21.4435 21.3524 21.4798 21.4472 21.4798L19.1283 19.3146Z" fill="#A3D154" stroke="#483EA8" stroke-width="0.162324"/>
</svg>
