<svg width="48" height="20" viewBox="0 0 48 20" fill="none" xmlns="http://www.w3.org/2000/svg">
<path d="M8.85375 2.70763C8.29592 3.36833 7.40267 3.88921 6.50942 3.81459C6.39786 2.92134 6.8347 1.97303 7.34689 1.38695C7.90472 0.708136 8.88201 0.224203 9.67239 0.187256C9.76511 1.11673 9.40289 2.02809 8.85375 2.70763ZM9.66297 3.99136C8.36982 3.91674 7.26285 4.72595 6.64924 4.72595C6.02621 4.72595 5.0866 4.02831 4.06294 4.04714C2.73285 4.06598 1.49548 4.81941 0.81667 6.0191C-0.578626 8.41922 0.45372 11.9727 1.80265 13.9258C2.46335 14.8929 3.25373 15.9535 4.29549 15.9166C5.28147 15.8796 5.67196 15.2747 6.86296 15.2747C8.06265 15.2747 8.40676 15.9166 9.44925 15.8977C10.528 15.8789 11.2075 14.9306 11.8675 13.9627C12.6209 12.8652 12.9281 11.7952 12.9462 11.7394C12.9274 11.7205 10.8627 10.9302 10.8438 8.54889C10.825 6.5581 12.4717 5.60979 12.5463 5.55401C11.6168 4.17754 10.165 4.02831 9.66297 3.99136ZM17.1328 1.2935V15.7956H19.3837V10.8374H22.4996C25.3459 10.8374 27.3461 8.88431 27.3461 6.05605C27.3461 3.22778 25.3836 1.2935 22.5742 1.2935H17.1328ZM19.3837 3.19084H21.9787C23.9318 3.19084 25.0482 4.2326 25.0482 6.06547C25.0482 7.89761 23.9318 8.94879 21.9693 8.94879H19.383L19.3837 3.19084ZM31.4574 15.9072C32.8715 15.9072 34.1828 15.1907 34.7783 14.0562H34.8247V15.7956H36.9082V8.57715C36.9082 6.4842 35.234 5.13527 32.6571 5.13527C30.2664 5.13527 28.4995 6.50231 28.4343 8.38155H30.462C30.6294 7.4883 31.4574 6.90221 32.5919 6.90221C33.9684 6.90221 34.7406 7.54408 34.7406 8.72566V9.52546L31.9319 9.69353C29.3181 9.85146 27.904 10.9215 27.904 12.7819C27.904 14.6604 29.3645 15.9072 31.4574 15.9072ZM32.0623 14.1859C30.8626 14.1859 30.0998 13.6092 30.0998 12.7254C30.0998 11.814 30.8344 11.2837 32.2391 11.1997L34.7414 11.0417V11.8604C34.7414 13.2187 33.588 14.1859 32.0623 14.1859ZM39.6901 19.7395C41.8852 19.7395 42.9175 18.9021 43.8202 16.3628L47.7735 5.27509H45.485L42.8342 13.8425H42.7879L40.1371 5.27509H37.7833L41.5969 15.8325L41.3926 16.4744C41.0484 17.5625 40.4906 17.9813 39.4952 17.9813C39.3185 17.9813 38.9743 17.9624 38.8345 17.9443V19.6837C38.9642 19.7207 39.5228 19.7395 39.6901 19.7395Z" fill="black"/>
</svg>
