<svg width="19" height="22" viewBox="0 0 19 22" fill="none" xmlns="http://www.w3.org/2000/svg">
<path d="M9.35125 2C8.5556 2 7.79254 2.31607 7.22993 2.87868C6.66732 3.44129 6.35125 4.20435 6.35125 5V9C6.35125 9.79565 6.66732 10.5587 7.22993 11.1213C7.79254 11.6839 8.5556 12 9.35125 12C10.1469 12 10.91 11.6839 11.4726 11.1213C12.0352 10.5587 12.3512 9.79565 12.3512 9V5C12.3512 4.20435 12.0352 3.44129 11.4726 2.87868C10.91 2.31607 10.1469 2 9.35125 2ZM9.35125 0C10.0079 0 10.658 0.129329 11.2647 0.380602C11.8713 0.631876 12.4225 1.00017 12.8868 1.46447C13.3511 1.92876 13.7194 2.47995 13.9706 3.08658C14.2219 3.69321 14.3512 4.34339 14.3512 5V9C14.3512 10.3261 13.8245 11.5979 12.8868 12.5355C11.9491 13.4732 10.6773 14 9.35125 14C8.02517 14 6.7534 13.4732 5.81572 12.5355C4.87803 11.5979 4.35125 10.3261 4.35125 9V5C4.35125 3.67392 4.87803 2.40215 5.81572 1.46447C6.7534 0.526784 8.02517 0 9.35125 0ZM0.40625 10H2.42125C2.66354 11.6648 3.49712 13.1867 4.76948 14.2873C6.04185 15.3879 7.66793 15.9936 9.35025 15.9936C11.0326 15.9936 12.6587 15.3879 13.931 14.2873C15.2034 13.1867 16.037 11.6648 16.2792 10H18.2952C18.0679 12.0287 17.1579 13.9199 15.7145 15.3635C14.2711 16.8071 12.3799 17.7174 10.3512 17.945V22H8.35125V17.945C6.32238 17.7176 4.43103 16.8074 2.98743 15.3638C1.54382 13.9202 0.633663 12.0289 0.40625 10Z" fill="#3F3F44" fill-opacity="0.2"/>
</svg>
