<svg width="25" height="24" viewBox="0 0 25 24" fill="none" xmlns="http://www.w3.org/2000/svg">
<path d="M12.3335 22C6.8105 22 2.3335 17.523 2.3335 12C2.3335 6.477 6.8105 2 12.3335 2C16.8115 2 20.5595 4.943 21.8335 9H19.3335" stroke="black" stroke-width="1.5" stroke-linecap="round" stroke-linejoin="round"/>
<path d="M12.3335 8V12L14.3335 14M22.2885 13C22.3185 12.67 22.3335 12.3367 22.3335 12M15.3335 22C15.6736 21.8873 16.0074 21.7565 16.3335 21.608M21.1235 17C21.3175 16.628 21.4892 16.2433 21.6385 15.846M18.5255 20.229C18.8708 19.9437 19.1965 19.6363 19.5025 19.307" stroke="black" stroke-width="1.5" stroke-linecap="round" stroke-linejoin="round"/>
</svg>
