<svg width="20" height="20" viewBox="0 0 20 20" fill="none" xmlns="http://www.w3.org/2000/svg">
<path d="M10.3864 8.80039C9.90641 8.68039 9.4264 8.44039 9.0664 8.08039C8.7064 7.96039 8.58641 7.60039 8.58641 7.36039C8.58641 7.12039 8.7064 6.76039 8.9464 6.64039C9.3064 6.40039 9.6664 6.16039 10.0264 6.28039C10.7464 6.28039 11.3464 6.64039 11.7064 7.12039L12.7864 5.68039C12.4264 5.32039 12.0664 5.08039 11.7064 4.84039C11.3464 4.60039 10.8664 4.48039 10.3864 4.48039V2.80039H8.9464V4.48039C8.3464 4.60039 7.74641 4.96039 7.26641 5.44039C6.78641 6.04039 6.42641 6.76039 6.54641 7.48039C6.54641 8.20039 6.78641 8.92039 7.26641 9.40039C7.86641 10.0004 8.7064 10.3604 9.4264 10.7204C9.7864 10.8404 10.2664 11.0804 10.6264 11.3204C10.8664 11.5604 10.9864 11.9204 10.9864 12.2804C10.9864 12.6404 10.8664 13.0004 10.6264 13.3604C10.2664 13.7204 9.7864 13.8404 9.4264 13.8404C8.94641 13.8404 8.34641 13.7204 7.98641 13.3604C7.62641 13.1204 7.26641 12.7604 7.02641 12.4004L5.82641 13.7204C6.18641 14.2004 6.54641 14.5604 7.02641 14.9204C7.62641 15.2804 8.34641 15.6404 9.0664 15.6404V17.2004H10.3864V15.4004C11.1064 15.2804 11.7064 14.9204 12.1864 14.4404C12.7864 13.8404 13.1464 12.8804 13.1464 12.0404C13.1464 11.3204 12.9064 10.4804 12.3064 10.0004C11.7064 9.40039 11.1064 9.04039 10.3864 8.80039ZM9.6664 0.400391C4.38641 0.400391 0.0664062 4.72039 0.0664062 10.0004C0.0664062 15.2804 4.38641 19.6004 9.6664 19.6004C14.9464 19.6004 19.2664 15.2804 19.2664 10.0004C19.2664 4.72039 14.9464 0.400391 9.6664 0.400391ZM9.6664 18.2804C5.10641 18.2804 1.38641 14.5604 1.38641 10.0004C1.38641 5.44039 5.10641 1.72039 9.6664 1.72039C14.2264 1.72039 17.9464 5.44039 17.9464 10.0004C17.9464 14.5604 14.2264 18.2804 9.6664 18.2804Z" fill="black"/>
</svg>
