<svg width="24" height="24" viewBox="0 0 24 24" fill="none" xmlns="http://www.w3.org/2000/svg">
<rect width="24" height="24" rx="12" fill="#FEDA5C"/>
<path d="M13.8408 5.70312L13.5508 14.5889H11.4414L11.1426 5.70312H13.8408ZM11.0723 17.3398C11.0723 16.9648 11.2012 16.6543 11.459 16.4082C11.7227 16.1562 12.0684 16.0303 12.4961 16.0303C12.9297 16.0303 13.2754 16.1562 13.5332 16.4082C13.791 16.6543 13.9199 16.9648 13.9199 17.3398C13.9199 17.7031 13.791 18.0107 13.5332 18.2627C13.2754 18.5146 12.9297 18.6406 12.4961 18.6406C12.0684 18.6406 11.7227 18.5146 11.459 18.2627C11.2012 18.0107 11.0723 17.7031 11.0723 17.3398Z" fill="black"/>
</svg>
