<svg width="24" height="24" viewBox="0 0 24 24" fill="none" xmlns="http://www.w3.org/2000/svg">
<path d="M13.9761 9.15C11.8041 8.344 10.6201 7.724 10.6201 6.741C10.6201 5.91 11.3031 5.436 12.5211 5.436C14.7481 5.436 17.0361 6.294 18.6111 7.067L19.5011 1.573C18.2521 0.975 15.6971 0 12.1651 0C9.66708 0 7.58908 0.654 6.10408 1.872C4.56008 3.147 3.75708 4.992 3.75708 7.218C3.75708 11.257 6.22408 12.978 10.2331 14.437C12.8181 15.357 13.6781 16.011 13.6781 17.02C13.6781 18 12.8381 18.565 11.3241 18.565C9.44908 18.565 6.35908 17.644 4.33408 16.456L3.43408 22.011C5.17508 22.99 8.38508 24 11.7141 24C14.3551 24 16.5571 23.376 18.0421 22.187C19.7061 20.882 20.5671 18.951 20.5671 16.455C20.5671 12.327 18.0431 10.604 13.9731 9.15H13.9761Z" fill="white"/>
</svg>
