<svg width="48" height="46" viewBox="0 0 48 46" fill="none" xmlns="http://www.w3.org/2000/svg">
<path d="M44.127 0.298828H4.73053C2.58741 0.298828 0.84375 2.04239 0.84375 4.18561V30.0169C0.84375 32.1601 2.58741 33.9038 4.73053 33.9038H17.5133C17.4875 36.4162 16.8775 38.9582 16.1974 40.4565H13.482C12.0358 40.4565 10.8593 41.6331 10.8593 43.0793C10.8593 44.5255 12.0358 45.702 13.482 45.702H34.5187C35.9648 45.702 37.1414 44.5255 37.1414 43.0793C37.1414 41.6331 35.9648 40.4565 34.5187 40.4565H31.7962C31.0843 38.9311 30.4355 36.3801 30.3875 33.9038H43.2695C45.4126 33.9038 47.1562 32.1601 47.1562 30.0169V3.32864C47.1562 1.65802 45.7973 0.298828 44.127 0.298828ZM4.73053 1.61133H44.127C45.0737 1.61133 45.8438 2.38177 45.8438 3.32864V26.1653H2.15625V4.18561C2.15625 2.76605 3.31106 1.61133 4.73053 1.61133ZM35.8288 43.0793C35.8288 43.8017 35.241 44.3895 34.5186 44.3895H13.482C12.7596 44.3895 12.1718 43.8017 12.1718 43.0793C12.1718 42.3569 12.7596 41.769 13.482 41.769H34.5187C35.241 41.769 35.8288 42.3569 35.8288 43.0793ZM30.3638 40.4565H17.623C18.3422 38.6274 18.8018 36.147 18.8254 33.9038H29.0752C29.117 36.1196 29.6095 38.6014 30.3638 40.4565ZM43.2695 32.5913H4.73053C3.31106 32.5913 2.15625 31.4365 2.15625 30.0169V27.4778H45.8438V30.0169C45.8438 31.4364 44.6889 32.5913 43.2695 32.5913ZM26.4323 30.0345C26.4323 30.3969 26.1384 30.6907 25.776 30.6907H22.2239C21.8615 30.6907 21.5677 30.3969 21.5677 30.0345C21.5677 29.672 21.8615 29.3782 22.2239 29.3782H25.776C26.1385 29.3782 26.4323 29.672 26.4323 30.0345ZM35.1726 22.6583C37.5646 20.2664 38.8818 17.0862 38.8818 13.7036C38.8818 10.321 37.5645 7.1408 35.1726 4.74886C34.9163 4.49264 34.9163 4.07705 35.1726 3.82083C35.4289 3.56461 35.8444 3.56461 36.1007 3.82083C38.7404 6.46064 40.1943 9.97045 40.1943 13.7037C40.1943 17.4369 38.7404 20.9466 36.1007 23.5865C35.9725 23.7146 35.8045 23.7787 35.6366 23.7787C35.4687 23.7787 35.3007 23.7146 35.1726 23.5865C34.9163 23.3301 34.9163 22.9145 35.1726 22.6583ZM30.6256 18.1113C31.803 16.934 32.4514 15.3687 32.4514 13.7036C32.4514 12.0385 31.803 10.4731 30.6256 9.29583C30.3694 9.03961 30.3694 8.62402 30.6256 8.3678C30.8819 8.11158 31.2974 8.11158 31.5537 8.3678C32.9789 9.79298 33.7638 11.688 33.7638 13.7036C33.7638 15.7192 32.9789 17.6142 31.5537 19.0394C31.4256 19.1675 31.2576 19.2315 31.0897 19.2315C30.9217 19.2315 30.7537 19.1674 30.6256 19.0394C30.3693 18.7831 30.3693 18.3675 30.6256 18.1113ZM9.02625 15.7832C9.54619 15.7832 9.97575 16.0708 10.1753 16.5525C10.3748 17.0341 10.2744 17.5411 9.90675 17.9088C9.43087 18.3848 9.43087 19.1591 9.90675 19.635L11.1217 20.85C11.3523 21.0806 11.6588 21.2075 11.9848 21.2075C12.311 21.2075 12.6174 21.0806 12.848 20.85C13.2162 20.4816 13.7236 20.3807 14.205 20.5801C14.6863 20.7795 14.9737 21.2096 14.9737 21.7305C14.9737 22.4036 15.5212 22.9512 16.1943 22.9512H17.9124C18.5855 22.9512 19.1331 22.4037 19.1331 21.7305C19.1331 21.2106 19.4206 20.7811 19.9023 20.5815C20.3842 20.382 20.8912 20.4825 21.2587 20.85C21.7347 21.3259 22.5089 21.3259 22.985 20.85L24.2 19.635C24.6758 19.1591 24.6758 18.3848 24.2 17.9088C23.8323 17.5411 23.7319 17.0341 23.9315 16.5525C24.131 16.0708 24.5605 15.7832 25.0805 15.7832C25.7535 15.7832 26.3011 15.2357 26.3011 14.5626V12.8445C26.3011 12.1714 25.7535 11.6238 25.0805 11.6238C24.5605 11.6238 24.131 11.3363 23.9315 10.8546C23.7319 10.3729 23.8323 9.86583 24.2 9.49823C24.4305 9.2677 24.5573 8.96114 24.5573 8.63508C24.5573 8.30902 24.4304 8.00245 24.2 7.77192L22.985 6.55692C22.5089 6.08105 21.7347 6.08105 21.2587 6.55692C20.891 6.92452 20.3842 7.02502 19.9023 6.82542C19.4206 6.62592 19.1331 6.19645 19.1331 5.67642C19.1331 5.00339 18.5855 4.4558 17.9124 4.4558H16.1943C15.5212 4.4558 14.9737 5.0033 14.9737 5.67642C14.9737 6.19636 14.6861 6.62592 14.2044 6.82542C13.7228 7.02473 13.2157 6.92452 12.848 6.55692C12.3719 6.08105 11.5978 6.08105 11.1217 6.55692L9.90675 7.77192C9.67622 8.00245 9.54938 8.30902 9.54938 8.63508C9.54938 8.96114 9.67631 9.2677 9.90675 9.49823C10.2744 9.86583 10.3748 10.3729 10.1753 10.8546C9.97575 11.3363 9.54619 11.6238 9.02625 11.6238C8.35322 11.6238 7.80562 12.1713 7.80562 12.8445V14.5627C7.80572 15.2357 8.35331 15.7832 9.02625 15.7832ZM9.11822 12.9348C10.1318 12.9007 10.9961 12.3027 11.3879 11.3569C11.7797 10.4111 11.5914 9.37711 10.8987 8.6362L11.9859 7.54898C12.7269 8.2417 13.7609 8.42986 14.7067 8.03808C15.6525 7.64639 16.2504 6.78211 16.2846 5.76848H17.822C17.8561 6.78211 18.4541 7.64639 19.3999 8.03817C20.3461 8.43014 21.3798 8.24161 22.1206 7.54898L23.2079 8.6363C22.5152 9.3772 22.327 10.4112 22.7187 11.357C23.1105 12.3028 23.9747 12.9008 24.9884 12.9349V14.4724C23.9748 14.5065 23.1105 15.1046 22.7187 16.0503C22.3269 16.9962 22.5152 18.0301 23.2079 18.771L22.1206 19.8584C21.3797 19.1656 20.3457 18.9775 19.3999 19.3692C18.4541 19.761 17.8561 20.6251 17.822 21.6388H16.2846C16.2505 20.6241 15.6527 19.7594 14.7072 19.3678C13.7618 18.9761 12.7275 19.1649 11.9859 19.8583L10.8987 18.771C11.5914 18.0301 11.7796 16.9962 11.3879 16.0503C10.9961 15.1046 10.1319 14.5065 9.11822 14.4724V12.9348ZM17.0532 18.5582C19.7302 18.5582 21.9079 16.3804 21.9079 13.7036C21.9079 11.0266 19.7302 8.84883 17.0532 8.84883C14.3763 8.84883 12.1986 11.0266 12.1986 13.7036C12.1986 16.3804 14.3764 18.5582 17.0532 18.5582ZM17.0532 10.1613C19.0064 10.1613 20.5954 11.7504 20.5954 13.7036C20.5954 15.6567 19.0064 17.2457 17.0532 17.2457C15.1 17.2457 13.5111 15.6567 13.5111 13.7036C13.5111 11.7504 15.1 10.1613 17.0532 10.1613Z" fill="white"/>
</svg>
