<svg width="48" height="42" viewBox="0 0 48 42" fill="none" xmlns="http://www.w3.org/2000/svg">
<path d="M47.25 0.242188H0.75C0.551088 0.242188 0.360322 0.321205 0.21967 0.461858C0.0790176 0.60251 0 0.793275 0 0.992188L0 4.48287C0 4.68179 0.0790176 4.87255 0.21967 5.01321C0.360322 5.15386 0.551088 5.23287 0.75 5.23287H2.56875V31.1928C2.56942 31.767 2.79778 32.3175 3.20375 32.7236C3.60972 33.1297 4.16017 33.3582 4.73438 33.359H11.6747C11.4907 34.191 11.398 35.0406 11.3982 35.8928V41.0079C11.3982 41.2068 11.4772 41.3976 11.6179 41.5382C11.7585 41.6789 11.9493 41.7579 12.1482 41.7579H35.8518C36.0507 41.7579 36.2415 41.6789 36.3821 41.5382C36.5228 41.3976 36.6018 41.2068 36.6018 41.0079V35.8928C36.602 35.0406 36.5093 34.191 36.3253 33.359H43.2656C43.8398 33.3582 44.3903 33.1297 44.7962 32.7236C45.2022 32.3175 45.4306 31.767 45.4313 31.1928V5.23287H47.25C47.4489 5.23287 47.6397 5.15386 47.7803 5.01321C47.921 4.87255 48 4.68179 48 4.48287V0.992188C48 0.793275 47.921 0.60251 47.7803 0.461858C47.6397 0.321205 47.4489 0.242188 47.25 0.242188ZM4.73438 31.859C4.55774 31.8588 4.38838 31.7886 4.26347 31.6637C4.13856 31.5388 4.06829 31.3694 4.06809 31.1928V29.7758H13.1233C12.7184 30.4351 12.3799 31.1329 12.1128 31.859H4.73438ZM35.1015 40.2579H31.5742C31.6395 40.1445 31.6739 40.0159 31.6739 39.885V34.7077C31.6739 34.5088 31.5949 34.318 31.4542 34.1774C31.3136 34.0367 31.1228 33.9577 30.9239 33.9577C30.725 33.9577 30.5342 34.0367 30.3936 34.1774C30.2529 34.318 30.1739 34.5088 30.1739 34.7077V39.885C30.1739 40.0159 30.2083 40.1445 30.2738 40.2579H17.7262C17.7917 40.1445 17.8261 40.0159 17.8261 39.885V34.7077C17.8261 34.5088 17.7471 34.318 17.6064 34.1774C17.4658 34.0367 17.275 33.9577 17.0761 33.9577C16.8772 33.9577 16.6864 34.0367 16.5458 34.1774C16.4051 34.318 16.3261 34.5088 16.3261 34.7077V39.885C16.3261 40.0159 16.3605 40.1445 16.4258 40.2579H12.8982V35.8928C12.9014 33.4367 13.7869 31.0635 15.3934 29.2056C16.9999 27.3478 19.2204 26.129 21.6503 25.7713L20.5003 34.0613C20.4859 34.1651 20.4934 34.2708 20.5224 34.3716C20.5514 34.4724 20.6011 34.5659 20.6685 34.6463L23.4253 37.9342C23.4957 38.0181 23.5836 38.0856 23.6829 38.132C23.7822 38.1783 23.8904 38.2023 24 38.2023C24.1096 38.2023 24.2178 38.1783 24.3171 38.132C24.4164 38.0856 24.5043 38.0181 24.5747 37.9342L27.3315 34.6463C27.3989 34.5659 27.4486 34.4724 27.4776 34.3716C27.5066 34.2708 27.5141 34.1651 27.4997 34.0613L26.3496 25.7713C28.7795 26.129 31.0001 27.3478 32.6066 29.2056C34.2131 31.0634 35.0986 33.4367 35.1018 35.8928L35.1015 40.2579ZM23.1795 25.6644H24.8201L25.9682 33.9375L24 36.285L22.0318 33.9375L23.1795 25.6644ZM24 22.7297C22.8776 22.7297 21.7804 22.3969 20.8472 21.7733C19.914 21.1498 19.1866 20.2635 18.7571 19.2265C18.3276 18.1896 18.2152 17.0485 18.4342 15.9477C18.6531 14.8469 19.1936 13.8357 19.9873 13.0421C20.7809 12.2485 21.7921 11.708 22.8929 11.489C23.9937 11.27 25.1347 11.3824 26.1717 11.8119C27.2086 12.2415 28.0949 12.9688 28.7185 13.9021C29.342 14.8353 29.6749 15.9325 29.6749 17.0548C29.6732 18.5594 29.0748 20.0018 28.0109 21.0657C26.947 22.1296 25.5046 22.728 24 22.7297ZM43.2656 31.859H35.8875C35.6204 31.1329 35.2819 30.4351 34.877 29.7758H43.9313V31.1928C43.9311 31.3693 43.8609 31.5386 43.7361 31.6635C43.6113 31.7883 43.4422 31.8587 43.2656 31.859ZM43.9319 28.2758H33.8557C33.8325 28.2758 33.8097 28.2773 33.787 28.2793C32.6958 26.9985 31.3412 25.968 29.8157 25.2581C28.2902 24.5481 26.6295 24.1754 24.9469 24.1653C26.7517 23.925 28.3977 23.0075 29.5513 21.5988C30.7048 20.19 31.2797 18.3954 31.1593 16.5786C31.0389 14.7618 30.2322 13.0588 28.9028 11.8146C27.5735 10.5704 25.8208 9.87813 24 9.87813C22.1792 9.87813 20.4265 10.5704 19.0972 11.8146C17.7678 13.0588 16.9611 14.7618 16.8407 16.5786C16.7203 18.3954 17.2952 20.19 18.4487 21.5988C19.6023 23.0075 21.2483 23.925 23.0531 24.1653C21.3704 24.1753 19.7097 24.548 18.184 25.258C16.6584 25.9679 15.3038 26.9985 14.2125 28.2793C14.1898 28.2773 14.167 28.2758 14.1438 28.2758H4.06875V5.23287H43.9313L43.9319 28.2758ZM46.5 3.73288H1.5V1.74219H46.5V3.73288Z" fill="white"/>
</svg>
