<svg width="58" height="58" viewBox="0 0 58 58" fill="none" xmlns="http://www.w3.org/2000/svg">
<path d="M57.7098 35.6987C57.7098 36.3189 57.2023 36.8262 56.5823 36.8262H17.7657C17.8667 36.6968 17.9642 36.5641 18.058 36.4282C18.4502 35.86 18.7761 35.2327 19.0276 34.5713H56.5822C57.2022 34.5713 57.7098 35.0786 57.7098 35.6987ZM11.3481 2.54496H56.5823C57.2023 2.54496 57.7098 2.03766 57.7098 1.4175C57.7098 0.797344 57.2023 0.290039 56.5823 0.290039H11.3481C10.728 0.290039 10.2207 0.797344 10.2207 1.4175C10.2207 2.03766 10.728 2.54496 11.3481 2.54496ZM34.9124 38.4668L41.1591 49.2864H46.5039L40.2573 38.4668H34.9124ZM25.9224 41.4993C26.2825 42.2545 26.4466 43.1334 26.5279 44.1922L26.5293 44.21L26.5303 44.2279C26.6233 45.9175 26.6585 47.602 26.6533 49.2865H26.7713L33.018 38.4669H27.6731L25.9223 41.4994L25.9224 41.4993ZM19.4833 32.9307C19.82 31.0635 19.5756 29.0936 18.5837 27.4901C17.2821 25.3861 15.0638 24.4721 12.6526 24.4721C12.5765 24.4721 12.5006 24.4731 12.4249 24.475V4.18559H55.5056V32.9307H19.4833ZM39.5654 30.4574C43.1368 28.8237 49.8099 28.8571 51.6943 29.7356V10.5278C49.8099 9.64934 43.1368 9.61594 39.5654 11.2495V30.4574ZM32.426 11.0686L32.5754 11.4293L32.8549 11.4844C33.8095 11.6726 34.4949 12.5064 34.4949 13.4794V15.5947C34.4949 16.5677 33.8095 17.4015 32.8549 17.5897L32.5754 17.6448L32.426 18.0055L32.5846 18.2422C33.1256 19.0488 33.0205 20.1258 32.3336 20.8125L30.8378 22.3083C30.151 22.9951 29.0742 23.1002 28.2674 22.5592L28.0307 22.4005L27.67 22.5499L27.6149 22.8294C27.4382 23.726 26.6919 24.3851 25.7957 24.462V29.7356C27.6801 28.8572 34.3532 28.8238 37.9246 30.4574V11.2495C36.5562 10.6235 34.7323 10.2425 32.8971 10.0598C32.8487 10.3295 32.7449 10.5925 32.5845 10.8318L32.4258 11.0685L32.426 11.0686ZM19.9436 21.1966L20.9102 20.5485L22.8944 21.3705L23.1194 22.5122C23.1561 22.6982 23.3153 22.8289 23.5048 22.8289H25.6202C25.8098 22.8289 25.9689 22.698 26.0056 22.5122L26.2306 21.3707L28.2148 20.5486L29.1814 21.1968C29.3388 21.3023 29.5439 21.2823 29.6779 21.1482L31.1737 19.6525C31.3076 19.5184 31.3277 19.3133 31.2222 19.1559L30.574 18.1895L31.3961 16.2053L32.5376 15.9803C32.7236 15.9436 32.8544 15.7845 32.8544 15.5948V13.4795C32.8544 13.2899 32.7235 13.1307 32.5375 13.0941L31.396 12.8691L30.5739 10.8848L31.2221 9.9184C31.3277 9.76102 31.3076 9.55582 31.1736 9.42188L29.6778 7.92609C29.5437 7.79203 29.3388 7.77199 29.1813 7.87758L28.2148 8.52562L26.2306 7.70355L26.0056 6.56203C25.9689 6.37605 25.8098 6.24527 25.6202 6.24527H23.5048C23.3153 6.24527 23.1561 6.37617 23.1194 6.56203L22.8944 7.70355L20.9101 8.52562L19.9436 7.87758C19.7862 7.77199 19.5812 7.79203 19.4472 7.92609L17.9514 9.42188C17.8174 9.55582 17.7973 9.76102 17.9029 9.9184L18.5511 10.8848L17.729 12.8691L16.5875 13.0941C16.4015 13.1307 16.2706 13.2899 16.2706 13.4795V15.5948C16.2706 15.7845 16.4015 15.9436 16.5875 15.9803L17.729 16.2053L18.5511 18.1895L17.9029 19.1559C17.7973 19.3133 17.8174 19.5184 17.9514 19.6525L19.4472 21.1482C19.5812 21.2822 19.7862 21.3021 19.9436 21.1966ZM24.5624 18.7894C26.911 18.7894 28.8148 16.8855 28.8148 14.537C28.8148 12.1884 26.911 10.2847 24.5624 10.2847C22.2139 10.2847 20.3102 12.1886 20.3102 14.537C20.3102 16.8854 22.214 18.7894 24.5624 18.7894ZM12.6526 37.8546C14.1309 37.8563 15.6146 37.0801 16.7077 35.4963C19.0893 32.046 18.3571 26.1127 12.6526 26.1127C6.94799 26.1127 6.21581 32.0459 8.59741 35.4963C9.69065 37.0801 11.1744 37.8563 12.6526 37.8546ZM23.0065 40.7762C22.0291 40.203 20.3203 39.7505 18.7603 39.3514L15.7707 38.6161C14.8467 39.1714 13.7936 39.4951 12.6524 39.4951C11.5113 39.4951 10.4582 39.1714 9.5342 38.6161L6.54463 39.3514C4.98463 39.7505 3.27581 40.203 2.29834 40.7762C1.02334 41.5238 0.568891 42.287 0.412798 44.318C0.215102 47.9063 0.280727 51.2414 0.425337 54.669C0.497173 56.3693 1.89581 57.7102 3.59749 57.7102H4.38182V48.9449C4.38182 48.4918 4.74909 48.1246 5.20213 48.1246C5.65518 48.1246 6.02245 48.4918 6.02245 48.9449V57.7102H19.2822V48.9449C19.2822 48.4918 19.6495 48.1246 20.1025 48.1246C20.5556 48.1246 20.9228 48.4918 20.9228 48.9449V57.7102H21.7071C23.4087 57.7102 24.8075 56.3694 24.8792 54.669C25.0238 51.2413 25.0894 47.9061 24.8917 44.318C24.7355 42.287 24.2812 41.5238 23.0062 40.7762H23.0065ZM49.3166 25.6656C49.7671 25.7091 50.1685 25.3792 50.2124 24.9285C50.2564 24.4784 49.9263 24.0762 49.4752 24.0332C47.0677 23.7988 44.4473 23.9885 41.6872 24.5968C41.2446 24.694 40.9649 25.1323 41.0626 25.5741C41.1468 25.957 41.4862 26.2186 41.8628 26.2186C41.9213 26.2186 41.9806 26.2112 42.0399 26.1988C44.6321 25.6277 47.0803 25.4487 49.3166 25.6656ZM41.8626 16.4078C41.9179 16.4078 41.9742 16.4016 42.0305 16.3903C44.6295 15.8497 47.0756 15.7069 49.3014 15.9661C49.7506 16.0186 50.1587 15.6955 50.2107 15.2454C50.263 14.7953 49.9406 14.3885 49.4907 14.336C47.0903 14.057 44.468 14.2084 41.6965 14.7845C41.2533 14.876 40.9682 15.3109 41.0606 15.7537C41.1411 16.1418 41.4822 16.4078 41.8626 16.4078ZM41.8628 22.9143C41.9201 22.9143 41.9784 22.908 42.0369 22.895C44.6314 22.3352 47.0787 22.1675 49.3115 22.3997C49.7616 22.446 50.1651 22.1184 50.2117 21.667C50.2585 21.2169 49.9311 20.8141 49.4805 20.7673C47.0755 20.5177 44.4542 20.6944 41.6902 21.292C41.2474 21.3881 40.9661 21.8241 41.0619 22.2669C41.1448 22.6516 41.4848 22.9143 41.8628 22.9143ZM41.8628 19.7099C41.9191 19.7099 41.9764 19.7043 42.0338 19.6924C44.6306 19.1416 47.0772 18.987 49.3065 19.2309C49.7564 19.28 50.1619 18.9553 50.2113 18.5057C50.2606 18.0555 49.9359 17.65 49.4854 17.6007C47.0826 17.337 44.4611 17.5008 41.6934 18.0882C41.2501 18.182 40.9672 18.6164 41.0612 19.0609C41.1431 19.4467 41.4835 19.7099 41.8628 19.7099Z" fill="#A3D154"/>
</svg>
