<svg width="58" height="58" viewBox="0 0 58 58" fill="none" xmlns="http://www.w3.org/2000/svg">
<path fill-rule="evenodd" clip-rule="evenodd" d="M2.869 57.2352C5.28712 52.319 6.35159 47.6796 5.91477 43.7109C5.78547 42.5234 5.361 41.5389 4.58571 40.6283C2.20441 37.8163 0.764648 34.1737 0.764648 30.1928C0.764648 21.277 7.9883 14.0472 16.9102 14.0472C25.8258 14.0472 33.0495 21.277 33.0495 30.1928C33.0495 30.7465 33.0249 31.2879 32.9696 31.8232C32.8526 32.9862 33.0495 34.0137 33.591 35.0475C34.1755 36.1735 34.9692 37.2749 35.9722 38.3639C36.8398 39.4715 36.5383 40.3759 35.0862 41.0897C34.3355 41.4774 34.1078 42.1481 34.5878 43.8032C34.8955 44.5108 33.4864 45.3906 32.3911 45.4768C33.6956 46.1844 34.9631 47.3104 33.8248 48.1903C33.3079 48.5718 32.9696 49.2978 32.9511 51.2915C33.0126 52.5774 31.6282 52.9712 28.7916 52.479C24.5461 51.5191 22.0541 53.1004 21.3157 57.2352H2.869ZM16.6392 39.1721C22.2449 39.1721 26.8115 34.6056 26.8115 28.9999C26.8115 23.4011 22.2449 18.8278 16.6392 18.8278C11.0404 18.8278 6.46712 23.4011 6.46712 28.9999C6.46712 34.6056 11.0404 39.1721 16.6392 39.1721ZM16.6392 37.2897C12.0765 37.2897 8.34947 33.5683 8.34947 28.9999C8.34947 24.4372 12.0765 20.7102 16.6392 20.7102C21.2076 20.7102 24.9291 24.4372 24.9291 28.9999C24.9291 33.5683 21.2076 37.2897 16.6392 37.2897ZM11.6374 29.9261L14.1685 32.4571C14.5235 32.8121 15.0945 32.8259 15.4664 32.4886L21.6142 26.9116C21.9989 26.5625 22.0278 25.9669 21.6789 25.5822C21.3298 25.1975 20.7342 25.1684 20.3495 25.5175L14.8656 30.4922L12.9684 28.595C12.6011 28.2277 12.0048 28.2277 11.6374 28.595C11.2701 28.9623 11.2701 29.5586 11.6374 29.9261ZM57.2352 16.9622C57.2352 18.4465 56.0241 19.6536 54.5397 19.6536H42.3631L38.1028 24.0885C37.9364 24.2616 37.6816 24.3163 37.4589 24.2266C37.2362 24.137 37.0903 23.921 37.0903 23.681V19.6536H34.8108C33.3264 19.6536 32.1152 18.4465 32.1152 16.9622V3.46018C32.1152 1.97582 33.3264 0.764648 34.8108 0.764648H54.5397C56.0241 0.764648 57.2352 1.97582 57.2352 3.46018V16.9622ZM37.3676 15.4729H44.3058C44.8252 15.4729 45.247 15.0511 45.247 14.5317C45.247 14.0123 44.8252 13.5905 44.3058 13.5905H37.3676C36.8482 13.5905 36.4264 14.0123 36.4264 14.5317C36.4264 15.0511 36.8482 15.4729 37.3676 15.4729ZM37.3676 6.92147H51.7464C52.2658 6.92147 52.6876 6.49971 52.6876 5.9803C52.6876 5.46088 52.2658 5.03912 51.7464 5.03912H37.3676C36.8482 5.03912 36.4264 5.46088 36.4264 5.9803C36.4264 6.49971 36.8482 6.92147 37.3676 6.92147ZM37.3676 11.1992H51.7464C52.2658 11.1992 52.6876 10.7775 52.6876 10.2581C52.6876 9.73865 52.2658 9.31688 51.7464 9.31688H37.3676C36.8482 9.31688 36.4264 9.73865 36.4264 10.2581C36.4264 10.7775 36.8482 11.1992 37.3676 11.1992ZM44.6752 44.023C45.1946 44.023 45.6164 44.4446 45.6164 44.9642C45.6164 45.4836 45.1946 45.9054 44.6752 45.9054H41.9449C41.4255 45.9054 41.0037 45.4836 41.0037 44.9642C41.0037 44.4446 41.4255 44.023 41.9449 44.023H44.6752ZM41.3072 37.7742C41.6745 37.4069 42.271 37.4069 42.6383 37.7742C43.0056 38.1415 43.0056 38.7379 42.6383 39.1052L40.7076 41.0359C40.3403 41.4032 39.7439 41.4032 39.3766 41.0359C39.0092 40.6685 39.0092 40.0722 39.3766 39.7049L41.3072 37.7742ZM42.6383 50.823C43.0056 51.1903 43.0056 51.7868 42.6383 52.1541C42.271 52.5214 41.6745 52.5214 41.3072 52.1541L39.3766 50.2234C39.0092 49.8561 39.0092 49.2597 39.3766 48.8923C39.7439 48.525 40.3403 48.525 40.7076 48.8923L42.6383 50.823Z" fill="#A3D154"/>
</svg>
