<svg width="44" height="48" viewBox="0 0 44 48" fill="none" xmlns="http://www.w3.org/2000/svg">
<path d="M41.6877 18.3855H33.2502V13.336C33.3979 13.2917 33.5412 13.2298 33.6767 13.1514C34.6138 12.6086 34.9346 11.4047 34.3904 10.4652L28.8632 0.990006C28.6916 0.689066 28.4423 0.43819 28.1417 0.264094C27.2046 -0.278535 26.0009 0.0422802 25.4597 0.976694L19.9765 10.3766C19.7669 10.6968 19.6564 11.0677 19.6564 11.452C19.6564 12.3417 20.2504 13.0954 21.0627 13.3371V16.5344C21.0627 17.0521 21.4824 17.4719 22.0002 17.4719C22.518 17.4719 22.9377 17.0521 22.9377 16.5344V12.4808C22.9377 11.9631 22.518 11.5432 22.0002 11.5432H21.6226C21.5724 11.5432 21.5314 11.5023 21.5314 11.4519C21.5314 11.433 21.5364 11.4164 21.5466 11.4015C21.5591 11.3832 21.5709 11.3645 21.5819 11.3454L27.0806 1.91898C27.1052 1.87651 27.1595 1.86208 27.2019 1.88654C27.2163 1.89489 27.2266 1.90511 27.2344 1.91879C27.2365 1.92254 27.2387 1.92639 27.2408 1.93014L32.7693 11.4074C32.7939 11.4498 32.7793 11.5042 32.7371 11.5287C32.7146 11.5417 32.6991 11.5432 32.6925 11.5432H32.3127C31.795 11.5432 31.3752 11.963 31.3752 12.4807V19.323V46.1249H22.9377V29.0263V24.972C22.9377 24.4543 22.518 24.0345 22.0002 24.0345C21.4824 24.0345 21.0627 24.4543 21.0627 24.972V28.0887H12.6251C11.5912 28.0887 10.7501 28.93 10.7501 29.9639V35.4014H2.31251C1.27863 35.4014 0.4375 36.2425 0.4375 37.2763V47.0625C0.4375 47.5802 0.857222 48 1.37501 48H42.6253C43.1431 48 43.5628 47.5802 43.5628 47.0625V20.2606C43.5627 19.2267 42.7216 18.3855 41.6877 18.3855ZM2.31242 46.125V37.2764H10.75V46.125H2.31242ZM12.625 46.125V36.3389V29.9638H21.0626V46.125H12.625ZM41.6877 46.125H33.2502V20.2606H41.6877V46.125Z" fill="white"/>
<path d="M22 21.6907C22.5178 21.6907 22.9375 21.2709 22.9375 20.7532V20.7526C22.9375 20.2349 22.5178 19.8154 22 19.8154C21.4822 19.8154 21.0625 20.2354 21.0625 20.7532C21.0625 21.271 21.4822 21.6907 22 21.6907Z" fill="white"/>
</svg>
