<svg width="46" height="44" viewBox="0 0 46 44" fill="none" xmlns="http://www.w3.org/2000/svg">
<path d="M21.6562 5.58398C12.5362 5.58398 5.24023 12.976 5.24023 22C5.24023 31.12 12.6322 38.416 21.6562 38.416C30.6802 38.416 38.0722 31.12 38.0722 22C38.0722 12.88 30.6802 5.58398 21.6562 5.58398ZM22.6162 36.496V35.728C22.6162 35.152 22.2322 34.768 21.6562 34.768C21.0802 34.768 20.6962 35.152 20.6962 35.728V36.496C13.4002 36.016 7.64023 30.256 7.16023 22.96H7.92823C8.50423 22.96 8.88823 22.576 8.88823 22C8.88823 21.424 8.50423 21.04 7.92823 21.04H7.16023C7.64023 13.744 13.4002 7.98398 20.6962 7.50398V8.27199C20.6962 8.84799 21.0802 9.23199 21.6562 9.23199C22.2322 9.23199 22.6162 8.84799 22.6162 8.27199V7.50398C29.9122 7.98398 35.6722 13.744 36.1522 21.04H35.3842C34.8082 21.04 34.4242 21.424 34.4242 22C34.4242 22.576 34.8082 22.96 35.3842 22.96H36.1522C35.6722 30.256 29.8162 36.016 22.6162 36.496Z" fill="white"/>
<path d="M22.6164 19.5049V11.9209C22.6164 11.3449 22.2324 10.9609 21.6564 10.9609C21.0804 10.9609 20.6964 11.3449 20.6964 11.9209V19.5049C19.9284 19.7929 19.4484 20.3689 19.1604 21.0409H14.3604C13.7844 21.0409 13.4004 21.4249 13.4004 22.0009C13.4004 22.5769 13.7844 22.9609 14.3604 22.9609H19.1604C19.5444 24.0169 20.5044 24.6889 21.6564 24.6889C23.1924 24.6889 24.3444 23.4409 24.3444 22.0009C24.3444 20.8489 23.5764 19.8889 22.6164 19.5049ZM21.6564 22.7689C21.1764 22.7689 20.8884 22.3849 20.8884 22.0009C20.8884 21.6169 21.2724 21.2329 21.6564 21.2329C22.0404 21.2329 22.4244 21.6169 22.4244 22.0009C22.4244 22.3849 22.0404 22.7689 21.6564 22.7689Z" fill="white"/>
<path d="M45.5603 18.8321C45.1763 18.4481 44.6003 18.4481 44.2163 18.8321L42.9683 20.0801C42.0083 9.13609 32.7923 0.496094 21.6563 0.496094C9.75235 0.496094 0.152344 10.1921 0.152344 22.0001C0.152344 33.8081 9.75235 43.5041 21.6563 43.5041C30.4883 43.5041 38.2643 38.2241 41.5283 30.0641C41.7203 29.5841 41.5283 29.0081 40.9523 28.8161C40.4723 28.6241 39.8963 28.8161 39.7043 29.3921C36.7283 36.7841 29.6243 41.5841 21.5603 41.5841C10.8083 41.5841 1.97634 32.8481 1.97634 22.0001C1.97634 11.2481 10.7123 2.41609 21.5603 2.41609C31.5443 2.41609 39.8963 10.0001 40.9523 19.6961L39.9923 18.7361C39.6083 18.3521 39.0323 18.3521 38.6483 18.7361C38.2643 19.1201 38.2643 19.6961 38.6483 20.0801L41.1443 22.5761C41.6243 23.0561 42.4883 23.0561 42.9683 22.5761L45.4643 20.0801C45.9443 19.7921 45.9443 19.1201 45.5603 18.8321Z" fill="white"/>
</svg>
