<svg width="60" height="60" viewBox="0 0 60 60" fill="none" xmlns="http://www.w3.org/2000/svg">
<path d="M3.75 19.1793V53.0028C7.23051 51.5237 10.9735 50.7614 14.7553 50.7614C18.537 50.7614 22.28 51.5237 25.7605 53.0028V19.1793C22.3153 17.5684 18.5585 16.7334 14.7553 16.7334C10.952 16.7334 7.19518 17.5684 3.75 19.1793ZM20.7627 45.1679H8.74781C8.48134 45.1659 8.22646 45.0586 8.03873 44.8695C7.85101 44.6804 7.74566 44.4247 7.74566 44.1582C7.74566 43.8917 7.85101 43.6361 8.03873 43.4469C8.22646 43.2578 8.48134 43.1506 8.74781 43.1486H20.7627C21.0292 43.1506 21.284 43.2578 21.4718 43.4469C21.6595 43.6361 21.7648 43.8917 21.7648 44.1582C21.7648 44.4247 21.6595 44.6804 21.4718 44.8695C21.284 45.0586 21.0292 45.1659 20.7627 45.1679ZM20.7627 39.1604H8.74781C8.48134 39.1584 8.22646 39.0511 8.03873 38.862C7.85101 38.6729 7.74566 38.4172 7.74566 38.1507C7.74566 37.8842 7.85101 37.6286 8.03873 37.4394C8.22646 37.2503 8.48134 37.1431 8.74781 37.1411H20.7627C20.8959 37.1401 21.028 37.1654 21.1514 37.2157C21.2748 37.266 21.387 37.3403 21.4815 37.4341C21.5761 37.528 21.6511 37.6396 21.7023 37.7626C21.7535 37.8856 21.7799 38.0175 21.7799 38.1507C21.7799 38.284 21.7535 38.4159 21.7023 38.5389C21.6511 38.6618 21.5761 38.7735 21.4815 38.8673C21.387 38.9612 21.2748 39.0354 21.1514 39.0857C21.028 39.136 20.8959 39.1614 20.7627 39.1604ZM20.7627 33.1529H8.74781C8.61454 33.154 8.48237 33.1286 8.35893 33.0784C8.23549 33.0281 8.12322 32.9539 8.0286 32.8601C7.93398 32.7662 7.85888 32.6545 7.80762 32.5315C7.75637 32.4085 7.72999 32.2765 7.72999 32.1432C7.72999 32.01 7.75637 31.878 7.80762 31.755C7.85888 31.6319 7.93398 31.5203 8.0286 31.4264C8.12322 31.3325 8.23549 31.2583 8.35893 31.2081C8.48237 31.1578 8.61454 31.1325 8.74781 31.1336H20.7627C20.896 31.1325 21.0281 31.1578 21.1516 31.2081C21.275 31.2583 21.3873 31.3325 21.4819 31.4264C21.5765 31.5203 21.6516 31.6319 21.7029 31.755C21.7541 31.878 21.7805 32.01 21.7805 32.1432C21.7805 32.2765 21.7541 32.4085 21.7029 32.5315C21.6516 32.6545 21.5765 32.7662 21.4819 32.8601C21.3873 32.9539 21.275 33.0281 21.1516 33.0784C21.0281 33.1286 20.896 33.154 20.7627 33.1529ZM21.7724 26.1358C21.7716 26.4034 21.665 26.6597 21.4758 26.8489C21.2866 27.0381 21.0302 27.1447 20.7627 27.1455H8.74781C8.48134 27.1435 8.22646 27.0363 8.03873 26.8471C7.85101 26.658 7.74566 26.4023 7.74566 26.1358C7.74566 25.8694 7.85101 25.6137 8.03873 25.4246C8.22646 25.2354 8.48134 25.1282 8.74781 25.1262H20.7627C21.0302 25.127 21.2866 25.2336 21.4758 25.4228C21.665 25.612 21.7716 25.8683 21.7724 26.1358Z" fill="#A3D154"/>
<path d="M41.2076 31.8309L51.0926 12.435L49.8411 11.7891L47.0839 17.19L39.9561 31.1841L41.2076 31.8309Z" fill="#A3D154"/>
<path d="M55.1517 7.55831L54.4551 7.20495C53.9687 6.96376 53.4079 6.9203 52.8902 7.0837C52.639 7.16596 52.4069 7.29768 52.2075 7.47109C52.0081 7.6445 51.8454 7.8561 51.7291 8.09339L50.7598 9.99154L52.8902 11.0719L52.9205 11.0921L55.0711 12.1826L56.0303 10.3045C56.2742 9.8232 56.3188 9.26517 56.1543 8.75122C55.9899 8.23726 55.6297 7.80871 55.1517 7.55831Z" fill="#A3D154"/>
<path d="M45.6108 35.1626C45.5888 35.226 45.5544 35.2843 45.5098 35.3343C45.4758 35.3805 45.4387 35.4244 45.3988 35.4656L45.3887 35.4757C45.3684 35.4958 45.3584 35.5161 45.3382 35.5262L42.0568 38.2017L38.7653 40.8672C38.5863 41.0143 38.3609 41.0931 38.1292 41.0894C37.9707 41.0923 37.8142 41.054 37.6749 40.9783C37.4986 40.8903 37.3521 40.7525 37.2534 40.582C37.1546 40.4115 37.1081 40.2158 37.1196 40.0192L37.3518 35.8493V35.7988L37.584 31.6289C37.5824 31.5982 37.5858 31.5675 37.5942 31.538C37.6041 31.4115 37.6383 31.2881 37.6951 31.1746L37.7355 31.1039L44.7122 17.4028C39.029 16.0895 33.0699 16.7114 27.7803 19.1697V53.0135C31.2613 51.5294 35.0064 50.7644 38.7906 50.7644C42.5747 50.7644 46.3199 51.5294 49.8009 53.0135V26.9642L45.631 35.1324C45.631 35.1425 45.6209 35.1526 45.6108 35.1626ZM32.778 25.1166H36.7258C36.9923 25.1186 37.2471 25.2259 37.4349 25.415C37.6226 25.6041 37.7279 25.8598 37.7279 26.1263C37.7279 26.3928 37.6226 26.6484 37.4349 26.8376C37.2471 27.0267 36.9923 27.1339 36.7258 27.1359H32.778C32.6448 27.1369 32.5127 27.1115 32.3894 27.0613C32.266 27.011 32.1538 26.9367 32.0592 26.8429C31.9647 26.749 31.8896 26.6374 31.8384 26.5144C31.7872 26.3914 31.7608 26.2595 31.7608 26.1263C31.7608 25.993 31.7872 25.8611 31.8384 25.7381C31.8896 25.6152 31.9647 25.5035 32.0592 25.4097C32.1538 25.3158 32.266 25.2416 32.3894 25.1913C32.5127 25.141 32.6448 25.1156 32.778 25.1166ZM32.778 31.1442H34.7974C34.9306 31.1432 35.0628 31.1685 35.1862 31.2187C35.3097 31.269 35.4219 31.3432 35.5166 31.4371C35.6112 31.5309 35.6863 31.6426 35.7375 31.7656C35.7888 31.8887 35.8152 32.0206 35.8152 32.1539C35.8152 32.2872 35.7888 32.4191 35.7375 32.5422C35.6863 32.6652 35.6112 32.7769 35.5166 32.8707C35.4219 32.9646 35.3097 33.0388 35.1862 33.089C35.0628 33.1393 34.9306 33.1646 34.7974 33.1636H32.778C32.6448 33.1646 32.5126 33.1393 32.3892 33.089C32.2657 33.0388 32.1535 32.9646 32.0588 32.8707C31.9642 32.7769 31.8891 32.6652 31.8379 32.5422C31.7866 32.4191 31.7602 32.2872 31.7602 32.1539C31.7602 32.0206 31.7866 31.8887 31.8379 31.7656C31.8891 31.6426 31.9642 31.5309 32.0588 31.4371C32.1535 31.3432 32.2657 31.269 32.3892 31.2187C32.5126 31.1685 32.6448 31.1432 32.778 31.1442ZM32.778 37.1416H34.4945C34.7609 37.1436 35.0158 37.2508 35.2035 37.44C35.3913 37.6291 35.4966 37.8848 35.4966 38.1513C35.4966 38.4177 35.3913 38.6734 35.2035 38.8625C35.0158 39.0517 34.7609 39.1589 34.4945 39.1609H32.778C32.6448 39.1619 32.5127 39.1365 32.3894 39.0862C32.266 39.0359 32.1538 38.9617 32.0592 38.8679C31.9647 38.774 31.8896 38.6624 31.8384 38.5394C31.7872 38.4164 31.7608 38.2845 31.7608 38.1513C31.7608 38.018 31.7872 37.8861 31.8384 37.7631C31.8896 37.6401 31.9647 37.5285 32.0592 37.4346C32.1538 37.3408 32.266 37.2666 32.3894 37.2163C32.5127 37.166 32.6448 37.1406 32.778 37.1416ZM44.793 45.1684H32.778C32.5116 45.1664 32.2567 45.0591 32.069 44.87C31.8812 44.6809 31.7759 44.4252 31.7759 44.1587C31.7759 43.8922 31.8812 43.6366 32.069 43.4474C32.2567 43.2583 32.5116 43.1511 32.778 43.1491H44.793C44.9262 43.1481 45.0583 43.1735 45.1817 43.2238C45.3051 43.274 45.4173 43.3483 45.5118 43.4421C45.6064 43.536 45.6814 43.6476 45.7326 43.7706C45.7838 43.8936 45.8102 44.0255 45.8102 44.1587C45.8102 44.292 45.7838 44.4239 45.7326 44.5469C45.6814 44.6699 45.6064 44.7815 45.5118 44.8753C45.4173 44.9692 45.3051 45.0434 45.1817 45.0937C45.0583 45.144 44.9262 45.1694 44.793 45.1684Z" fill="#A3D154"/>
<path d="M39.5219 33.2344L39.3705 35.8393V35.91L39.2695 37.8586L40.784 36.6268C40.8038 36.6076 40.8281 36.5937 40.8547 36.5864C40.8771 36.5608 40.9046 36.5401 40.9355 36.5258L42.874 34.9305L41.198 34.0825L39.5219 33.2344Z" fill="#A3D154"/>
<path d="M43.0059 32.7393L44.2578 33.3754L49.8614 22.4004C49.8769 22.3745 49.8904 22.3475 49.9018 22.3196L54.1525 13.9899L52.8904 13.3438L43.0059 32.7393Z" fill="#A3D154"/>
</svg>
