<svg width="120" height="119" viewBox="0 0 120 119" fill="none" xmlns="http://www.w3.org/2000/svg">
<g filter="url(#filter0_d_12074_1426)">
<path d="M53.3316 71.3139L76.4697 56.4818C77.5771 55.7699 78.1309 54.7811 78.1309 53.5154C78.1309 52.2498 77.5771 51.2609 76.4697 50.549L53.3316 35.7169C52.145 34.9259 50.9387 34.8665 49.7126 35.5389C48.4864 36.2113 47.8734 37.2595 47.8734 38.6833V68.3475C47.8734 69.7714 48.4864 70.8195 49.7126 71.4919C50.9387 72.1643 52.145 72.105 53.3316 71.3139ZM59.7391 100.978C53.1734 100.978 47.0032 99.7322 41.2286 97.2404C35.454 94.7486 30.4308 91.3669 26.1592 87.0953C21.8876 82.8236 18.5058 77.8005 16.0141 72.0259C13.5223 66.2512 12.2764 60.0811 12.2764 53.5154C12.2764 46.9497 13.5223 40.7796 16.0141 35.005C18.5058 29.2303 21.8876 24.2072 26.1592 19.9356C30.4308 15.6639 35.454 12.2822 41.2286 9.79042C47.0032 7.29863 53.1734 6.05273 59.7391 6.05273C66.3047 6.05273 72.4749 7.29863 78.2495 9.79042C84.0241 12.2822 89.0473 15.6639 93.3189 19.9356C97.5906 24.2072 100.972 29.2303 103.464 35.005C105.956 40.7796 107.202 46.9497 107.202 53.5154C107.202 60.0811 105.956 66.2512 103.464 72.0259C100.972 77.8005 97.5906 82.8236 93.3189 87.0953C89.0473 91.3669 84.0241 94.7486 78.2495 97.2404C72.4749 99.7322 66.3047 100.978 59.7391 100.978Z" fill="#A3D154"/>
<path d="M53.3316 71.3139L76.4697 56.4818C77.5771 55.7699 78.1309 54.7811 78.1309 53.5154C78.1309 52.2498 77.5771 51.2609 76.4697 50.549L53.3316 35.7169C52.145 34.9259 50.9387 34.8665 49.7126 35.5389C48.4864 36.2113 47.8734 37.2595 47.8734 38.6833V68.3475C47.8734 69.7714 48.4864 70.8195 49.7126 71.4919C50.9387 72.1643 52.145 72.105 53.3316 71.3139Z" fill="white"/>
</g>
<defs>
<filter id="filter0_d_12074_1426" x="0.410695" y="0.119898" width="118.657" height="118.657" filterUnits="userSpaceOnUse" color-interpolation-filters="sRGB">
<feFlood flood-opacity="0" result="BackgroundImageFix"/>
<feColorMatrix in="SourceAlpha" type="matrix" values="0 0 0 0 0 0 0 0 0 0 0 0 0 0 0 0 0 0 127 0" result="hardAlpha"/>
<feOffset dy="5.93284"/>
<feGaussianBlur stdDeviation="5.93284"/>
<feComposite in2="hardAlpha" operator="out"/>
<feColorMatrix type="matrix" values="0 0 0 0 0.191667 0 0 0 0 0.191667 0 0 0 0 0.191667 0 0 0 0.1 0"/>
<feBlend mode="normal" in2="BackgroundImageFix" result="effect1_dropShadow_12074_1426"/>
<feBlend mode="normal" in="SourceGraphic" in2="effect1_dropShadow_12074_1426" result="shape"/>
</filter>
</defs>
</svg>
