<svg width="49" height="49" viewBox="0 0 49 49" fill="none" xmlns="http://www.w3.org/2000/svg">
<path d="M15.6481 21.7693C15.6481 16.0242 15.7084 10.2776 15.6208 4.53253C15.5805 1.87951 17.4346 -0.0240831 20.177 0.000230263C28.3221 0.0731703 36.4686 0.034555 44.6137 0.020253C46.4376 0.0173926 47.8505 0.692446 48.6108 2.37579C48.8753 2.96217 48.9802 3.66583 48.9816 4.31657C49.0032 15.9512 49.0046 27.5845 48.9917 39.2191C48.9888 41.9036 47.3115 43.5297 44.6166 43.5312C36.4226 43.534 28.2286 43.534 20.0347 43.5312C17.3268 43.5297 15.6538 41.8607 15.6509 39.149C15.6438 33.3567 15.6481 27.563 15.6481 21.7693ZM29.732 15.4392C28.9027 15.8454 28.0605 16.2416 27.234 16.6678C26.3745 17.1097 25.6185 17.7561 25.4101 18.6829C25.1586 19.8027 25.1198 20.9798 25.0839 22.1354C25.0479 23.2409 25.7579 23.9332 26.8618 23.9374C30.6447 23.9518 34.4262 23.9518 38.2092 23.9374C39.3087 23.9332 39.9785 23.2381 40.0043 22.134C40.0187 21.5147 40.0273 20.894 40.0029 20.2761C39.9339 18.5742 39.129 17.3399 37.571 16.6191C36.6885 16.2101 35.7902 15.8339 34.8977 15.4421C37.8815 12.9163 38.3543 9.82283 36.1265 7.4158C34.1402 5.26908 30.754 5.19757 28.6742 7.25991C26.3372 9.5754 26.7468 12.6975 29.732 15.4392ZM32.3364 33.2337C30.1086 33.2337 27.8808 33.2151 25.653 33.2495C25.2233 33.2566 24.7403 33.3768 24.3781 33.5999C23.7644 33.9789 23.5747 34.8155 23.8162 35.5178C24.0533 36.21 24.7403 36.6562 25.6343 36.6576C30.0655 36.6633 34.4981 36.6633 38.9292 36.6591C40.1438 36.6576 40.9702 35.9297 40.9529 34.9042C40.9357 33.8945 40.1553 33.2395 38.9465 33.2366C36.7431 33.2309 34.5398 33.2337 32.3364 33.2337ZM32.3249 27.4986C30.8646 27.4986 29.4029 27.4901 27.9426 27.5015C26.7669 27.5101 26.0353 28.1522 26.0138 29.1648C25.9908 30.1989 26.7511 30.914 27.9354 30.9197C30.8574 30.9325 33.778 30.9311 36.7 30.9197C37.893 30.9154 38.6418 30.2146 38.6245 29.1734C38.6073 28.1623 37.8714 27.5087 36.7072 27.5001C35.2469 27.4901 33.7866 27.4986 32.3249 27.4986Z" fill="white"/>
<path d="M25.2061 45.9725C24.1051 46.2657 23.0056 46.5589 21.9046 46.852C19.3865 47.52 16.8755 48.2179 14.3473 48.8472C11.9428 49.4464 9.90901 48.2465 9.26941 45.8724C6.90364 37.0924 4.55511 28.3081 2.19508 19.5253C1.55262 17.134 0.905837 14.7455 0.243248 12.36C-0.558758 9.47812 0.641377 7.46155 3.56338 6.71355C6.55007 5.94983 9.52381 5.13175 12.5033 4.33942C12.7491 4.27364 12.9992 4.22072 13.3714 4.13062C13.3714 4.52249 13.3714 4.81997 13.3714 5.11888C13.3714 16.4861 13.3786 27.8533 13.3671 39.2205C13.3642 41.9064 14.4882 43.9373 16.91 45.1101C17.781 45.532 18.8288 45.7108 19.8076 45.7665C21.5956 45.8681 23.3922 45.7951 25.1859 45.7951C25.1931 45.8552 25.2003 45.9138 25.2061 45.9725Z" fill="white"/>
</svg>
