<svg width="48" height="48" viewBox="0 0 48 48" fill="none" xmlns="http://www.w3.org/2000/svg">
<path d="M19.2047 10.6106C18.731 6.30499 15.3055 3.53371 11.3107 4.03793C11.3107 3.04353 11.2628 2.05297 11.3291 1.06878C11.3671 0.490528 11.9476 0.0680063 12.5588 0.0105638C12.7417 -0.00730726 12.927 0.00290475 13.1111 0.00290475C24.1176 0.00290475 35.1254 0.00290475 46.1319 0.00290475C47.5629 0.00290475 47.9998 0.457339 47.9998 1.94319C47.9998 10.0707 47.9998 18.1969 47.9998 26.3244C47.9998 27.7872 47.574 28.2353 46.1773 28.2353C37.9727 28.234 29.7694 28.2315 21.5648 28.2289C21.3623 28.2289 21.1598 28.2289 20.8579 28.2289C20.8579 27.4783 20.8542 26.7648 20.8591 26.0512C20.864 25.1793 20.6321 24.1913 20.9512 23.4688C21.2813 22.7221 22.1441 22.2255 22.7835 21.6307C25.0234 19.5461 27.2939 17.4935 29.5055 15.3771C32.2817 12.7207 31.6447 8.18528 28.2647 6.5437C26.2998 5.59015 24.422 5.90417 22.7614 7.33513C21.5661 8.36016 20.4369 9.46944 19.2047 10.6106ZM39.0515 7.66319C40.1131 7.66319 41.1748 7.67085 42.2364 7.66064C43.1348 7.6517 43.7312 7.09004 43.7484 6.26287C43.7668 5.40889 43.1679 4.80766 42.2413 4.80255C40.1389 4.78979 38.0353 4.79106 35.9329 4.80127C35.0014 4.8051 34.3828 5.39102 34.3792 6.22585C34.3767 7.06196 35.0063 7.65426 35.9268 7.66192C36.9688 7.67085 38.0108 7.66319 39.0515 7.66319ZM39.0982 10.543C38.0365 10.543 36.9749 10.5328 35.9133 10.5455C34.9904 10.557 34.3681 11.1557 34.3792 11.9905C34.3902 12.8279 35.0149 13.4036 35.9464 13.4062C38.0292 13.4126 40.1119 13.4126 42.1934 13.4062C43.1323 13.4036 43.7398 12.8369 43.7472 11.9867C43.7546 11.134 43.1556 10.557 42.2204 10.5455C41.1809 10.534 40.1401 10.5443 39.0982 10.543ZM39.1068 16.2885C38.0451 16.2885 36.9835 16.2783 35.9219 16.2911C34.9953 16.3026 34.3742 16.8936 34.3804 17.7284C34.3865 18.5645 35.0149 19.1492 35.9403 19.1517C38.023 19.1581 40.1058 19.1581 42.1873 19.1517C43.1286 19.1492 43.7374 18.5888 43.7484 17.7412C43.7595 16.8655 43.152 16.2987 42.1689 16.2898C41.1478 16.2821 40.1266 16.2885 39.1068 16.2885Z" fill="#FFFDFD"/>
<path d="M23.278 39.9369C21.005 39.0154 19.9386 37.4399 20.2884 35.6114C20.6515 33.7138 22.1427 32.4604 24.0236 32.4713C25.8743 32.4822 27.3364 33.7319 27.6971 35.6126C28.0481 37.4411 26.9733 39.0275 24.7135 39.9357C28.2405 40.5606 30.3054 42.6386 31.0583 46.1625C31.7409 42.7113 33.9862 40.4552 37.4575 39.9309C36.3754 39.61 35.5257 39.1135 34.9557 38.221C34.3941 37.3406 34.2258 36.3827 34.4437 35.3788C34.8177 33.6484 36.344 32.464 38.1268 32.4713C39.9097 32.4798 41.3779 33.6726 41.7664 35.4297C42.1912 37.3503 41.2811 38.7635 38.8301 39.9587C41.2835 40.316 43.1716 41.516 44.2997 43.7055C44.7318 44.5459 44.9473 45.5207 45.1276 46.4604C45.3358 47.5443 44.8807 47.9996 43.778 47.9996C33.8119 48.0008 23.8457 47.9996 13.8795 47.9996C10.6309 47.9996 7.38348 48.0008 4.13485 47.9996C3.07699 47.9996 2.73929 47.6 2.84096 46.5343C3.14113 43.3967 5.32222 40.5073 9.25349 39.9321C8.16658 39.6076 7.30964 39.1135 6.74682 38.2198C6.18158 37.3225 6.0085 36.3488 6.26267 35.3195C6.69841 33.5539 8.16537 32.441 9.97972 32.4713C11.7226 32.5004 13.2138 33.7295 13.566 35.4285C13.9667 37.36 13.0177 38.8471 10.6624 39.9369C14.1083 40.5715 16.1695 42.5962 16.9357 46.1068C17.7031 42.6204 19.7619 40.5606 23.278 39.9369Z" fill="#FFFDFD"/>
<path d="M12.731 15.4228C14.58 15.2925 16.3337 15.7175 17.9695 14.9319C18.5437 14.6561 19.0827 14.2639 19.5665 13.8427C21.067 12.532 22.5286 11.1758 24.0128 9.8462C25.1598 8.81894 26.6553 8.84171 27.5916 9.88289C28.5594 10.9595 28.429 12.4523 27.2469 13.5213C24.1958 16.278 21.1397 19.0283 18.0736 21.7673C17.7314 22.0722 17.5784 22.3758 17.586 22.8464C17.6148 24.6137 17.5972 26.3824 17.5972 28.1952C13.8204 28.1952 10.0924 28.1952 6.2879 28.1952C6.2879 27.9561 6.28665 27.731 6.2879 27.507C6.29918 25.5664 6.32175 23.627 6.31798 21.6863C6.31673 20.931 5.9319 20.4237 5.31516 20.2529C4.70845 20.0847 4.04283 20.3175 3.7495 20.8804C3.60159 21.1638 3.53766 21.5206 3.53389 21.8457C3.50882 23.7218 3.51258 25.5993 3.50757 27.4767C3.50632 27.7044 3.50757 27.9308 3.50757 28.2205C2.684 28.2205 1.91684 28.261 1.1547 28.2079C0.545479 28.1649 0.0215039 27.6095 0.0215039 26.9592C0.0227574 24.7263 -0.080032 22.4782 0.153125 20.2668C0.430155 17.6405 2.81186 15.5733 5.43675 15.4443C7.1052 15.362 8.77992 15.4139 10.4509 15.4051C10.5286 15.4051 10.6051 15.3975 10.7066 15.3481C9.62981 14.918 8.71975 14.2968 8.15315 13.2582C7.58906 12.2246 7.48878 11.1265 7.80843 10.0107C8.32363 8.21675 10.0222 7.00858 11.8812 7.06045C13.7502 7.11105 15.3196 8.38627 15.7859 10.2321C16.3111 12.3068 15.4249 13.8629 12.731 15.4228Z" fill="#FFFDFD"/>
</svg>
