<svg width="50" height="56" viewBox="0 0 50 56" fill="none" xmlns="http://www.w3.org/2000/svg">
<path d="M16.4013 56.001C16.3815 55.6858 16.3572 55.4843 16.3572 55.2844C16.3557 49.8036 16.3587 44.3228 16.3496 38.842C16.3496 38.4176 16.4013 38.1393 16.8875 38.0039C20.8337 36.8998 24.7723 35.7649 28.7154 34.65C29.7441 34.3593 29.925 34.5162 29.9295 35.5957C29.9325 36.5399 29.9295 37.4842 29.9295 38.4637C29.5755 38.5637 29.2579 38.6283 28.9601 38.7436C27.8356 39.1788 27.1761 40.0108 27.1245 41.2272C27.0698 42.479 27.0804 43.7369 27.1199 44.9918C27.1655 46.4558 28.1031 47.3769 29.9067 47.7476C29.9067 49.0701 29.9371 50.4157 29.8748 51.7566C29.8657 51.9596 29.4585 52.2395 29.188 52.3195C26.0821 53.2376 22.9686 54.1249 19.8566 55.0184C18.7413 55.3398 17.626 55.6535 16.4013 56.001Z" fill="white"/>
<path d="M1.0077 47.7572C3.09552 47.3097 3.85071 46.3685 3.85375 44.3201C3.85527 43.3975 3.86135 42.4763 3.85223 41.5536C3.83704 40.0435 3.00131 38.9378 1.56233 38.6271C1.11103 38.5303 0.983391 38.3611 0.997067 37.9274C1.0229 37.057 0.998586 36.1866 1.0077 35.3147C1.01378 34.7165 1.24475 34.3843 1.90726 34.5719C5.97196 35.7253 10.0367 36.8786 14.1044 38.0166C14.5876 38.152 14.5405 38.4918 14.5405 38.8501C14.539 42.5132 14.539 46.1763 14.539 49.8378C14.539 51.5802 14.539 53.321 14.539 55.0634C14.539 55.3402 14.539 55.6154 14.539 55.9937C13.3492 55.6554 12.2597 55.3478 11.1733 55.0372C8.03698 54.1376 4.90222 53.2272 1.76138 52.3414C1.32072 52.2168 1.00922 52.0462 1.0077 51.5402C1.00618 50.29 1.0077 49.0382 1.0077 47.7572Z" fill="white"/>
<path d="M36.5488 14.9199C36.2191 14.9199 35.9516 14.9199 35.6112 14.9199C35.634 13.6927 35.5657 12.4625 34.4625 11.752C33.9215 11.4029 33.1983 11.1815 32.5585 11.1845C31.1363 11.1907 30.0118 12.4578 29.9769 13.888C29.9526 14.8861 30.3021 15.7765 31.15 16.2347C31.896 16.6376 32.791 16.7576 33.7195 17.0313C33.7195 18.9228 33.7195 20.9835 33.7195 23.1687C32.9293 23.1687 32.1285 23.1903 31.3308 23.1488C31.1864 23.1411 30.957 22.8858 30.9311 22.7197C30.6591 20.9604 29.8872 19.4149 28.9877 17.9202C26.637 14.0141 28.2127 8.41338 32.7667 6.34809C35.9243 4.91638 39.6851 5.68376 42.0935 8.30112C44.4806 10.8954 44.9608 14.68 43.2559 17.7664C42.3776 19.358 41.5039 20.9405 41.2274 22.7812C41.2046 22.9304 40.9493 23.0534 40.7867 23.1672C40.7351 23.2041 40.6393 23.1734 40.5633 23.1749C38.4072 23.2333 38.4072 23.2333 38.4072 21.0589C38.4072 19.6794 38.4072 18.3016 38.4072 16.8391C38.8402 16.8191 39.2095 16.8068 39.5772 16.7837C41.0602 16.6915 42.1771 15.5166 42.1999 14.028C42.2227 12.5117 41.0952 11.2614 39.6076 11.1507C38.1428 11.0415 36.8755 12.0611 36.6567 13.5451C36.5944 13.9757 36.5883 14.4109 36.5488 14.9199Z" fill="white"/>
<path d="M20.7304 21.1173C20.615 23.3379 20.2244 25.0357 19.0954 26.4828C17.038 29.1216 13.803 29.1386 11.8261 26.4428C10.2017 24.2283 9.82336 21.737 10.6697 19.0966C11.0663 17.8602 11.9036 16.9867 13.0873 16.4977C15.4152 15.535 18.9556 15.9241 20.1333 18.786C20.4858 19.6425 20.6028 20.5975 20.7304 21.1173Z" fill="white"/>
<path d="M26.4959 33.3706C24.4947 33.9442 22.5026 34.5148 20.509 35.0868C19.0244 35.5128 17.5414 35.9449 16.0538 36.3555C15.7696 36.434 15.4368 36.5078 15.1679 36.4324C11.6836 35.4498 8.20699 34.4409 4.73034 33.4367C4.63765 33.4106 4.55408 33.3537 4.4082 33.2845C5.09502 32.085 6.1602 31.4145 7.35454 30.967C10.0942 29.9398 12.9494 29.5845 15.8577 29.6368C18.5047 29.6845 21.1077 30.0397 23.6057 30.9624C25.0478 31.4914 26.0415 32.3449 26.4959 33.3706Z" fill="white"/>
<path d="M32.5871 27.5394C31.2301 27.1103 30.9581 26.5859 31.2438 25.0635C34.4788 25.0635 37.723 25.0635 40.9581 25.0635C41.2088 26.4075 41.0553 26.7105 39.9248 27.4425C39.7744 27.5394 39.7121 27.87 39.7121 28.093C39.7105 28.9296 39.5236 29.6031 38.6165 29.8845C38.4767 29.9276 38.3597 30.2721 38.349 30.4827C38.2792 31.9621 37.916 32.3327 36.4664 32.3358C36.1883 32.3358 35.9102 32.3374 35.6322 32.3358C34.3877 32.3235 33.9607 31.8975 33.9531 30.6196C33.9501 30.2167 33.9546 29.9122 33.4395 29.7754C32.8803 29.6277 32.6022 29.1448 32.5886 28.5451C32.581 28.216 32.5871 27.8854 32.5871 27.5394Z" fill="white"/>
<path d="M2.03292 43.1481C2.03292 43.6848 2.05116 44.223 2.02989 44.7597C2.00253 45.4271 1.58163 45.8577 0.995096 45.8316C0.350822 45.8024 0.0286852 45.4118 0.016529 44.7905C-0.00474416 43.6663 -0.00778319 42.5391 0.0210876 41.415C0.0378022 40.7845 0.411603 40.4031 1.04068 40.4215C1.66368 40.4385 2.00405 40.8337 2.02837 41.4611C2.04964 42.0209 2.03292 42.5853 2.03292 43.1481Z" fill="white"/>
<path d="M30.9191 43.0672C30.9191 43.63 30.9358 44.1913 30.9161 44.7541C30.8917 45.4508 30.5073 45.8598 29.9041 45.8306C29.2659 45.7999 28.9376 45.4246 28.93 44.7926C28.9164 43.6684 28.9118 42.5443 28.9331 41.4202C28.9452 40.7789 29.316 40.4113 29.942 40.4221C30.5711 40.4329 30.9024 40.8204 30.9176 41.4586C30.9282 41.9938 30.9191 42.5305 30.9191 43.0672Z" fill="white"/>
<path d="M25.3768 10.1867C24.5258 9.61153 23.7159 9.12097 22.9896 8.52737C22.8422 8.40742 22.8908 7.77999 23.0656 7.58776C23.2707 7.36324 23.7813 7.18486 24.0366 7.29097C24.7264 7.577 25.395 7.96914 25.9815 8.4351C26.1958 8.60426 26.2778 9.13635 26.1943 9.4393C26.1198 9.7038 25.7308 9.88065 25.3768 10.1867Z" fill="white"/>
<path d="M35.1806 1.83009C35.1821 1.49946 35.1456 1.16267 35.1897 0.838195C35.2581 0.326102 35.5468 -0.00606727 36.0938 8.40004e-05C36.6332 0.00623527 36.9523 0.31995 36.9827 0.845884C37.0222 1.53175 37.0253 2.22377 36.9827 2.9081C36.9493 3.43096 36.6241 3.74929 36.0877 3.74929C35.5437 3.75082 35.2565 3.40789 35.1912 2.89887C35.1426 2.54825 35.179 2.18686 35.1806 1.83009Z" fill="white"/>
<path d="M28.9682 1.919C29.7401 1.92669 31.0849 4.25033 30.7217 4.9485C30.4649 5.44214 29.7127 5.64667 29.3769 5.20378C28.8649 4.5256 28.4318 3.76438 28.096 2.98163C27.8756 2.46646 28.406 1.91284 28.9682 1.919Z" fill="white"/>
<path d="M44.33 2.82834C43.745 3.72181 43.2649 4.54762 42.6707 5.27962C42.5492 5.42879 41.8927 5.34575 41.68 5.15044C41.4673 4.95514 41.3503 4.42152 41.4597 4.14625C41.7195 3.49268 42.0857 2.86063 42.5203 2.30856C42.7026 2.07635 43.201 1.93179 43.4943 2.00407C43.783 2.07635 43.9912 2.4731 44.33 2.82834Z" fill="white"/>
<path d="M46.7942 10.187C46.4417 9.87939 46.0512 9.701 45.9798 9.43342C45.8977 9.13047 45.9874 8.59992 46.2031 8.42922C46.7912 7.9648 47.4598 7.57266 48.1512 7.28816C48.4049 7.18359 48.917 7.36505 49.1191 7.59111C49.2938 7.78795 49.3425 8.41692 49.1951 8.53533C48.4642 9.12893 47.6497 9.61642 46.7942 10.187Z" fill="white"/>
<path d="M35.6475 16.8406C35.9498 16.8406 36.2127 16.8406 36.5349 16.8406C36.5349 18.9428 36.5349 21.0158 36.5349 23.1303C36.2279 23.1303 35.9635 23.1303 35.6475 23.1303C35.6475 21.0281 35.6475 18.9551 35.6475 16.8406Z" fill="white"/>
<path d="M33.7268 14.8768C32.4535 15.0767 31.8746 14.8276 31.8016 14.0787C31.7439 13.4866 32.221 12.9684 32.8075 12.9868C33.5491 13.0099 33.8438 13.5973 33.7268 14.8768Z" fill="white"/>
<path d="M38.4817 14.8936C38.3176 13.6372 38.6048 13.0297 39.3494 12.9898C39.9359 12.9575 40.4176 13.4573 40.375 14.0539C40.3234 14.7967 39.7566 15.0551 38.4817 14.8936Z" fill="white"/>
</svg>
