<svg width="150" height="150" viewBox="0 0 150 150" fill="none" xmlns="http://www.w3.org/2000/svg">
<g clip-path="url(#clip0_12423_1640)">
<path d="M66.4259 77.3592L80.394 63.3911C77.2528 61.386 73.528 60.2185 69.5331 60.2185C58.3684 60.2185 49.2852 69.3017 49.2852 80.4665C49.2852 91.6312 58.3684 100.714 69.5331 100.714C80.6978 100.714 89.7811 91.6312 89.7811 80.4665C89.7811 76.4718 88.6136 72.7467 86.6085 69.6055L72.6403 83.5737L66.4259 77.3592Z" fill="#40A8CD"/>
<path d="M139.067 80.4666C139.067 68.5246 136.016 56.8463 130.224 46.5112L112.91 48.8837C119.385 57.7522 123.213 68.6699 123.213 80.4666C123.213 110.066 99.1327 134.147 69.5332 134.147C39.9337 134.147 15.8534 110.066 15.8534 80.4666C15.8534 50.8674 39.9343 26.7868 69.5335 26.7868C81.3302 26.7868 92.248 30.6147 101.116 37.0897L103.489 19.7758C93.1538 13.9838 81.4755 10.9331 69.5335 10.9331C50.9605 10.9331 33.4989 18.1659 20.366 31.2991C7.23281 44.432 0 61.8936 0 80.4666C0 99.0397 7.23281 116.501 20.366 129.634C33.4989 142.768 50.9602 150 69.5335 150C88.1068 150 105.568 142.767 118.701 129.634C131.834 116.501 139.067 99.0399 139.067 80.4666Z" fill="#40A8CD"/>
<path d="M69.5336 35.5757C44.7807 35.5757 24.6426 55.7135 24.6426 80.4667C24.6426 105.22 44.7804 125.358 69.5336 125.358C94.2868 125.358 114.425 105.22 114.425 80.4667C114.425 69.6693 110.592 59.7509 104.217 51.998L92.928 63.287C96.4729 68.1011 98.5709 74.0431 98.5709 80.4667C98.5709 96.4777 85.5449 109.504 69.5339 109.504C53.5229 109.504 40.4969 96.4777 40.4969 80.4667C40.4969 64.4557 53.5229 51.4297 69.5339 51.4297C75.9575 51.4297 81.8992 53.5276 86.7136 57.0726L98.0025 45.7836C90.2494 39.408 80.331 35.5757 69.5336 35.5757Z" fill="#40A8CD"/>
<path d="M131.926 0L112.393 19.5325L109.523 40.4769L130.467 37.6066L150 18.0741L136.816 13.1842L131.926 0Z" fill="#40A8CD"/>
</g>
<defs>
<clipPath id="clip0_12423_1640">
<rect width="150" height="150" fill="white"/>
</clipPath>
</defs>
</svg>
