<svg width="46" height="50" viewBox="0 0 46 50" fill="none" xmlns="http://www.w3.org/2000/svg">
<path d="M23.018 0.0025424C27.0002 0.0025424 30.9824 0.00124069 34.9659 0.0025424C37.9615 0.00384411 39.8415 1.90304 39.8466 4.95165C39.8542 8.89973 39.8542 12.8478 39.8466 16.7959C39.8415 19.8484 37.9692 21.7463 34.9774 21.7502C32.8905 21.7528 30.8035 21.7632 28.7166 21.7411C28.2731 21.7359 28.0379 21.8726 27.8399 22.2865C26.7101 24.6426 25.542 26.9792 24.4008 29.3288C24.103 29.9419 23.6915 30.3506 22.9809 30.3441C22.2985 30.3376 21.8985 29.9406 21.6122 29.3522C20.4684 27.0039 19.3003 24.666 18.1731 22.31C17.9623 21.87 17.7118 21.7359 17.2453 21.7411C15.1162 21.7671 12.9858 21.7593 10.8566 21.7502C8.08851 21.7385 6.16385 19.7859 6.15491 16.9534C6.14085 12.8973 6.13957 8.83985 6.15618 4.78372C6.16513 1.95771 8.10256 0.00905096 10.8796 0.00384411C14.9258 -0.00396615 18.9719 0.0025424 23.018 0.0025424ZM23.0001 16.2726C25.3248 16.1932 27.2226 15.282 28.668 13.4453C29.2239 12.7398 29.1383 11.813 28.5019 11.3014C27.8897 10.8093 27.0334 10.9317 26.4532 11.5943C24.4097 13.9282 21.5828 13.9321 19.5521 11.606C18.9502 10.9174 18.0709 10.8028 17.4575 11.3352C16.8427 11.8689 16.7916 12.7658 17.3642 13.4844C18.8211 15.3159 20.7278 16.2049 23.0001 16.2726ZM21.3413 7.73991C21.34 6.94326 20.7087 6.2898 19.9329 6.28069C19.1572 6.27158 18.522 6.91202 18.5105 7.71518C18.4977 8.55218 19.1342 9.21345 19.9406 9.20043C20.7176 9.18871 21.3425 8.53656 21.3413 7.73991ZM27.491 7.75683C27.4974 6.94847 26.8916 6.30152 26.1082 6.28069C25.3388 6.25986 24.6845 6.90161 24.664 7.69695C24.6423 8.52744 25.2788 9.20173 26.0826 9.20043C26.8673 9.19913 27.4846 8.5665 27.491 7.75683Z" fill="white"/>
<path d="M36.2901 37.6758C39.1822 38.0572 41.494 39.23 43.3203 41.3297C45.006 43.2679 45.8776 45.5511 45.9964 48.1324C46.0552 49.4224 45.4929 49.9991 44.2047 49.9991C38.2863 50.0004 32.3666 50.0004 26.4483 49.9991C25.1319 49.9991 24.6386 49.4823 24.6604 48.1415C24.746 42.9985 28.7601 38.4386 33.8005 37.7552C33.936 37.737 34.0702 37.707 34.2184 37.6276C32.258 37.1395 30.7704 36.0408 29.8388 34.2354C29.1397 32.8803 28.9991 31.4341 29.3212 29.9384C29.9372 27.0747 32.5519 25.0531 35.5616 25.1208C38.4307 25.1859 40.9266 27.4209 41.4033 30.3511C41.9401 33.6574 40.2416 36.1528 36.2901 37.6758Z" fill="white"/>
<path d="M9.54539 37.6884C7.50444 37.0883 5.95679 35.9233 5.06476 33.9434C4.43726 32.5479 4.36058 31.1121 4.7542 29.6308C5.50183 26.8217 8.2035 24.9342 11.2298 25.1347C13.9608 25.3143 16.3967 27.6431 16.7533 30.4131C17.1967 33.864 15.4996 36.3333 11.7039 37.635C12.3582 37.7821 12.9206 37.894 13.4752 38.0372C17.9661 39.1971 21.3272 43.5851 21.3451 48.3051C21.3489 49.4207 20.8058 49.9974 19.7105 49.9974C13.6848 50.0013 7.65908 50.0013 1.63335 49.9974C0.549614 49.9961 -0.00758987 49.4025 7.80793e-05 48.2947C0.0333058 43.0957 4.05131 38.4629 9.13516 37.7574C9.27318 37.7378 9.40865 37.7118 9.54539 37.6884Z" fill="white"/>
</svg>
