<svg width="150" height="150" viewBox="0 0 150 150" fill="none" xmlns="http://www.w3.org/2000/svg">
<path d="M126.699 43.1367L136.156 28.3195L143.565 33.0483L134.109 47.8655L126.699 43.1367Z" fill="#40A8CD"/>
<path d="M99.813 31.2249L105.449 14.5966L113.773 17.418L108.137 34.0463L99.813 31.2249Z" fill="#40A8CD"/>
<path d="M70.5996 10.0532H79.3892V27.6323H70.5996V10.0532Z" fill="#40A8CD"/>
<path d="M36.2446 17.3721L44.5683 14.5506L50.2048 31.1789L41.881 34.0004L36.2446 17.3721Z" fill="#40A8CD"/>
<path d="M6.4209 33.0652L13.8305 28.3364L23.2868 43.1536L15.8772 47.8824L6.4209 33.0652Z" fill="#40A8CD"/>
<path d="M114.548 71.5802C114.548 76.9359 113.492 82.1247 111.482 86.9118C111.749 86.9024 112.017 86.8974 112.286 86.8974C118.155 86.8974 123.673 89.183 127.824 93.3334L132.222 97.7323C138.882 92.4571 144.902 86.5291 150 80.2724C138.452 67.0072 123.271 55.0013 106.62 47.8062C111.763 54.6154 114.548 62.8773 114.548 71.5802Z" fill="#40A8CD"/>
<path d="M90.3388 108.047C85.5453 110.061 80.3512 111.119 74.9943 111.119C64.4474 111.119 54.5275 107.024 47.0617 99.5893C39.5683 92.1267 35.4413 82.1795 35.4413 71.5802C35.4413 62.8668 38.2331 54.5947 43.39 47.7795C41.3253 48.6755 39.2592 49.6558 37.1921 50.7229C24.268 57.3962 11.5712 67.0741 0 80.3698C18.5975 101.795 46.5401 119.923 74.9946 119.923C80.743 119.923 86.5209 119.184 92.228 117.825C90.8618 114.752 90.2163 111.402 90.3388 108.047Z" fill="#40A8CD"/>
<path d="M112.285 95.6867C110.284 95.6867 108.352 96.1306 106.599 96.9697L99.6377 90.0084C103.479 84.884 105.758 78.5119 105.758 71.5802C105.758 54.4959 91.924 40.8311 74.9944 40.8311C58.0531 40.8311 44.231 54.5085 44.231 71.5802C44.231 88.6644 58.0651 102.329 74.9944 102.329C81.8936 102.329 88.2754 100.06 93.4173 96.2182L100.39 103.191C98.0556 108.091 98.9117 114.143 102.963 118.194L124.716 139.947L143.361 121.302L121.608 99.5485C119.118 97.0582 115.807 95.6867 112.285 95.6867ZM74.9944 84.7645C67.7246 84.7645 61.8101 78.85 61.8101 71.5802C61.8101 64.3103 67.7246 58.3958 74.9944 58.3958C82.2643 58.3958 88.1788 64.3103 88.1788 71.5802C88.1788 78.85 82.2643 84.7645 74.9944 84.7645Z" fill="#40A8CD"/>
<path d="M74.9944 75.9749C77.4216 75.9749 79.3892 74.0073 79.3892 71.5801C79.3892 69.1529 77.4216 67.1853 74.9944 67.1853C72.5672 67.1853 70.5996 69.1529 70.5996 71.5801C70.5996 74.0073 72.5672 75.9749 74.9944 75.9749Z" fill="#40A8CD"/>
</svg>
