<svg width="56" height="53" viewBox="0 0 56 53" fill="none" xmlns="http://www.w3.org/2000/svg">
<path d="M13.4436 34.9321C13.2617 34.365 13.3631 34.0944 13.8829 33.8656C14.9563 33.3919 15.9831 32.8087 17.0871 32.2384C17.4106 32.9183 18.0817 32.9763 18.8429 32.973C24.9841 32.9537 31.1269 32.9618 37.2681 32.9618C37.5353 32.9618 37.8861 33.0536 38.0535 32.9199C38.3737 32.6669 38.768 32.2932 38.7906 31.9484C38.8083 31.6681 38.3641 31.2991 38.0487 31.0816C37.8636 30.9543 37.5288 31.0365 37.2601 31.0365C31.3055 31.0349 25.3526 31.0349 19.3981 31.0349C19.1116 31.0349 18.8252 31.0349 18.5805 31.0349C19.4174 29.7203 20.2108 28.433 21.0621 27.186C21.1764 27.0185 21.5836 26.9975 21.8539 26.9975C25.7694 26.9862 29.6849 26.9895 33.6005 26.9895C33.7888 26.9895 33.9754 26.9878 34.1637 26.9895C34.8107 26.9895 35.2709 26.7204 35.345 26.0421C35.4077 25.4686 34.896 25.0658 34.1348 25.0658C30.3528 25.0594 26.5709 25.0626 22.7906 25.0626C22.5009 25.0626 22.2112 25.0626 21.9135 25.0626C22.0487 23.7093 22.1758 22.4365 22.3142 21.0542C22.5749 21.0413 22.8823 21.0107 23.1897 21.0107C27.8567 21.0075 32.5238 21.0091 37.1893 21.0075C37.458 21.0075 37.73 21.0252 37.9923 20.9849C38.5476 20.9012 38.9451 20.5354 38.8067 20.0022C38.7149 19.6509 38.2965 19.3481 37.9618 19.1128C37.7976 18.9985 37.4934 19.0822 37.252 19.0822C32.6123 19.0822 27.9726 19.0822 23.3329 19.0822C23.0127 19.0822 22.6924 19.0822 22.2997 19.0822C22.2997 17.7418 22.2997 16.4497 22.2997 15.061C22.6216 15.061 22.9338 15.061 23.2476 15.061C27.9404 15.061 32.6349 15.0626 37.3277 15.0561C37.6431 15.0561 38.0551 15.09 38.2514 14.916C38.5282 14.6678 38.8115 14.2264 38.7809 13.8961C38.7568 13.6239 38.3078 13.3451 37.9923 13.1615C37.8105 13.0568 37.5208 13.1341 37.2794 13.1341C32.5319 13.1341 27.7843 13.1325 23.0384 13.1357C22.6103 13.1357 22.2176 13.1744 21.9634 12.6717C21.8523 12.4526 21.4983 12.3334 21.2327 12.219C18.5033 11.0397 15.7755 9.85391 13.03 8.71165C12.4474 8.46838 12.2205 8.17032 12.2494 7.52428C12.3331 5.6683 12.3524 3.79944 11.3562 2.12552C10.9475 1.43919 10.4486 0.807648 9.93359 0.0681577C10.1621 0.0472136 10.3762 0.0101585 10.5902 0.0117696C20.0837 0.0391581 29.5787 0.0649355 39.0722 0.101991C40.9599 0.110046 42.8654 1.64058 43.2999 3.47722C43.345 3.67055 43.3208 3.89933 43.2645 4.09266C43.1583 4.45193 42.9314 4.78543 42.8799 5.14792C42.6546 6.75901 41.6841 7.28584 40.1698 7.15695C39.6129 7.10862 39.0448 7.17628 38.4832 7.21334C37.8668 7.25361 37.3953 7.53072 37.2182 8.15099C37.0509 8.73421 37.2778 9.19981 37.7365 9.56875C38.5315 10.2067 39.3168 10.8576 40.1247 11.4779C40.4627 11.7373 40.5882 11.9725 40.4433 12.422C40.1327 13.3903 39.9058 14.3859 39.6403 15.3703C39.4794 15.9664 39.5582 16.5045 40.078 16.8863C40.5946 17.2649 41.1257 17.2037 41.6487 16.8573C42.2876 16.432 42.9378 16.0212 43.7377 15.5056C43.6701 16.7445 43.934 17.8095 43.4238 18.868C42.9941 19.7589 42.7286 20.7272 42.3214 21.6294C42.212 21.871 41.8612 22.1224 41.5972 22.1497C40.585 22.2593 39.5647 22.2931 38.5476 22.3286C37.9183 22.3495 37.4484 22.5912 37.2408 23.1986C37.0299 23.8108 37.2665 24.2989 37.7477 24.6888C38.562 25.3461 39.3957 25.9809 40.1778 26.6737C40.3581 26.8332 40.4771 27.2166 40.4273 27.4535C40.2148 28.4491 39.9348 29.4303 39.6612 30.4114C39.4874 31.0349 39.5276 31.6004 40.0877 31.9967C40.6397 32.3898 41.1981 32.2706 41.7356 31.9129C42.3504 31.5037 42.9748 31.109 43.691 30.645C43.691 34.3618 43.691 37.9433 43.691 41.5988C37.2166 41.5988 30.7455 41.5988 24.1585 41.5988C24.1585 40.7433 24.1585 39.8766 24.1585 38.9196C24.3516 38.9196 24.6413 38.9196 24.931 38.9196C29.0879 38.9196 33.2448 38.9212 37.4017 38.9164C37.693 38.9164 38.0728 38.9679 38.2547 38.8116C38.5234 38.5829 38.826 38.1704 38.7954 37.8708C38.7632 37.5646 38.3818 37.2408 38.0776 37.0394C37.8877 36.9138 37.5562 36.9943 37.2891 36.9943C31.9251 36.9927 26.5612 37.0024 21.1973 36.9734C20.7998 36.9718 20.3363 36.7655 20.0177 36.511C19.1953 35.8504 18.307 35.6797 17.3011 35.8859C17.0951 35.9278 16.7733 35.9471 16.6622 35.8279C15.7787 34.8918 14.6956 34.7034 13.4436 34.9321Z" fill="white"/>
<path d="M13.3457 32.0449C13.3457 31.0879 13.365 30.3098 13.3425 29.5332C13.2942 27.8657 12.0518 26.63 10.428 26.6075C8.81058 26.5849 7.52311 27.8045 7.43621 29.4591C7.41046 29.9328 7.43299 30.4096 7.43299 31.0492C5.70618 29.944 4.50883 28.5843 3.61565 26.9394C2.71282 25.2767 2.30243 23.4852 2.28473 21.605C2.26381 19.269 2.28634 16.9345 2.27347 14.5984C2.27186 14.1618 2.33462 13.8734 2.8142 13.6737C5.43581 12.5846 8.03327 11.4326 10.6581 10.3516C11.025 10.2001 11.5593 10.1824 11.9214 10.3323C14.572 11.423 17.2 12.5668 19.8265 13.7155C20.0244 13.8025 20.2803 14.07 20.2787 14.252C20.2433 17.4162 20.4509 20.6158 20.0389 23.7333C19.5207 27.645 17.0632 30.321 13.3457 32.0449ZM10.3716 22.6571C9.79228 22.0207 9.28051 21.4407 8.74943 20.8768C8.2972 20.3983 7.7613 20.2743 7.27528 20.7737C6.78765 21.2748 6.9518 21.7952 7.41529 22.2543C8.11857 22.9519 8.81058 23.6624 9.51708 24.3584C10.1978 25.0286 10.6018 25.0447 11.305 24.4083C13.1558 22.7393 15.0001 21.0637 16.8412 19.385C17.464 18.8162 17.567 18.2443 17.155 17.7916C16.7478 17.3453 16.1765 17.4049 15.5456 17.9736C13.8752 19.4816 12.2095 20.9928 10.3716 22.6571Z" fill="white"/>
<path d="M7.42776 40.1941C7.42776 41.1237 7.42615 41.9808 7.42776 42.8363C7.43098 43.8674 7.71261 44.3056 8.37405 44.3153C9.04836 44.325 9.34931 43.8851 9.34931 42.8701C9.35092 38.6845 9.34931 34.5005 9.35092 30.3149C9.35092 30.0733 9.34126 29.8316 9.35735 29.5916C9.40242 28.9213 9.76451 28.5331 10.4372 28.5556C11.0697 28.5766 11.4109 28.9713 11.4189 29.6028C11.4334 30.7564 11.4253 31.9099 11.427 33.0634C11.427 34.4055 11.4366 35.7459 11.4237 37.0879C11.4173 37.6841 11.567 38.1754 12.2123 38.3059C12.8126 38.4268 13.165 38.1013 13.3517 37.5439C13.5368 36.9897 13.9407 36.7206 14.5233 36.7835C15.0785 36.8415 15.2974 37.2184 15.4857 37.7195C15.6289 38.0997 15.9379 38.5685 16.2743 38.6733C16.543 38.757 16.9566 38.3349 17.3219 38.169C17.6615 38.0143 18.051 37.7501 18.36 37.8162C18.6126 37.8693 18.9007 38.3124 18.9635 38.6233C19.2306 39.9605 19.6845 40.1555 20.8416 39.3515C21.4821 38.9053 22.2127 39.2049 22.2208 39.9911C22.2497 42.9394 22.2224 45.8877 22.2127 48.836C22.2127 48.9681 22.1821 49.1035 22.1483 49.2323C21.8233 50.4535 21.4933 51.6731 21.1361 53.0023C17.7935 53.0023 14.2401 53.0023 10.5804 53.0023C10.5644 52.6478 10.5161 52.2837 10.5386 51.9245C10.6223 50.6243 10.0284 49.7141 8.94858 49.0744C8.34991 48.72 7.73193 48.3962 7.13647 48.0353C6.21272 47.4763 5.62853 46.6965 5.55933 45.5736C5.49334 44.5038 5.34207 43.4373 5.30666 42.3659C5.25999 41.0673 6.04373 40.2763 7.42776 40.1941Z" fill="white"/>
<path d="M24.1348 49.9888C24.1348 47.809 24.1348 45.7806 24.1348 43.6491C24.4711 43.6314 24.7511 43.6024 25.0312 43.6024C34.9736 43.6008 44.9177 43.6056 54.8602 43.5879C55.4749 43.5863 55.7453 43.7442 55.8837 44.3789C56.5371 47.3562 54.3886 50.0323 51.2488 50.0323C44.7101 50.0323 38.1698 50.0033 31.631 49.9904C29.1157 49.9839 26.6003 49.9888 24.1348 49.9888Z" fill="white"/>
<path d="M10.2508 6.43017C8.7895 6.43017 7.37168 6.43017 5.95386 6.43017C4.31716 6.43017 2.68047 6.40439 1.04539 6.44306C0.469244 6.45595 0.260031 6.24167 0.131284 5.70679C-0.6074 2.63122 1.87258 -0.267125 5.02366 0.0196484C8.31958 0.320922 10.6129 3.07427 10.2508 6.43017Z" fill="white"/>
<path d="M42.0639 13.989C42.1717 13.5121 42.2602 13.0288 42.3906 12.5567C42.7495 11.2582 42.7012 11.1051 41.6246 10.2384C41.2592 9.94353 40.9084 9.62937 40.5527 9.32488C40.5688 9.24432 40.5849 9.16377 40.601 9.08321C41.079 9.04132 41.5554 8.9801 42.0349 8.96077C43.3659 8.90921 43.5541 8.78355 44.0369 7.53657C44.2075 7.09674 44.3733 6.6553 44.5407 6.21386C44.6292 6.20258 44.7177 6.19131 44.8062 6.18164C44.9687 6.57152 45.1377 6.95819 45.2922 7.35129C45.8845 8.86249 45.9569 8.91083 47.5646 8.9656C47.9669 8.9801 48.3677 9.03488 48.7684 9.07193C48.7957 9.15571 48.8231 9.23949 48.8505 9.32326C48.4755 9.64065 48.1279 9.9967 47.7223 10.269C46.8983 10.8248 46.6135 11.5111 46.9772 12.4762C47.1574 12.9547 47.217 13.4799 47.3296 13.9841C47.2669 14.0309 47.2041 14.076 47.1414 14.1227C46.636 13.8053 46.1162 13.5105 45.6302 13.1657C45.0042 12.7211 44.4151 12.7033 43.7843 13.1577C43.3111 13.4976 42.8042 13.7908 42.3133 14.105C42.2281 14.0647 42.146 14.0276 42.0639 13.989Z" fill="white"/>
<path d="M42.0659 29.0463C42.1801 28.5646 42.2799 28.0797 42.4119 27.6028C42.7466 26.4025 42.6822 26.1931 41.7005 25.4004C41.3143 25.0879 40.9361 24.764 40.5547 24.445C40.5724 24.3597 40.5885 24.2727 40.6062 24.1873C41.0294 24.155 41.4527 24.1099 41.8776 24.0922C43.3871 24.0294 43.5706 23.8989 44.0952 22.4876C44.2401 22.0977 44.4074 21.7159 44.5635 21.3308C44.6456 21.3228 44.7261 21.3147 44.8082 21.3066C44.9965 21.7497 45.2411 22.1782 45.3602 22.6406C45.645 23.7442 46.366 24.1389 47.441 24.0954C47.8772 24.0777 48.3181 24.147 48.7575 24.1776C48.7945 24.263 48.8299 24.3484 48.8669 24.4338C48.4742 24.7592 48.1009 25.112 47.684 25.402C46.8987 25.9482 46.6203 26.6152 46.9695 27.5496C47.1513 28.0329 47.2125 28.5598 47.3268 29.0673C47.2624 29.1236 47.198 29.1784 47.1353 29.2348C46.7007 28.9593 46.2437 28.7144 45.8381 28.4019C45.0705 27.8106 44.3431 27.7961 43.5706 28.3938C43.1682 28.7048 42.7096 28.9432 42.2767 29.2155C42.2059 29.1591 42.1351 29.1027 42.0659 29.0463Z" fill="white"/>
</svg>
