<svg width="56" height="53" viewBox="0 0 56 53" fill="none" xmlns="http://www.w3.org/2000/svg">
<path d="M13.4436 34.9302C13.2617 34.3631 13.3631 34.0924 13.8829 33.8636C14.9563 33.39 15.9831 32.8068 17.0871 32.2364C17.4106 32.9163 18.0817 32.9743 18.8429 32.9711C24.9841 32.9518 31.1269 32.9598 37.2681 32.9598C37.5353 32.9598 37.8861 33.0516 38.0535 32.9179C38.3737 32.665 38.768 32.2912 38.7906 31.9464C38.8083 31.6661 38.3641 31.2972 38.0487 31.0797C37.8636 30.9524 37.5288 31.0346 37.2601 31.0346C31.3055 31.0329 25.3526 31.0329 19.3981 31.0329C19.1116 31.0329 18.8252 31.0329 18.5805 31.0329C19.4174 29.7183 20.2108 28.431 21.0621 27.1841C21.1764 27.0165 21.5836 26.9956 21.8539 26.9956C25.7694 26.9843 29.6849 26.9875 33.6005 26.9875C33.7888 26.9875 33.9754 26.9859 34.1637 26.9875C34.8107 26.9875 35.2709 26.7185 35.345 26.0402C35.4077 25.4666 34.896 25.0639 34.1348 25.0639C30.3528 25.0574 26.5709 25.0606 22.7906 25.0606C22.5009 25.0606 22.2112 25.0606 21.9135 25.0606C22.0487 23.7073 22.1758 22.4346 22.3142 21.0523C22.5749 21.0394 22.8823 21.0088 23.1897 21.0088C27.8567 21.0055 32.5238 21.0071 37.1893 21.0055C37.458 21.0055 37.73 21.0233 37.9923 20.983C38.5476 20.8992 38.9451 20.5335 38.8067 20.0002C38.7149 19.649 38.2965 19.3461 37.9618 19.1109C37.7976 18.9965 37.4934 19.0803 37.252 19.0803C32.6123 19.0803 27.9726 19.0803 23.3329 19.0803C23.0127 19.0803 22.6924 19.0803 22.2997 19.0803C22.2997 17.7399 22.2997 16.4478 22.2997 15.059C22.6216 15.059 22.9338 15.059 23.2476 15.059C27.9404 15.059 32.6349 15.0606 37.3277 15.0542C37.6431 15.0542 38.0551 15.088 38.2514 14.914C38.5282 14.6659 38.8115 14.2245 38.7809 13.8942C38.7568 13.6219 38.3078 13.3432 37.9923 13.1595C37.8105 13.0548 37.5208 13.1321 37.2794 13.1321C32.5319 13.1321 27.7843 13.1305 23.0384 13.1337C22.6103 13.1337 22.2176 13.1724 21.9634 12.6698C21.8523 12.4506 21.4983 12.3314 21.2327 12.217C18.5033 11.0377 15.7755 9.85196 13.03 8.7097C12.4474 8.46642 12.2205 8.16837 12.2494 7.52232C12.3331 5.66635 12.3524 3.79749 11.3562 2.12357C10.9475 1.43724 10.4486 0.805695 9.93359 0.0662046C10.1621 0.0452604 10.3762 0.00820539 10.5902 0.00981648C20.0837 0.037205 29.5787 0.0629824 39.0722 0.100037C40.9599 0.108093 42.8654 1.63863 43.2999 3.47527C43.345 3.6686 43.3208 3.89737 43.2645 4.0907C43.1583 4.44998 42.9314 4.78347 42.8799 5.14597C42.6546 6.75706 41.6841 7.28388 40.1698 7.155C39.6129 7.10666 39.0448 7.17433 38.4832 7.21138C37.8668 7.25166 37.3953 7.52877 37.2182 8.14904C37.0509 8.73225 37.2778 9.19786 37.7365 9.5668C38.5315 10.2048 39.3168 10.8557 40.1247 11.4759C40.4627 11.7353 40.5882 11.9705 40.4433 12.42C40.1327 13.3883 39.9058 14.384 39.6403 15.3683C39.4794 15.9644 39.5582 16.5025 40.078 16.8844C40.5946 17.263 41.1257 17.2017 41.6487 16.8554C42.2876 16.43 42.9378 16.0192 43.7377 15.5037C43.6701 16.7426 43.934 17.8075 43.4238 18.866C42.9941 19.7569 42.7286 20.7252 42.3214 21.6274C42.212 21.8691 41.8612 22.1204 41.5972 22.1478C40.585 22.2573 39.5647 22.2912 38.5476 22.3266C37.9183 22.3476 37.4484 22.5892 37.2408 23.1966C37.0299 23.8088 37.2665 24.297 37.7477 24.6869C38.562 25.3442 39.3957 25.979 40.1778 26.6717C40.3581 26.8312 40.4771 27.2147 40.4273 27.4515C40.2148 28.4472 39.9348 29.4283 39.6612 30.4095C39.4874 31.0329 39.5276 31.5984 40.0877 31.9948C40.6397 32.3879 41.1981 32.2687 41.7356 31.911C42.3504 31.5018 42.9748 31.1071 43.691 30.6431C43.691 34.3598 43.691 37.9413 43.691 41.5969C37.2166 41.5969 30.7455 41.5969 24.1585 41.5969C24.1585 40.7414 24.1585 39.8746 24.1585 38.9176C24.3516 38.9176 24.6413 38.9176 24.931 38.9176C29.0879 38.9176 33.2448 38.9192 37.4017 38.9144C37.693 38.9144 38.0728 38.966 38.2547 38.8097C38.5234 38.5809 38.826 38.1685 38.7954 37.8688C38.7632 37.5627 38.3818 37.2389 38.0776 37.0375C37.8877 36.9118 37.5562 36.9924 37.2891 36.9924C31.9251 36.9908 26.5612 37.0004 21.1973 36.9714C20.7998 36.9698 20.3363 36.7636 20.0177 36.509C19.1953 35.8485 18.307 35.6777 17.3011 35.8839C17.0951 35.9258 16.7733 35.9452 16.6622 35.8259C15.7787 34.8899 14.6956 34.7014 13.4436 34.9302Z" fill="white"/>
<path d="M13.3457 32.0429C13.3457 31.086 13.365 30.3078 13.3425 29.5313C13.2942 27.8638 12.0518 26.6281 10.428 26.6055C8.81058 26.583 7.52311 27.8026 7.43621 29.4571C7.41046 29.9308 7.43299 30.4077 7.43299 31.0473C5.70618 29.9421 4.50883 28.5823 3.61565 26.9374C2.71282 25.2748 2.30243 23.4832 2.28473 21.6031C2.26381 19.267 2.28634 16.9325 2.27347 14.5965C2.27186 14.1599 2.33462 13.8715 2.8142 13.6717C5.43581 12.5826 8.03327 11.4307 10.6581 10.3496C11.025 10.1982 11.5593 10.1805 11.9214 10.3303C14.572 11.421 17.2 12.5649 19.8265 13.7136C20.0244 13.8006 20.2803 14.068 20.2787 14.2501C20.2433 17.4143 20.4509 20.6139 20.0389 23.7313C19.5207 27.6431 17.0632 30.3191 13.3457 32.0429ZM10.3716 22.6551C9.79228 22.0188 9.28051 21.4388 8.74943 20.8749C8.2972 20.3964 7.7613 20.2723 7.27528 20.7718C6.78765 21.2728 6.9518 21.7932 7.41529 22.2524C8.11857 22.95 8.81058 23.6604 9.51708 24.3564C10.1978 25.0267 10.6018 25.0428 11.305 24.4064C13.1558 22.7373 15.0001 21.0618 16.8412 19.383C17.464 18.8143 17.567 18.2424 17.155 17.7896C16.7478 17.3434 16.1765 17.403 15.5456 17.9717C13.8752 19.4797 12.2095 20.9909 10.3716 22.6551Z" fill="white"/>
<path d="M7.42776 40.1922C7.42776 41.1218 7.42615 41.9789 7.42776 42.8344C7.43098 43.8655 7.71261 44.3037 8.37405 44.3133C9.04836 44.323 9.34931 43.8832 9.34931 42.8682C9.35092 38.6826 9.34931 34.4986 9.35092 30.313C9.35092 30.0713 9.34126 29.8296 9.35735 29.5896C9.40242 28.9194 9.76451 28.5311 10.4372 28.5537C11.0697 28.5746 11.4109 28.9693 11.4189 29.6009C11.4334 30.7544 11.4253 31.908 11.427 33.0615C11.427 34.4035 11.4366 35.744 11.4237 37.086C11.4173 37.6821 11.567 38.1735 12.2123 38.304C12.8126 38.4248 13.165 38.0994 13.3517 37.5419C13.5368 36.9877 13.9407 36.7187 14.5233 36.7815C15.0785 36.8395 15.2974 37.2165 15.4857 37.7175C15.6289 38.0978 15.9379 38.5666 16.2743 38.6713C16.543 38.7551 16.9566 38.333 17.3219 38.167C17.6615 38.0124 18.051 37.7482 18.36 37.8142C18.6126 37.8674 18.9007 38.3104 18.9635 38.6214C19.2306 39.9586 19.6845 40.1535 20.8416 39.3496C21.4821 38.9033 22.2127 39.203 22.2208 39.9892C22.2497 42.9375 22.2224 45.8858 22.2127 48.8341C22.2127 48.9662 22.1821 49.1015 22.1483 49.2304C21.8233 50.4516 21.4933 51.6712 21.1361 53.0003C17.7935 53.0003 14.2401 53.0003 10.5804 53.0003C10.5644 52.6459 10.5161 52.2818 10.5386 51.9225C10.6223 50.6224 10.0284 49.7121 8.94858 49.0725C8.34991 48.7181 7.73193 48.3942 7.13647 48.0333C6.21272 47.4743 5.62853 46.6945 5.55933 45.5716C5.49334 44.5018 5.34207 43.4353 5.30666 42.3639C5.25999 41.0654 6.04373 40.2743 7.42776 40.1922Z" fill="white"/>
<path d="M24.1348 49.9868C24.1348 47.807 24.1348 45.7786 24.1348 43.6472C24.4711 43.6294 24.7511 43.6004 25.0312 43.6004C34.9736 43.5988 44.9177 43.6037 54.8602 43.5859C55.4749 43.5843 55.7453 43.7422 55.8837 44.377C56.5371 47.3543 54.3886 50.0303 51.2488 50.0303C44.7101 50.0303 38.1698 50.0013 31.631 49.9884C29.1157 49.982 26.6003 49.9868 24.1348 49.9868Z" fill="white"/>
<path d="M10.2508 6.42822C8.7895 6.42822 7.37168 6.42822 5.95386 6.42822C4.31716 6.42822 2.68047 6.40244 1.04539 6.44111C0.469244 6.454 0.260031 6.23972 0.131284 5.70484C-0.6074 2.62927 1.87258 -0.269079 5.02366 0.0176953C8.31958 0.318969 10.6129 3.07232 10.2508 6.42822Z" fill="white"/>
<path d="M42.0639 13.987C42.1717 13.5101 42.2602 13.0268 42.3906 12.5548C42.7495 11.2562 42.7012 11.1032 41.6246 10.2364C41.2592 9.94158 40.9084 9.62742 40.5527 9.32292C40.5688 9.24237 40.5849 9.16181 40.601 9.08126C41.079 9.03937 41.5554 8.97815 42.0349 8.95882C43.3659 8.90726 43.5541 8.7816 44.0369 7.53461C44.2075 7.09479 44.3733 6.65335 44.5407 6.21191C44.6292 6.20063 44.7177 6.18935 44.8062 6.17969C44.9687 6.56957 45.1377 6.95623 45.2922 7.34934C45.8845 8.86054 45.9569 8.90887 47.5646 8.96365C47.9669 8.97815 48.3677 9.03293 48.7684 9.06998C48.7957 9.15376 48.8231 9.23753 48.8505 9.32131C48.4755 9.6387 48.1279 9.99475 47.7223 10.267C46.8983 10.8228 46.6135 11.5092 46.9772 12.4742C47.1574 12.9527 47.217 13.4779 47.3296 13.9822C47.2669 14.0289 47.2041 14.074 47.1414 14.1207C46.636 13.8034 46.1162 13.5085 45.6302 13.1638C45.0042 12.7191 44.4151 12.7014 43.7843 13.1557C43.3111 13.4956 42.8042 13.7889 42.3133 14.103C42.2281 14.0627 42.146 14.0257 42.0639 13.987Z" fill="white"/>
<path d="M42.0659 29.0444C42.1801 28.5626 42.2799 28.0777 42.4119 27.6008C42.7466 26.4006 42.6822 26.1911 41.7005 25.3985C41.3143 25.0859 40.9361 24.7621 40.5547 24.4431C40.5724 24.3577 40.5885 24.2707 40.6062 24.1853C41.0294 24.1531 41.4527 24.108 41.8776 24.0903C43.3871 24.0274 43.5706 23.8969 44.0952 22.4856C44.2401 22.0957 44.4074 21.7139 44.5635 21.3289C44.6456 21.3208 44.7261 21.3127 44.8082 21.3047C44.9965 21.7477 45.2411 22.1763 45.3602 22.6387C45.645 23.7423 46.366 24.137 47.441 24.0935C47.8772 24.0758 48.3181 24.145 48.7575 24.1756C48.7945 24.261 48.8299 24.3464 48.8669 24.4318C48.4742 24.7572 48.1009 25.1101 47.684 25.4001C46.8987 25.9462 46.6203 26.6132 46.9695 27.5477C47.1513 28.031 47.2125 28.5578 47.3268 29.0653C47.2624 29.1217 47.198 29.1765 47.1353 29.2329C46.7007 28.9574 46.2437 28.7125 45.8381 28.3999C45.0705 27.8087 44.3431 27.7942 43.5706 28.3919C43.1682 28.7028 42.7096 28.9412 42.2767 29.2135C42.2059 29.1571 42.1351 29.1007 42.0659 29.0444Z" fill="white"/>
</svg>
