<svg width="53" height="52" viewBox="0 0 53 52" fill="none" xmlns="http://www.w3.org/2000/svg">
<path d="M26.7024 0.0636146C26.7024 3.22863 26.6978 6.31939 26.7071 9.41016C26.7086 9.92219 26.7334 10.4435 26.8231 10.9463C27.3689 13.9906 29.7828 16.0511 32.8818 16.0821C35.8462 16.1115 38.8106 16.0898 41.775 16.0913C42.0564 16.0913 42.3363 16.0913 42.6997 16.0913C42.6997 18.2493 42.6997 20.3485 42.6997 22.5621C42.344 22.3626 42.0007 22.1739 41.6621 21.9774C39.9255 20.9704 38.1997 20.9905 36.457 21.9805C34.9585 22.8313 33.4493 23.6682 31.9184 24.4602C31.5287 24.6613 31.0416 24.7588 30.5993 24.7603C23.82 24.7789 17.0407 24.7727 10.2614 24.7727C10.0294 24.7727 9.79745 24.7681 9.56549 24.7743C8.69488 24.799 8.16447 25.2523 8.15056 25.9778C8.13509 26.7311 8.68405 27.223 9.59951 27.2246C14.3422 27.2323 19.085 27.2277 23.8277 27.2292C24.1107 27.2292 24.3921 27.2292 24.7045 27.2292C24.6921 27.3329 24.7092 27.4288 24.672 27.4628C23.3545 28.6694 23.0081 30.1978 22.9695 31.9319C22.8643 36.5943 23.8679 40.9304 26.4457 44.858C28.1421 47.4414 30.3256 49.5236 32.9235 51.1834C33.2482 51.3907 33.5622 51.6135 34.0152 51.9198C33.6936 51.9569 33.5127 51.994 33.3317 51.9955C24.5684 51.9986 15.8036 52.0079 7.04026 51.9925C3.414 51.9863 0.723309 49.307 0.720216 45.6887C0.707845 32.5646 0.707845 19.4389 0.720216 6.31475C0.723309 2.7893 3.35679 0.0419576 6.8083 0.0218476C13.2258 -0.0168257 19.6448 0.00947213 26.0622 0.0110191C26.2401 0.0110191 26.4148 0.0388638 26.7024 0.0636146ZM18.0396 19.804C20.1504 19.804 22.2612 19.8055 24.3736 19.804C25.1715 19.804 25.971 19.8287 26.7674 19.7854C27.4633 19.7483 27.9194 19.227 27.9194 18.5742C27.9194 17.9198 27.4602 17.4325 26.7643 17.3598C26.5865 17.3413 26.404 17.349 26.2246 17.349C20.7659 17.349 15.3087 17.3474 9.85002 17.3505C9.59332 17.3505 9.32735 17.3397 9.08302 17.4C8.48148 17.547 8.16293 17.9786 8.16293 18.5788C8.16447 19.1775 8.48457 19.6091 9.08611 19.756C9.33199 19.8163 9.59642 19.804 9.85312 19.8055C12.5809 19.8055 15.3103 19.804 18.0396 19.804ZM15.4835 42.0828C17.4659 42.0828 19.4468 42.0875 21.4293 42.0813C22.4174 42.0782 22.9757 41.628 22.9788 40.8577C22.9819 40.0857 22.4236 39.6294 21.437 39.6279C17.5247 39.6232 13.6124 39.6232 9.70002 39.6279C8.71034 39.6294 8.15365 40.0796 8.1521 40.8499C8.15055 41.6218 8.70725 42.0766 9.69384 42.0797C11.6237 42.0875 13.5536 42.0828 15.4835 42.0828ZM14.4087 9.92064C12.8392 9.92064 11.2696 9.916 9.70002 9.92219C8.71034 9.92683 8.15519 10.3708 8.15056 11.1427C8.14592 11.9146 8.70416 12.3725 9.6892 12.3756C12.7773 12.3818 15.8639 12.3803 18.952 12.3756C19.9401 12.3741 20.4922 11.927 20.4953 11.1535C20.4984 10.3785 19.9463 9.92683 18.9628 9.92219C17.4458 9.916 15.9273 9.92064 14.4087 9.92064ZM14.3314 34.656C15.901 34.656 17.4706 34.6638 19.0401 34.6529C19.9587 34.6467 20.4984 34.1765 20.4953 33.4231C20.4922 32.6713 19.9525 32.2057 19.0309 32.2026C15.8917 32.1949 12.7526 32.1949 9.61343 32.2026C8.69333 32.2041 8.14746 32.6821 8.15056 33.4324C8.15365 34.1811 8.69952 34.6467 9.62116 34.6529C11.1923 34.6638 12.7618 34.656 14.3314 34.656Z" fill="white"/>
<path d="M25.4662 32.8923C25.4662 32.4019 25.4631 31.9131 25.4662 31.4227C25.4801 29.9934 26.094 29.2508 27.4487 28.7357C29.9445 27.7843 32.428 26.7989 34.8852 25.7517C35.8022 25.3603 36.6481 24.791 37.4893 24.2434C38.5671 23.5427 39.5908 23.572 40.664 24.2481C43.3099 25.9126 46.0794 27.328 49.0686 28.2747C49.7057 28.4774 50.3629 28.6212 50.9923 28.8455C52.0129 29.2106 52.6113 29.9701 52.6685 31.0437C52.8897 35.1632 52.2788 39.1079 50.1216 42.7168C48.6696 45.1455 46.7908 47.1612 44.4418 48.7375C43.18 49.5852 41.9104 50.419 40.6532 51.2729C39.6217 51.9737 38.5965 52.003 37.5573 51.3038C36.0604 50.2983 34.5156 49.3593 33.0759 48.2765C27.9683 44.4355 25.5018 39.2595 25.4662 32.8923ZM37.8218 37.9275C37.2604 37.3366 36.8135 36.8385 36.3357 36.3729C35.7403 35.7928 34.9795 35.7665 34.4878 36.2754C33.9929 36.7875 33.9945 37.4882 34.5481 38.0714C35.3105 38.8727 36.0914 39.6555 36.8939 40.4166C37.5218 41.0137 38.1604 40.9967 38.8053 40.3949C39.3125 39.9215 39.7918 39.4188 40.2836 38.9269C41.3923 37.8162 42.5026 36.7086 43.6052 35.5932C43.9964 35.1972 44.2269 34.6805 43.8944 34.2025C43.6593 33.8638 43.2109 33.5203 42.8289 33.4817C42.4733 33.4461 42.0032 33.7354 41.714 34.0154C40.4212 35.2622 39.1764 36.5554 37.8218 37.9275Z" fill="white"/>
<path d="M41.6421 13.594C41.424 13.6079 41.2292 13.6311 41.0359 13.6311C38.3839 13.6326 35.7318 13.6404 33.0798 13.6296C30.7695 13.6203 29.1938 12.0579 29.1814 9.7545C29.1675 7.02417 29.1767 4.29384 29.1783 1.56351C29.1783 1.3918 29.1984 1.22164 29.2108 1.03601C30.0211 1.34694 41.1117 12.5513 41.6421 13.594Z" fill="white"/>
</svg>
